{"glyphs":{"0":{"ha":896,"x_min":63,"x_max":833,"o":"m 456 738 q 651 692 567 738 q 785 565 736 647 q 833 371 833 482 q 784 172 833 260 q 647 32 735 83 q 440 -19 558 -19 q 247 26 332 -19 q 112 155 161 72 q 63 349 63 238 q 111 547 63 458 q 249 686 160 635 q 456 738 338 738 m 443 713 q 320 617 368 713 q 272 353 272 522 q 297 151 272 228 q 363 40 322 75 q 453 6 404 6 q 576 101 528 6 q 624 367 624 197 q 599 568 624 492 q 533 678 574 644 q 443 713 492 713 z "},"1":{"ha":532,"x_min":56,"x_max":492,"o":"m 392 733 l 392 135 q 415 51 392 74 q 492 29 438 29 l 492 0 q 410 3 464 1 q 300 6 357 6 q 163 3 229 6 q 61 0 97 1 l 61 29 q 158 52 124 29 q 192 143 192 75 l 192 482 q 181 581 192 549 q 139 622 169 613 q 56 632 108 632 l 56 663 q 253 681 175 665 q 392 733 332 696 z "},"2":{"ha":726,"x_min":57,"x_max":669,"o":"m 382 738 q 551 692 489 738 q 614 561 614 646 q 587 463 614 507 q 515 378 560 418 q 420 304 471 339 q 322 235 369 269 q 242 165 275 201 l 542 165 q 614 179 599 165 q 635 228 629 193 l 664 228 q 665 83 664 135 q 669 -7 667 32 q 624 -3 657 -4 q 547 -1 590 -1 q 463 0 504 0 l 58 0 l 58 26 q 154 118 97 68 q 266 229 211 168 q 358 362 321 290 q 396 515 396 433 q 363 624 396 590 q 267 657 329 657 q 162 630 207 657 q 81 550 117 603 l 57 564 q 127 651 85 611 q 232 714 169 690 q 382 738 294 738 z "},"3":{"ha":678,"x_min":40,"x_max":629,"o":"m 342 738 q 464 719 410 738 q 549 665 518 700 q 579 578 579 629 q 545 479 579 525 q 448 399 511 433 q 297 349 385 365 q 467 329 392 353 q 585 258 542 306 q 629 138 629 210 q 595 19 629 74 q 501 -77 561 -35 q 366 -149 442 -119 q 207 -194 290 -179 q 40 -210 124 -210 l 40 -182 q 173 -159 106 -181 q 297 -98 240 -137 q 388 1 353 -58 q 422 136 422 60 q 383 271 422 218 q 276 329 344 324 q 239 313 256 319 q 206 307 222 307 q 186 311 193 307 q 179 326 179 315 q 193 350 179 343 q 224 357 207 357 q 247 355 235 357 q 272 351 258 353 q 356 441 332 393 q 379 538 379 489 q 347 630 379 600 q 256 660 314 660 q 154 633 201 660 q 75 551 107 606 l 50 564 q 113 649 75 610 q 206 713 150 689 q 342 738 261 738 z "},"4":{"ha":733,"x_min":11,"x_max":690,"o":"m 529 738 l 535 701 l 101 146 l 121 193 l 563 193 q 635 207 619 193 q 656 256 650 221 l 685 256 q 686 126 685 172 q 690 43 688 79 q 654 47 681 46 q 592 49 628 47 q 519 50 556 50 q 450 50 482 50 l 11 50 l 11 79 l 529 738 m 551 738 l 551 -196 l 390 -196 l 390 542 l 529 738 l 551 738 z "},"5":{"ha":638,"x_min":42,"x_max":592,"o":"m 535 771 q 536 628 535 679 q 540 538 538 578 q 498 542 529 540 q 426 544 467 543 q 347 544 386 544 l 133 544 l 111 307 q 197 347 144 331 q 321 363 249 363 q 474 333 414 363 q 563 254 533 304 q 592 143 592 204 q 544 -1 592 63 q 415 -111 496 -65 q 238 -181 335 -157 q 42 -206 140 -206 l 42 -181 q 167 -160 106 -181 q 278 -99 229 -139 q 356 0 326 -58 q 385 135 385 58 q 344 268 385 221 q 225 315 304 315 q 156 305 185 315 q 100 275 128 294 l 81 288 l 125 722 q 160 718 140 719 q 200 717 181 717 l 429 717 q 485 729 469 717 q 506 771 501 742 l 535 771 z "},"6":{"ha":779,"x_min":65,"x_max":738,"o":"m 619 1004 l 625 976 q 525 936 575 960 q 430 871 475 913 q 350 765 385 829 q 295 603 315 700 q 275 368 275 506 q 295 152 275 231 q 346 41 315 74 q 406 8 376 8 q 465 38 438 8 q 510 131 493 67 q 528 299 528 194 q 512 458 528 399 q 469 544 496 518 q 410 571 443 571 q 357 557 386 571 q 303 513 328 543 q 267 426 278 482 l 254 432 q 295 538 263 499 q 374 594 328 578 q 465 611 419 611 q 601 575 540 611 q 700 472 663 539 q 738 311 738 406 q 690 131 738 204 q 564 19 643 57 q 392 -19 485 -19 q 152 84 239 -19 q 65 376 65 188 q 101 599 65 501 q 197 767 138 696 q 330 888 257 839 q 478 965 403 936 q 619 1004 554 993 z "},"7":{"ha":632,"x_min":32,"x_max":631,"o":"m 32 724 q 78 719 44 721 q 154 717 111 718 q 239 717 197 717 l 631 717 l 631 688 q 563 553 604 625 q 481 398 522 482 q 413 217 440 314 q 386 8 386 121 q 388 -22 386 0 q 392 -67 390 -44 q 393 -104 393 -90 q 368 -174 393 -143 q 292 -206 343 -206 q 215 -171 240 -206 q 190 -83 190 -136 q 218 68 190 -7 q 290 216 246 143 q 386 358 335 289 q 487 492 438 428 q 572 613 536 556 l 540 549 l 160 549 q 88 535 103 549 q 67 486 72 521 l 38 486 q 36 631 38 578 q 32 724 35 685 z "},"8":{"ha":779,"x_min":60,"x_max":722,"o":"m 400 1003 q 541 978 479 1003 q 638 911 603 954 q 672 808 672 868 q 617 678 672 733 q 465 575 563 624 l 454 594 q 489 657 476 622 q 506 729 501 692 q 511 797 511 767 q 478 930 511 882 q 389 978 446 978 q 315 946 342 978 q 289 863 289 914 q 320 751 289 803 q 401 654 351 700 q 506 563 450 608 q 610 468 561 517 q 691 365 660 419 q 722 243 722 310 q 678 107 722 165 q 557 15 633 49 q 382 -19 481 -19 q 222 7 296 -19 q 104 87 149 33 q 60 218 60 140 q 92 337 60 285 q 178 428 124 389 q 301 494 233 467 l 313 475 q 249 368 267 429 q 232 243 232 307 q 247 125 232 179 q 296 38 261 71 q 389 6 331 6 q 492 47 456 6 q 529 156 529 89 q 499 272 529 219 q 420 370 468 324 q 317 461 372 417 q 215 552 263 506 q 136 653 167 599 q 106 776 106 708 q 147 903 106 853 q 255 978 188 953 q 400 1003 322 1003 z "},"9":{"ha":768,"x_min":40,"x_max":713,"o":"m 386 738 q 625 638 538 738 q 713 354 713 538 q 677 155 713 243 q 583 2 642 67 q 452 -106 524 -62 q 306 -176 381 -150 q 167 -211 232 -201 l 161 -183 q 283 -135 222 -165 q 392 -47 343 -104 q 472 110 442 11 q 503 361 503 208 q 483 572 503 496 q 433 678 463 647 q 371 710 403 710 q 313 681 340 710 q 267 589 285 653 q 250 419 250 525 q 266 260 250 321 q 309 174 282 200 q 368 147 336 147 q 421 161 392 147 q 475 207 450 175 q 511 292 500 239 l 524 286 q 483 181 515 219 q 404 124 450 142 q 313 107 358 107 q 177 143 239 107 q 78 247 115 179 q 40 408 40 314 q 88 589 40 515 q 215 700 136 663 q 386 738 293 738 z "},"A":{"ha":926,"x_min":-21,"x_max":936,"o":"m 511 986 l 849 117 q 892 48 868 67 q 936 28 917 29 l 936 0 q 838 3 894 3 q 725 4 782 4 q 604 3 661 4 q 514 0 547 3 l 514 28 q 603 52 585 31 q 594 144 622 74 l 358 790 l 383 826 l 172 276 q 135 151 142 200 q 142 76 129 103 q 185 40 156 50 q 257 28 215 29 l 257 0 q 169 3 211 3 q 85 4 128 4 q 27 3 54 4 q -21 0 0 3 l -21 28 q 39 65 8 33 q 99 174 69 97 l 415 986 q 463 985 438 985 q 511 986 489 985 m 608 400 l 608 372 l 194 372 l 208 400 l 608 400 z "},"Á":{"ha":926,"x_min":-21,"x_max":936,"o":"m 511 986 l 849 117 q 892 48 868 67 q 936 28 917 29 l 936 0 q 838 3 894 3 q 725 4 782 4 q 604 3 661 4 q 514 0 547 3 l 514 28 q 603 52 585 31 q 594 144 622 74 l 358 790 l 383 826 l 172 276 q 135 151 142 200 q 142 76 129 103 q 185 40 156 50 q 257 28 215 29 l 257 0 q 169 3 211 3 q 85 4 128 4 q 27 3 54 4 q -21 0 0 3 l -21 28 q 39 65 8 33 q 99 174 69 97 l 415 986 q 463 985 438 985 q 511 986 489 985 m 608 400 l 608 372 l 194 372 l 208 400 l 608 400 m 586 1297 q 649 1306 615 1314 q 699 1267 683 1299 q 702 1211 713 1240 q 660 1164 692 1182 q 592 1138 629 1147 q 501 1115 554 1129 q 371 1072 449 1101 l 361 1089 q 465 1183 428 1143 q 528 1252 501 1224 q 586 1297 554 1281 z "},"Ă":{"ha":926,"x_min":-21,"x_max":936,"o":"m 511 986 l 849 117 q 892 48 868 67 q 936 28 917 29 l 936 0 q 838 3 894 3 q 725 4 782 4 q 604 3 661 4 q 514 0 547 3 l 514 28 q 603 52 585 31 q 594 144 622 74 l 358 790 l 383 826 l 172 276 q 135 151 142 200 q 142 76 129 103 q 185 40 156 50 q 257 28 215 29 l 257 0 q 169 3 211 3 q 85 4 128 4 q 27 3 54 4 q -21 0 0 3 l -21 28 q 39 65 8 33 q 99 174 69 97 l 415 986 q 463 985 438 985 q 511 986 489 985 m 608 400 l 608 372 l 194 372 l 208 400 l 608 400 m 747 1272 l 764 1257 q 704 1171 744 1214 q 601 1099 664 1128 q 454 1071 539 1071 q 307 1099 369 1071 q 204 1171 244 1128 q 144 1257 164 1214 l 161 1271 q 270 1215 199 1243 q 454 1188 342 1188 q 638 1215 567 1188 q 747 1272 710 1243 z "},"Ắ":{"ha":926,"x_min":-21,"x_max":936,"o":"m 511 986 l 849 117 q 892 48 868 67 q 936 28 917 29 l 936 0 q 838 3 894 3 q 725 4 782 4 q 604 3 661 4 q 514 0 547 3 l 514 28 q 603 52 585 31 q 594 144 622 74 l 358 790 l 383 826 l 172 276 q 135 151 142 200 q 142 76 129 103 q 185 40 156 50 q 257 28 215 29 l 257 0 q 169 3 211 3 q 85 4 128 4 q 27 3 54 4 q -21 0 0 3 l -21 28 q 39 65 8 33 q 99 174 69 97 l 415 986 q 463 985 438 985 q 511 986 489 985 m 608 400 l 608 372 l 194 372 l 208 400 l 608 400 m 747 1272 l 764 1257 q 704 1171 744 1214 q 601 1099 664 1128 q 454 1071 539 1071 q 307 1099 369 1071 q 204 1171 244 1128 q 144 1257 164 1214 l 161 1271 q 270 1215 199 1243 q 454 1188 342 1188 q 638 1215 567 1188 q 747 1272 710 1243 m 586 1506 q 649 1515 615 1522 q 699 1475 683 1507 q 702 1419 713 1449 q 660 1372 692 1390 q 592 1347 629 1356 q 501 1324 554 1338 q 371 1281 449 1310 l 361 1297 q 465 1392 428 1351 q 528 1460 501 1432 q 586 1506 554 1489 z "},"Ặ":{"ha":926,"x_min":-21,"x_max":936,"o":"m 511 986 l 849 117 q 892 48 868 67 q 936 28 917 29 l 936 0 q 838 3 894 3 q 725 4 782 4 q 604 3 661 4 q 514 0 547 3 l 514 28 q 603 52 585 31 q 594 144 622 74 l 358 790 l 383 826 l 172 276 q 135 151 142 200 q 142 76 129 103 q 185 40 156 50 q 257 28 215 29 l 257 0 q 169 3 211 3 q 85 4 128 4 q 27 3 54 4 q -21 0 0 3 l -21 28 q 39 65 8 33 q 99 174 69 97 l 415 986 q 463 985 438 985 q 511 986 489 985 m 608 400 l 608 372 l 194 372 l 208 400 l 608 400 m 747 1272 l 764 1257 q 704 1171 744 1214 q 601 1099 664 1128 q 454 1071 539 1071 q 307 1099 369 1071 q 204 1171 244 1128 q 144 1257 164 1214 l 161 1271 q 270 1215 199 1243 q 454 1188 342 1188 q 638 1215 567 1188 q 747 1272 710 1243 m 461 -260 q 387 -236 415 -260 q 358 -168 358 -212 q 386 -101 358 -126 q 464 -76 414 -76 q 540 -101 514 -76 q 567 -168 567 -125 q 538 -235 567 -211 q 461 -260 510 -260 z "},"Ằ":{"ha":926,"x_min":-21,"x_max":936,"o":"m 511 986 l 849 117 q 892 48 868 67 q 936 28 917 29 l 936 0 q 838 3 894 3 q 725 4 782 4 q 604 3 661 4 q 514 0 547 3 l 514 28 q 603 52 585 31 q 594 144 622 74 l 358 790 l 383 826 l 172 276 q 135 151 142 200 q 142 76 129 103 q 185 40 156 50 q 257 28 215 29 l 257 0 q 169 3 211 3 q 85 4 128 4 q 27 3 54 4 q -21 0 0 3 l -21 28 q 39 65 8 33 q 99 174 69 97 l 415 986 q 463 985 438 985 q 511 986 489 985 m 608 400 l 608 372 l 194 372 l 208 400 l 608 400 m 747 1272 l 764 1257 q 704 1171 744 1214 q 601 1099 664 1128 q 454 1071 539 1071 q 307 1099 369 1071 q 204 1171 244 1128 q 144 1257 164 1214 l 161 1271 q 270 1215 199 1243 q 454 1188 342 1188 q 638 1215 567 1188 q 747 1272 710 1243 m 331 1506 q 389 1460 363 1489 q 453 1392 415 1432 q 556 1297 490 1351 l 546 1281 q 416 1324 469 1310 q 325 1347 363 1338 q 257 1372 288 1356 q 215 1419 225 1390 q 218 1475 204 1449 q 268 1515 235 1507 q 331 1506 301 1522 z "},"Ẳ":{"ha":926,"x_min":-21,"x_max":936,"o":"m 511 986 l 849 117 q 892 48 868 67 q 936 28 917 29 l 936 0 q 838 3 894 3 q 725 4 782 4 q 604 3 661 4 q 514 0 547 3 l 514 28 q 603 52 585 31 q 594 144 622 74 l 358 790 l 383 826 l 172 276 q 135 151 142 200 q 142 76 129 103 q 185 40 156 50 q 257 28 215 29 l 257 0 q 169 3 211 3 q 85 4 128 4 q 27 3 54 4 q -21 0 0 3 l -21 28 q 39 65 8 33 q 99 174 69 97 l 415 986 q 463 985 438 985 q 511 986 489 985 m 608 400 l 608 372 l 194 372 l 208 400 l 608 400 m 747 1272 l 764 1257 q 704 1171 744 1214 q 601 1099 664 1128 q 454 1071 539 1071 q 307 1099 369 1071 q 204 1171 244 1128 q 144 1257 164 1214 l 161 1271 q 270 1215 199 1243 q 454 1188 342 1188 q 638 1215 567 1188 q 747 1272 710 1243 m 440 1267 l 440 1343 q 512 1393 492 1365 q 532 1451 532 1421 q 501 1515 532 1494 q 426 1536 469 1536 q 388 1531 406 1536 q 361 1518 369 1526 q 405 1492 389 1510 q 421 1446 421 1475 q 399 1393 421 1413 q 346 1374 378 1374 q 292 1394 313 1374 q 272 1446 272 1414 q 290 1499 272 1476 q 328 1533 307 1521 q 385 1556 353 1547 q 463 1564 418 1564 q 561 1552 517 1564 q 633 1517 606 1540 q 661 1458 661 1493 q 635 1401 661 1426 q 566 1358 610 1375 q 468 1331 522 1340 l 468 1267 l 440 1267 z "},"Ẵ":{"ha":926,"x_min":-21,"x_max":936,"o":"m 511 986 l 849 117 q 892 48 868 67 q 936 28 917 29 l 936 0 q 838 3 894 3 q 725 4 782 4 q 604 3 661 4 q 514 0 547 3 l 514 28 q 603 52 585 31 q 594 144 622 74 l 358 790 l 383 826 l 172 276 q 135 151 142 200 q 142 76 129 103 q 185 40 156 50 q 257 28 215 29 l 257 0 q 169 3 211 3 q 85 4 128 4 q 27 3 54 4 q -21 0 0 3 l -21 28 q 39 65 8 33 q 99 174 69 97 l 415 986 q 463 985 438 985 q 511 986 489 985 m 608 400 l 608 372 l 194 372 l 208 400 l 608 400 m 747 1272 l 764 1257 q 704 1171 744 1214 q 601 1099 664 1128 q 454 1071 539 1071 q 307 1099 369 1071 q 204 1171 244 1128 q 144 1257 164 1214 l 161 1271 q 270 1215 199 1243 q 454 1188 342 1188 q 638 1215 567 1188 q 747 1272 710 1243 m 340 1492 q 426 1476 389 1492 q 494 1442 463 1461 q 558 1408 525 1422 q 632 1393 590 1393 q 694 1410 665 1393 q 747 1468 724 1428 l 767 1461 q 697 1320 749 1365 q 582 1275 644 1275 q 497 1290 533 1275 q 428 1324 460 1304 q 363 1359 396 1344 q 289 1374 331 1374 q 226 1356 256 1374 q 174 1297 197 1339 l 154 1304 q 226 1447 174 1401 q 340 1492 278 1492 z "},"Ǎ":{"ha":926,"x_min":-21,"x_max":936,"o":"m 511 986 l 849 117 q 892 48 868 67 q 936 28 917 29 l 936 0 q 838 3 894 3 q 725 4 782 4 q 604 3 661 4 q 514 0 547 3 l 514 28 q 603 52 585 31 q 594 144 622 74 l 358 790 l 383 826 l 172 276 q 135 151 142 200 q 142 76 129 103 q 185 40 156 50 q 257 28 215 29 l 257 0 q 169 3 211 3 q 85 4 128 4 q 27 3 54 4 q -21 0 0 3 l -21 28 q 39 65 8 33 q 99 174 69 97 l 415 986 q 463 985 438 985 q 511 986 489 985 m 608 400 l 608 372 l 194 372 l 208 400 l 608 400 m 749 1303 l 756 1282 q 590 1185 665 1244 q 471 1065 514 1126 l 446 1065 q 328 1185 404 1126 q 161 1282 253 1244 l 168 1303 q 347 1263 258 1288 q 486 1213 435 1238 q 602 1263 529 1238 q 749 1303 675 1288 z "},"Â":{"ha":926,"x_min":-21,"x_max":936,"o":"m 511 986 l 849 117 q 892 48 868 67 q 936 28 917 29 l 936 0 q 838 3 894 3 q 725 4 782 4 q 604 3 661 4 q 514 0 547 3 l 514 28 q 603 52 585 31 q 594 144 622 74 l 358 790 l 383 826 l 172 276 q 135 151 142 200 q 142 76 129 103 q 185 40 156 50 q 257 28 215 29 l 257 0 q 169 3 211 3 q 85 4 128 4 q 27 3 54 4 q -21 0 0 3 l -21 28 q 39 65 8 33 q 99 174 69 97 l 415 986 q 463 985 438 985 q 511 986 489 985 m 608 400 l 608 372 l 194 372 l 208 400 l 608 400 m 475 1306 q 592 1187 517 1246 q 760 1089 668 1128 l 753 1068 q 574 1110 663 1085 q 435 1158 486 1135 q 319 1110 392 1135 q 172 1068 246 1085 l 165 1089 q 331 1186 256 1128 q 450 1306 407 1244 l 475 1306 z "},"Ấ":{"ha":926,"x_min":-21,"x_max":936,"o":"m 511 986 l 849 117 q 892 48 868 67 q 936 28 917 29 l 936 0 q 838 3 894 3 q 725 4 782 4 q 604 3 661 4 q 514 0 547 3 l 514 28 q 603 52 585 31 q 594 144 622 74 l 358 790 l 383 826 l 172 276 q 135 151 142 200 q 142 76 129 103 q 185 40 156 50 q 257 28 215 29 l 257 0 q 169 3 211 3 q 85 4 128 4 q 27 3 54 4 q -21 0 0 3 l -21 28 q 39 65 8 33 q 99 174 69 97 l 415 986 q 463 985 438 985 q 511 986 489 985 m 608 400 l 608 372 l 194 372 l 208 400 l 608 400 m 475 1306 q 592 1187 517 1246 q 760 1089 668 1128 l 753 1068 q 574 1110 663 1085 q 435 1158 486 1135 q 319 1110 392 1135 q 172 1068 246 1085 l 165 1089 q 331 1186 256 1128 q 450 1306 407 1244 l 475 1306 m 586 1603 q 649 1612 615 1619 q 699 1572 683 1604 q 702 1517 713 1546 q 660 1469 692 1488 q 592 1444 629 1453 q 501 1421 554 1435 q 371 1378 449 1407 l 361 1394 q 465 1489 428 1449 q 528 1558 501 1529 q 586 1603 554 1586 z "},"Ậ":{"ha":926,"x_min":-21,"x_max":936,"o":"m 511 986 l 849 117 q 892 48 868 67 q 936 28 917 29 l 936 0 q 838 3 894 3 q 725 4 782 4 q 604 3 661 4 q 514 0 547 3 l 514 28 q 603 52 585 31 q 594 144 622 74 l 358 790 l 383 826 l 172 276 q 135 151 142 200 q 142 76 129 103 q 185 40 156 50 q 257 28 215 29 l 257 0 q 169 3 211 3 q 85 4 128 4 q 27 3 54 4 q -21 0 0 3 l -21 28 q 39 65 8 33 q 99 174 69 97 l 415 986 q 463 985 438 985 q 511 986 489 985 m 608 400 l 608 372 l 194 372 l 208 400 l 608 400 m 475 1306 q 592 1187 517 1246 q 760 1089 668 1128 l 753 1068 q 574 1110 663 1085 q 435 1158 486 1135 q 319 1110 392 1135 q 172 1068 246 1085 l 165 1089 q 331 1186 256 1128 q 450 1306 407 1244 l 475 1306 m 461 -260 q 387 -236 415 -260 q 358 -168 358 -212 q 386 -101 358 -126 q 464 -76 414 -76 q 540 -101 514 -76 q 567 -168 567 -125 q 538 -235 567 -211 q 461 -260 510 -260 z "},"Ầ":{"ha":926,"x_min":-21,"x_max":936,"o":"m 511 986 l 849 117 q 892 48 868 67 q 936 28 917 29 l 936 0 q 838 3 894 3 q 725 4 782 4 q 604 3 661 4 q 514 0 547 3 l 514 28 q 603 52 585 31 q 594 144 622 74 l 358 790 l 383 826 l 172 276 q 135 151 142 200 q 142 76 129 103 q 185 40 156 50 q 257 28 215 29 l 257 0 q 169 3 211 3 q 85 4 128 4 q 27 3 54 4 q -21 0 0 3 l -21 28 q 39 65 8 33 q 99 174 69 97 l 415 986 q 463 985 438 985 q 511 986 489 985 m 608 400 l 608 372 l 194 372 l 208 400 l 608 400 m 475 1306 q 592 1187 517 1246 q 760 1089 668 1128 l 753 1068 q 574 1110 663 1085 q 435 1158 486 1135 q 319 1110 392 1135 q 172 1068 246 1085 l 165 1089 q 331 1186 256 1128 q 450 1306 407 1244 l 475 1306 m 331 1603 q 389 1558 363 1586 q 453 1489 415 1529 q 556 1394 490 1449 l 546 1378 q 416 1421 469 1407 q 325 1444 363 1435 q 257 1469 288 1453 q 215 1517 225 1488 q 218 1572 204 1546 q 268 1612 235 1604 q 331 1603 301 1619 z "},"Ẩ":{"ha":926,"x_min":-21,"x_max":936,"o":"m 511 986 l 849 117 q 892 48 868 67 q 936 28 917 29 l 936 0 q 838 3 894 3 q 725 4 782 4 q 604 3 661 4 q 514 0 547 3 l 514 28 q 603 52 585 31 q 594 144 622 74 l 358 790 l 383 826 l 172 276 q 135 151 142 200 q 142 76 129 103 q 185 40 156 50 q 257 28 215 29 l 257 0 q 169 3 211 3 q 85 4 128 4 q 27 3 54 4 q -21 0 0 3 l -21 28 q 39 65 8 33 q 99 174 69 97 l 415 986 q 463 985 438 985 q 511 986 489 985 m 608 400 l 608 372 l 194 372 l 208 400 l 608 400 m 475 1306 q 592 1187 517 1246 q 760 1089 668 1128 l 753 1068 q 574 1110 663 1085 q 435 1158 486 1135 q 319 1110 392 1135 q 172 1068 246 1085 l 165 1089 q 331 1186 256 1128 q 450 1306 407 1244 l 475 1306 m 696 1282 l 696 1358 q 767 1408 747 1381 q 788 1467 788 1436 q 756 1531 788 1510 q 682 1551 725 1551 q 643 1547 661 1551 q 617 1533 625 1542 q 660 1508 644 1525 q 676 1461 676 1490 q 655 1408 676 1428 q 601 1389 633 1389 q 548 1409 568 1389 q 528 1461 528 1429 q 545 1514 528 1492 q 583 1549 563 1536 q 641 1571 608 1563 q 718 1579 674 1579 q 817 1567 772 1579 q 889 1532 861 1556 q 917 1474 917 1508 q 891 1416 917 1442 q 822 1373 865 1390 q 724 1346 778 1356 l 724 1282 l 696 1282 z "},"Ẫ":{"ha":926,"x_min":-21,"x_max":936,"o":"m 511 986 l 849 117 q 892 48 868 67 q 936 28 917 29 l 936 0 q 838 3 894 3 q 725 4 782 4 q 604 3 661 4 q 514 0 547 3 l 514 28 q 603 52 585 31 q 594 144 622 74 l 358 790 l 383 826 l 172 276 q 135 151 142 200 q 142 76 129 103 q 185 40 156 50 q 257 28 215 29 l 257 0 q 169 3 211 3 q 85 4 128 4 q 27 3 54 4 q -21 0 0 3 l -21 28 q 39 65 8 33 q 99 174 69 97 l 415 986 q 463 985 438 985 q 511 986 489 985 m 608 400 l 608 372 l 194 372 l 208 400 l 608 400 m 475 1306 q 592 1187 517 1246 q 760 1089 668 1128 l 753 1068 q 574 1110 663 1085 q 435 1158 486 1135 q 319 1110 392 1135 q 172 1068 246 1085 l 165 1089 q 331 1186 256 1128 q 450 1306 407 1244 l 475 1306 m 340 1589 q 426 1574 389 1589 q 494 1539 463 1558 q 558 1505 525 1519 q 632 1490 590 1490 q 694 1508 665 1490 q 747 1565 724 1525 l 767 1558 q 697 1417 749 1463 q 582 1372 644 1372 q 497 1387 533 1372 q 428 1422 460 1401 q 363 1456 396 1442 q 289 1471 331 1471 q 226 1453 256 1471 q 174 1394 197 1436 l 154 1401 q 226 1544 174 1499 q 340 1589 278 1589 z "},"Ä":{"ha":926,"x_min":-21,"x_max":936,"o":"m 511 986 l 849 117 q 892 48 868 67 q 936 28 917 29 l 936 0 q 838 3 894 3 q 725 4 782 4 q 604 3 661 4 q 514 0 547 3 l 514 28 q 603 52 585 31 q 594 144 622 74 l 358 790 l 383 826 l 172 276 q 135 151 142 200 q 142 76 129 103 q 185 40 156 50 q 257 28 215 29 l 257 0 q 169 3 211 3 q 85 4 128 4 q 27 3 54 4 q -21 0 0 3 l -21 28 q 39 65 8 33 q 99 174 69 97 l 415 986 q 463 985 438 985 q 511 986 489 985 m 608 400 l 608 372 l 194 372 l 208 400 l 608 400 m 629 1274 q 702 1242 671 1274 q 733 1168 733 1210 q 702 1094 733 1125 q 629 1064 671 1064 q 555 1094 586 1064 q 524 1169 524 1125 q 555 1242 524 1211 q 629 1274 586 1274 m 296 1274 q 369 1242 338 1274 q 401 1168 401 1210 q 369 1094 401 1125 q 296 1064 338 1064 q 222 1094 253 1064 q 192 1169 192 1125 q 222 1242 192 1211 q 296 1274 253 1274 z "},"Ạ":{"ha":926,"x_min":-21,"x_max":936,"o":"m 511 986 l 849 117 q 892 48 868 67 q 936 28 917 29 l 936 0 q 838 3 894 3 q 725 4 782 4 q 604 3 661 4 q 514 0 547 3 l 514 28 q 603 52 585 31 q 594 144 622 74 l 358 790 l 383 826 l 172 276 q 135 151 142 200 q 142 76 129 103 q 185 40 156 50 q 257 28 215 29 l 257 0 q 169 3 211 3 q 85 4 128 4 q 27 3 54 4 q -21 0 0 3 l -21 28 q 39 65 8 33 q 99 174 69 97 l 415 986 q 463 985 438 985 q 511 986 489 985 m 608 400 l 608 372 l 194 372 l 208 400 l 608 400 m 461 -260 q 387 -236 415 -260 q 358 -168 358 -212 q 386 -101 358 -126 q 464 -76 414 -76 q 540 -101 514 -76 q 567 -168 567 -125 q 538 -235 567 -211 q 461 -260 510 -260 z "},"À":{"ha":926,"x_min":-21,"x_max":936,"o":"m 511 986 l 849 117 q 892 48 868 67 q 936 28 917 29 l 936 0 q 838 3 894 3 q 725 4 782 4 q 604 3 661 4 q 514 0 547 3 l 514 28 q 603 52 585 31 q 594 144 622 74 l 358 790 l 383 826 l 172 276 q 135 151 142 200 q 142 76 129 103 q 185 40 156 50 q 257 28 215 29 l 257 0 q 169 3 211 3 q 85 4 128 4 q 27 3 54 4 q -21 0 0 3 l -21 28 q 39 65 8 33 q 99 174 69 97 l 415 986 q 463 985 438 985 q 511 986 489 985 m 608 400 l 608 372 l 194 372 l 208 400 l 608 400 m 331 1297 q 389 1252 363 1281 q 453 1183 415 1224 q 556 1089 490 1143 l 546 1072 q 416 1115 469 1101 q 325 1138 363 1129 q 257 1164 288 1147 q 215 1211 225 1182 q 218 1267 204 1240 q 268 1306 235 1299 q 331 1297 301 1314 z "},"Ả":{"ha":926,"x_min":-21,"x_max":936,"o":"m 511 986 l 849 117 q 892 48 868 67 q 936 28 917 29 l 936 0 q 838 3 894 3 q 725 4 782 4 q 604 3 661 4 q 514 0 547 3 l 514 28 q 603 52 585 31 q 594 144 622 74 l 358 790 l 383 826 l 172 276 q 135 151 142 200 q 142 76 129 103 q 185 40 156 50 q 257 28 215 29 l 257 0 q 169 3 211 3 q 85 4 128 4 q 27 3 54 4 q -21 0 0 3 l -21 28 q 39 65 8 33 q 99 174 69 97 l 415 986 q 463 985 438 985 q 511 986 489 985 m 608 400 l 608 372 l 194 372 l 208 400 l 608 400 m 440 1058 l 440 1135 q 512 1185 492 1157 q 532 1243 532 1213 q 501 1307 532 1286 q 426 1328 469 1328 q 388 1323 406 1328 q 361 1310 369 1318 q 405 1284 389 1301 q 421 1238 421 1267 q 399 1185 421 1204 q 346 1165 378 1165 q 292 1185 313 1165 q 272 1238 272 1206 q 290 1290 272 1268 q 328 1325 307 1313 q 385 1347 353 1339 q 463 1356 418 1356 q 561 1344 517 1356 q 633 1308 606 1332 q 661 1250 661 1285 q 635 1192 661 1218 q 566 1149 610 1167 q 468 1122 522 1132 l 468 1058 l 440 1058 z "},"Ā":{"ha":926,"x_min":-21,"x_max":936,"o":"m 511 986 l 849 117 q 892 48 868 67 q 936 28 917 29 l 936 0 q 838 3 894 3 q 725 4 782 4 q 604 3 661 4 q 514 0 547 3 l 514 28 q 603 52 585 31 q 594 144 622 74 l 358 790 l 383 826 l 172 276 q 135 151 142 200 q 142 76 129 103 q 185 40 156 50 q 257 28 215 29 l 257 0 q 169 3 211 3 q 85 4 128 4 q 27 3 54 4 q -21 0 0 3 l -21 28 q 39 65 8 33 q 99 174 69 97 l 415 986 q 463 985 438 985 q 511 986 489 985 m 608 400 l 608 372 l 194 372 l 208 400 l 608 400 m 740 1172 l 740 1138 l 185 1138 l 185 1172 l 740 1172 z "},"Ą":{"ha":926,"x_min":-21,"x_max":936,"o":"m 511 986 l 849 117 q 892 48 868 67 q 936 28 917 29 l 936 0 q 838 3 894 3 q 725 4 782 4 q 604 3 661 4 q 514 0 547 3 l 514 28 q 603 52 585 31 q 594 144 622 74 l 358 790 l 383 826 l 172 276 q 135 151 142 200 q 142 76 129 103 q 185 40 156 50 q 257 28 215 29 l 257 0 q 169 3 211 3 q 85 4 128 4 q 27 3 54 4 q -21 0 0 3 l -21 28 q 39 65 8 33 q 99 174 69 97 l 415 986 q 463 985 438 985 q 511 986 489 985 m 608 400 l 608 372 l 194 372 l 208 400 l 608 400 m 918 4 q 801 -59 835 -22 q 767 -128 767 -96 q 782 -170 767 -156 q 825 -185 797 -185 q 874 -174 849 -185 q 914 -147 899 -162 l 932 -167 q 850 -239 896 -217 q 742 -261 804 -261 q 649 -235 682 -261 q 615 -165 615 -210 q 682 -64 615 -107 q 865 4 749 -21 l 918 4 z "},"Å":{"ha":926,"x_min":-21,"x_max":936,"o":"m 511 986 l 849 117 q 892 48 868 67 q 936 28 917 29 l 936 0 q 838 3 894 3 q 725 4 782 4 q 604 3 661 4 q 514 0 547 3 l 514 28 q 603 52 585 31 q 594 144 622 74 l 358 790 l 383 826 l 172 276 q 135 151 142 200 q 142 76 129 103 q 185 40 156 50 q 257 28 215 29 l 257 0 q 169 3 211 3 q 85 4 128 4 q 27 3 54 4 q -21 0 0 3 l -21 28 q 39 65 8 33 q 99 174 69 97 l 415 986 q 463 985 438 985 q 511 986 489 985 m 608 400 l 608 372 l 194 372 l 208 400 l 608 400 m 463 1301 q 569 1265 524 1301 q 614 1167 614 1229 q 569 1067 614 1104 q 463 1031 524 1031 q 358 1067 403 1031 q 313 1167 313 1104 q 358 1265 313 1229 q 463 1301 403 1301 m 463 1272 q 388 1244 424 1272 q 351 1165 351 1217 q 388 1086 351 1113 q 463 1060 424 1060 q 539 1086 503 1060 q 575 1165 575 1113 q 539 1244 575 1217 q 463 1272 503 1272 z "},"Ã":{"ha":926,"x_min":-21,"x_max":936,"o":"m 511 986 l 849 117 q 892 48 868 67 q 936 28 917 29 l 936 0 q 838 3 894 3 q 725 4 782 4 q 604 3 661 4 q 514 0 547 3 l 514 28 q 603 52 585 31 q 594 144 622 74 l 358 790 l 383 826 l 172 276 q 135 151 142 200 q 142 76 129 103 q 185 40 156 50 q 257 28 215 29 l 257 0 q 169 3 211 3 q 85 4 128 4 q 27 3 54 4 q -21 0 0 3 l -21 28 q 39 65 8 33 q 99 174 69 97 l 415 986 q 463 985 438 985 q 511 986 489 985 m 608 400 l 608 372 l 194 372 l 208 400 l 608 400 m 340 1283 q 426 1268 389 1283 q 494 1233 463 1253 q 558 1199 525 1214 q 632 1185 590 1185 q 694 1202 665 1185 q 747 1260 724 1219 l 767 1253 q 697 1112 749 1157 q 582 1067 644 1067 q 497 1081 533 1067 q 428 1116 460 1096 q 363 1151 396 1136 q 289 1165 331 1165 q 226 1148 256 1165 q 174 1089 197 1131 l 154 1096 q 226 1238 174 1193 q 340 1283 278 1283 z "},"Æ":{"ha":1235,"x_min":-19,"x_max":1172,"o":"m 672 1072 l 129 144 q 110 55 90 79 q 200 28 129 31 l 200 0 q 145 3 179 3 q 74 4 111 4 q 23 3 49 4 q -19 0 -3 3 l -19 28 q 25 48 3 29 q 76 117 47 67 l 639 1072 l 672 1072 m 1144 983 q 1137 875 1139 928 q 1135 794 1135 822 q 1136 742 1135 767 q 1139 700 1138 717 l 1107 700 q 1072 851 1096 796 q 1013 928 1049 906 q 929 951 978 951 l 883 951 q 817 944 840 951 q 787 912 794 936 q 779 836 779 888 l 779 147 q 787 72 779 97 q 817 40 794 47 q 883 32 840 32 l 951 32 q 1036 58 999 32 q 1099 145 1074 85 q 1135 311 1124 206 l 1167 311 q 1163 194 1163 267 q 1164 112 1163 165 q 1172 0 1165 58 q 1018 3 1104 3 q 865 4 932 4 q 756 4 824 4 q 610 3 688 4 q 465 0 533 3 l 465 28 q 525 39 506 31 q 551 72 544 47 q 558 147 558 97 l 558 836 q 551 912 558 888 q 520 945 543 936 q 454 956 497 954 l 454 983 q 603 981 524 982 q 752 979 682 979 q 865 979 822 979 q 1004 980 926 979 q 1144 983 1082 981 m 604 508 l 604 481 l 310 481 l 324 508 l 604 508 m 965 508 q 965 494 965 508 q 965 481 965 481 l 738 481 q 738 494 738 481 q 738 508 738 508 l 965 508 m 1006 672 q 1001 564 1000 601 q 1001 494 1001 526 q 1003 426 1001 463 q 1010 317 1004 389 l 978 317 q 961 394 972 357 q 926 456 950 432 q 853 481 901 481 l 853 508 q 911 525 889 508 q 945 568 933 542 q 963 622 957 594 q 974 672 969 650 l 1006 672 z "},"B":{"ha":933,"x_min":47,"x_max":892,"o":"m 47 983 q 142 981 83 982 q 258 979 200 979 q 388 981 325 979 q 476 982 450 982 q 734 921 649 982 q 819 764 819 860 q 790 665 819 715 q 700 576 761 615 q 542 519 639 538 l 542 517 q 749 469 672 507 q 858 379 825 432 q 892 269 892 326 q 846 122 892 182 q 714 31 800 63 q 508 0 628 0 q 413 2 475 0 q 261 4 350 4 q 142 3 200 4 q 47 0 83 3 l 47 28 q 114 39 92 31 q 144 72 136 47 q 151 147 151 97 l 151 836 q 144 912 151 888 q 113 945 136 936 q 47 956 90 954 l 47 983 m 458 956 q 388 932 404 956 q 372 836 372 908 l 372 147 q 380 74 372 99 q 408 40 388 49 q 468 32 428 32 q 615 95 568 32 q 661 275 661 158 q 608 440 661 382 q 431 499 554 499 l 313 499 q 313 510 313 499 q 313 522 313 522 l 432 522 q 532 553 497 522 q 581 637 567 585 q 594 749 594 689 q 563 903 594 851 q 458 956 531 956 z "},"C":{"ha":979,"x_min":60,"x_max":901,"o":"m 551 1003 q 702 976 643 1003 q 807 913 761 949 q 849 908 835 892 q 869 983 864 924 l 901 983 q 897 852 899 929 q 896 647 896 775 l 864 647 q 846 756 857 711 q 815 836 835 801 q 760 899 796 871 q 679 950 725 933 q 583 967 633 967 q 456 927 508 967 q 370 819 403 888 q 322 666 338 751 q 307 489 307 581 q 323 310 307 396 q 373 158 339 225 q 461 53 407 92 q 589 14 515 14 q 681 31 635 14 q 761 82 728 49 q 835 185 815 124 q 864 350 854 247 l 896 350 q 897 137 896 218 q 901 0 899 56 l 869 0 q 851 75 864 60 q 807 71 838 90 q 698 8 756 35 q 550 -19 640 -19 q 292 40 403 -19 q 121 213 182 100 q 60 483 60 325 q 123 756 60 639 q 297 938 186 872 q 551 1003 407 1003 z "},"Ć":{"ha":979,"x_min":60,"x_max":901,"o":"m 551 1003 q 702 976 643 1003 q 807 913 761 949 q 849 908 835 892 q 869 983 864 924 l 901 983 q 897 852 899 929 q 896 647 896 775 l 864 647 q 846 756 857 711 q 815 836 835 801 q 760 899 796 871 q 679 950 725 933 q 583 967 633 967 q 456 927 508 967 q 370 819 403 888 q 322 666 338 751 q 307 489 307 581 q 323 310 307 396 q 373 158 339 225 q 461 53 407 92 q 589 14 515 14 q 681 31 635 14 q 761 82 728 49 q 835 185 815 124 q 864 350 854 247 l 896 350 q 897 137 896 218 q 901 0 899 56 l 869 0 q 851 75 864 60 q 807 71 838 90 q 698 8 756 35 q 550 -19 640 -19 q 292 40 403 -19 q 121 213 182 100 q 60 483 60 325 q 123 756 60 639 q 297 938 186 872 q 551 1003 407 1003 m 650 1297 q 713 1306 679 1314 q 763 1267 747 1299 q 766 1211 776 1240 q 724 1164 756 1182 q 656 1138 693 1147 q 565 1115 618 1129 q 435 1072 513 1101 l 425 1089 q 528 1183 492 1143 q 592 1252 565 1224 q 650 1297 618 1281 z "},"Č":{"ha":979,"x_min":60,"x_max":901,"o":"m 551 1003 q 702 976 643 1003 q 807 913 761 949 q 849 908 835 892 q 869 983 864 924 l 901 983 q 897 852 899 929 q 896 647 896 775 l 864 647 q 846 756 857 711 q 815 836 835 801 q 760 899 796 871 q 679 950 725 933 q 583 967 633 967 q 456 927 508 967 q 370 819 403 888 q 322 666 338 751 q 307 489 307 581 q 323 310 307 396 q 373 158 339 225 q 461 53 407 92 q 589 14 515 14 q 681 31 635 14 q 761 82 728 49 q 835 185 815 124 q 864 350 854 247 l 896 350 q 897 137 896 218 q 901 0 899 56 l 869 0 q 851 75 864 60 q 807 71 838 90 q 698 8 756 35 q 550 -19 640 -19 q 292 40 403 -19 q 121 213 182 100 q 60 483 60 325 q 123 756 60 639 q 297 938 186 872 q 551 1003 407 1003 m 813 1303 l 819 1282 q 653 1185 729 1244 q 535 1065 578 1126 l 510 1065 q 392 1185 468 1126 q 225 1282 317 1244 l 232 1303 q 410 1263 322 1288 q 550 1213 499 1238 q 666 1263 593 1238 q 813 1303 739 1288 z "},"Ç":{"ha":979,"x_min":60,"x_max":901,"o":"m 551 1003 q 702 976 643 1003 q 807 913 761 949 q 849 908 835 892 q 869 983 864 924 l 901 983 q 897 852 899 929 q 896 647 896 775 l 864 647 q 846 756 857 711 q 815 836 835 801 q 760 899 796 871 q 679 950 725 933 q 583 967 633 967 q 456 927 508 967 q 370 819 403 888 q 322 666 338 751 q 307 489 307 581 q 323 310 307 396 q 373 158 339 225 q 461 53 407 92 q 589 14 515 14 q 681 31 635 14 q 761 82 728 49 q 835 185 815 124 q 864 350 854 247 l 896 350 q 897 137 896 218 q 901 0 899 56 l 869 0 q 851 75 864 60 q 807 71 838 90 q 698 8 756 35 q 550 -19 640 -19 q 292 40 403 -19 q 121 213 182 100 q 60 483 60 325 q 123 756 60 639 q 297 938 186 872 q 551 1003 407 1003 m 574 7 l 543 -90 q 594 -78 567 -82 q 650 -74 621 -74 q 728 -94 701 -74 q 754 -149 754 -114 q 724 -212 754 -187 q 643 -249 693 -237 q 535 -261 593 -261 q 461 -256 494 -261 q 406 -244 428 -251 l 413 -219 q 441 -223 422 -221 q 482 -225 460 -225 q 540 -219 511 -225 q 589 -201 569 -214 q 608 -168 608 -189 q 592 -140 608 -149 q 544 -132 575 -132 q 518 -134 533 -132 q 490 -142 503 -136 l 536 7 l 574 7 z "},"Ĉ":{"ha":979,"x_min":60,"x_max":901,"o":"m 551 1003 q 702 976 643 1003 q 807 913 761 949 q 849 908 835 892 q 869 983 864 924 l 901 983 q 897 852 899 929 q 896 647 896 775 l 864 647 q 846 756 857 711 q 815 836 835 801 q 760 899 796 871 q 679 950 725 933 q 583 967 633 967 q 456 927 508 967 q 370 819 403 888 q 322 666 338 751 q 307 489 307 581 q 323 310 307 396 q 373 158 339 225 q 461 53 407 92 q 589 14 515 14 q 681 31 635 14 q 761 82 728 49 q 835 185 815 124 q 864 350 854 247 l 896 350 q 897 137 896 218 q 901 0 899 56 l 869 0 q 851 75 864 60 q 807 71 838 90 q 698 8 756 35 q 550 -19 640 -19 q 292 40 403 -19 q 121 213 182 100 q 60 483 60 325 q 123 756 60 639 q 297 938 186 872 q 551 1003 407 1003 m 539 1306 q 656 1187 581 1246 q 824 1089 732 1128 l 817 1068 q 638 1110 726 1085 q 499 1158 550 1135 q 383 1110 456 1135 q 236 1068 310 1085 l 229 1089 q 395 1186 319 1128 q 514 1306 471 1244 l 539 1306 z "},"Ċ":{"ha":979,"x_min":60,"x_max":901,"o":"m 551 1003 q 702 976 643 1003 q 807 913 761 949 q 849 908 835 892 q 869 983 864 924 l 901 983 q 897 852 899 929 q 896 647 896 775 l 864 647 q 846 756 857 711 q 815 836 835 801 q 760 899 796 871 q 679 950 725 933 q 583 967 633 967 q 456 927 508 967 q 370 819 403 888 q 322 666 338 751 q 307 489 307 581 q 323 310 307 396 q 373 158 339 225 q 461 53 407 92 q 589 14 515 14 q 681 31 635 14 q 761 82 728 49 q 835 185 815 124 q 864 350 854 247 l 896 350 q 897 137 896 218 q 901 0 899 56 l 869 0 q 851 75 864 60 q 807 71 838 90 q 698 8 756 35 q 550 -19 640 -19 q 292 40 403 -19 q 121 213 182 100 q 60 483 60 325 q 123 756 60 639 q 297 938 186 872 q 551 1003 407 1003 m 528 1276 q 613 1248 581 1276 q 646 1169 646 1219 q 613 1091 646 1119 q 528 1063 581 1063 q 442 1091 474 1063 q 410 1169 410 1119 q 442 1248 410 1219 q 528 1276 474 1276 z "},"D":{"ha":1078,"x_min":47,"x_max":1017,"o":"m 476 983 q 883 859 750 983 q 1017 503 1017 735 q 951 238 1017 351 q 762 63 886 125 q 464 0 638 0 q 406 1 442 0 q 331 3 369 3 q 261 4 292 4 q 141 3 200 4 q 47 0 82 3 l 47 28 q 114 39 92 31 q 144 72 136 47 q 151 147 151 97 l 151 836 q 144 912 151 888 q 113 945 136 936 q 47 956 90 954 l 47 983 q 141 980 82 982 q 258 979 200 978 q 372 982 308 981 q 476 983 435 983 m 475 958 q 392 935 411 958 q 372 839 372 911 l 372 144 q 392 49 372 72 q 476 25 413 25 q 660 80 593 25 q 757 240 728 135 q 786 497 786 346 q 755 755 786 653 q 656 908 724 857 q 475 958 588 958 z "},"Ð":{"ha":1078,"x_min":11,"x_max":1017,"o":"m 476 983 q 883 859 750 983 q 1017 503 1017 735 q 951 238 1017 351 q 762 63 886 125 q 464 0 638 0 q 406 1 442 0 q 331 3 369 3 q 261 4 292 4 q 141 3 200 4 q 47 0 82 3 l 47 28 q 114 39 92 31 q 144 72 136 47 q 151 147 151 97 l 151 836 q 144 912 151 888 q 113 945 136 936 q 47 956 90 954 l 47 983 q 141 980 82 982 q 258 979 200 978 q 372 982 308 981 q 476 983 435 983 m 475 958 q 392 935 411 958 q 372 839 372 911 l 372 144 q 392 49 372 72 q 476 25 413 25 q 660 80 593 25 q 757 240 728 135 q 786 497 786 346 q 755 755 786 653 q 656 908 724 857 q 475 958 588 958 m 544 508 l 544 481 l 11 481 l 11 508 l 544 508 z "},"Ď":{"ha":1078,"x_min":47,"x_max":1017,"o":"m 476 983 q 883 859 750 983 q 1017 503 1017 735 q 951 238 1017 351 q 762 63 886 125 q 464 0 638 0 q 406 1 442 0 q 331 3 369 3 q 261 4 292 4 q 141 3 200 4 q 47 0 82 3 l 47 28 q 114 39 92 31 q 144 72 136 47 q 151 147 151 97 l 151 836 q 144 912 151 888 q 113 945 136 936 q 47 956 90 954 l 47 983 q 141 980 82 982 q 258 979 200 978 q 372 982 308 981 q 476 983 435 983 m 475 958 q 392 935 411 958 q 372 839 372 911 l 372 144 q 392 49 372 72 q 476 25 413 25 q 660 80 593 25 q 757 240 728 135 q 786 497 786 346 q 755 755 786 653 q 656 908 724 857 q 475 958 588 958 m 763 1303 l 769 1282 q 603 1185 679 1244 q 485 1065 528 1126 l 460 1065 q 342 1185 418 1126 q 175 1282 267 1244 l 182 1303 q 360 1263 272 1288 q 500 1213 449 1238 q 616 1263 543 1238 q 763 1303 689 1288 z "},"Đ":{"ha":1078,"x_min":11,"x_max":1017,"o":"m 476 983 q 883 859 750 983 q 1017 503 1017 735 q 951 238 1017 351 q 762 63 886 125 q 464 0 638 0 q 406 1 442 0 q 331 3 369 3 q 261 4 292 4 q 141 3 200 4 q 47 0 82 3 l 47 28 q 114 39 92 31 q 144 72 136 47 q 151 147 151 97 l 151 836 q 144 912 151 888 q 113 945 136 936 q 47 956 90 954 l 47 983 q 141 980 82 982 q 258 979 200 978 q 372 982 308 981 q 476 983 435 983 m 475 958 q 392 935 411 958 q 372 839 372 911 l 372 144 q 392 49 372 72 q 476 25 413 25 q 660 80 593 25 q 757 240 728 135 q 786 497 786 346 q 755 755 786 653 q 656 908 724 857 q 475 958 588 958 m 544 508 l 544 481 l 11 481 l 11 508 l 544 508 z "},"E":{"ha":881,"x_min":47,"x_max":818,"o":"m 790 983 q 783 865 785 922 q 781 778 781 808 q 782 725 781 750 q 785 683 783 700 l 753 683 q 710 844 739 785 q 634 927 681 903 q 525 951 588 951 l 468 951 q 407 944 428 951 q 379 917 386 938 q 372 853 372 896 l 372 131 q 379 67 372 88 q 407 39 386 46 q 468 32 428 32 l 536 32 q 647 59 599 32 q 728 151 694 86 q 781 328 763 217 l 813 328 q 808 211 808 283 q 810 121 808 179 q 818 0 811 63 q 658 3 747 3 q 500 4 569 4 q 411 4 465 4 q 294 3 357 4 q 168 2 232 3 q 47 0 104 1 l 47 28 q 114 39 92 31 q 144 72 136 47 q 151 147 151 97 l 151 836 q 144 912 151 888 q 113 945 136 936 q 47 956 90 954 l 47 983 q 168 981 104 982 q 294 980 232 981 q 411 979 357 979 q 500 979 465 979 q 645 980 564 979 q 790 983 726 981 m 574 508 q 574 494 574 508 q 574 481 574 481 l 331 481 q 331 494 331 481 q 331 508 331 508 l 574 508 m 614 692 q 609 571 608 613 q 610 494 610 529 q 611 418 610 460 q 618 297 613 376 l 586 297 q 560 388 579 346 q 507 455 542 429 q 417 481 472 481 l 417 508 q 488 526 458 508 q 535 572 517 543 q 565 632 554 600 q 582 692 576 664 l 614 692 z "},"É":{"ha":881,"x_min":47,"x_max":818,"o":"m 790 983 q 783 865 785 922 q 781 778 781 808 q 782 725 781 750 q 785 683 783 700 l 753 683 q 710 844 739 785 q 634 927 681 903 q 525 951 588 951 l 468 951 q 407 944 428 951 q 379 917 386 938 q 372 853 372 896 l 372 131 q 379 67 372 88 q 407 39 386 46 q 468 32 428 32 l 536 32 q 647 59 599 32 q 728 151 694 86 q 781 328 763 217 l 813 328 q 808 211 808 283 q 810 121 808 179 q 818 0 811 63 q 658 3 747 3 q 500 4 569 4 q 411 4 465 4 q 294 3 357 4 q 168 2 232 3 q 47 0 104 1 l 47 28 q 114 39 92 31 q 144 72 136 47 q 151 147 151 97 l 151 836 q 144 912 151 888 q 113 945 136 936 q 47 956 90 954 l 47 983 q 168 981 104 982 q 294 980 232 981 q 411 979 357 979 q 500 979 465 979 q 645 980 564 979 q 790 983 726 981 m 574 508 q 574 494 574 508 q 574 481 574 481 l 331 481 q 331 494 331 481 q 331 508 331 508 l 574 508 m 614 692 q 609 571 608 613 q 610 494 610 529 q 611 418 610 460 q 618 297 613 376 l 586 297 q 560 388 579 346 q 507 455 542 429 q 417 481 472 481 l 417 508 q 488 526 458 508 q 535 572 517 543 q 565 632 554 600 q 582 692 576 664 l 614 692 m 560 1297 q 623 1306 589 1314 q 672 1267 657 1299 q 676 1211 686 1240 q 633 1164 665 1182 q 565 1138 603 1147 q 475 1115 528 1129 q 344 1072 422 1101 l 335 1089 q 438 1183 401 1143 q 501 1252 475 1224 q 560 1297 528 1281 z "},"Ĕ":{"ha":881,"x_min":47,"x_max":818,"o":"m 790 983 q 783 865 785 922 q 781 778 781 808 q 782 725 781 750 q 785 683 783 700 l 753 683 q 710 844 739 785 q 634 927 681 903 q 525 951 588 951 l 468 951 q 407 944 428 951 q 379 917 386 938 q 372 853 372 896 l 372 131 q 379 67 372 88 q 407 39 386 46 q 468 32 428 32 l 536 32 q 647 59 599 32 q 728 151 694 86 q 781 328 763 217 l 813 328 q 808 211 808 283 q 810 121 808 179 q 818 0 811 63 q 658 3 747 3 q 500 4 569 4 q 411 4 465 4 q 294 3 357 4 q 168 2 232 3 q 47 0 104 1 l 47 28 q 114 39 92 31 q 144 72 136 47 q 151 147 151 97 l 151 836 q 144 912 151 888 q 113 945 136 936 q 47 956 90 954 l 47 983 q 168 981 104 982 q 294 980 232 981 q 411 979 357 979 q 500 979 465 979 q 645 980 564 979 q 790 983 726 981 m 574 508 q 574 494 574 508 q 574 481 574 481 l 331 481 q 331 494 331 481 q 331 508 331 508 l 574 508 m 614 692 q 609 571 608 613 q 610 494 610 529 q 611 418 610 460 q 618 297 613 376 l 586 297 q 560 388 579 346 q 507 455 542 429 q 417 481 472 481 l 417 508 q 488 526 458 508 q 535 572 517 543 q 565 632 554 600 q 582 692 576 664 l 614 692 m 721 1272 l 738 1257 q 678 1171 718 1214 q 575 1099 638 1128 q 428 1071 513 1071 q 281 1099 343 1071 q 178 1171 218 1128 q 118 1257 138 1214 l 135 1271 q 244 1215 172 1243 q 428 1188 315 1188 q 612 1215 540 1188 q 721 1272 683 1243 z "},"Ě":{"ha":881,"x_min":47,"x_max":818,"o":"m 790 983 q 783 865 785 922 q 781 778 781 808 q 782 725 781 750 q 785 683 783 700 l 753 683 q 710 844 739 785 q 634 927 681 903 q 525 951 588 951 l 468 951 q 407 944 428 951 q 379 917 386 938 q 372 853 372 896 l 372 131 q 379 67 372 88 q 407 39 386 46 q 468 32 428 32 l 536 32 q 647 59 599 32 q 728 151 694 86 q 781 328 763 217 l 813 328 q 808 211 808 283 q 810 121 808 179 q 818 0 811 63 q 658 3 747 3 q 500 4 569 4 q 411 4 465 4 q 294 3 357 4 q 168 2 232 3 q 47 0 104 1 l 47 28 q 114 39 92 31 q 144 72 136 47 q 151 147 151 97 l 151 836 q 144 912 151 888 q 113 945 136 936 q 47 956 90 954 l 47 983 q 168 981 104 982 q 294 980 232 981 q 411 979 357 979 q 500 979 465 979 q 645 980 564 979 q 790 983 726 981 m 574 508 q 574 494 574 508 q 574 481 574 481 l 331 481 q 331 494 331 481 q 331 508 331 508 l 574 508 m 614 692 q 609 571 608 613 q 610 494 610 529 q 611 418 610 460 q 618 297 613 376 l 586 297 q 560 388 579 346 q 507 455 542 429 q 417 481 472 481 l 417 508 q 488 526 458 508 q 535 572 517 543 q 565 632 554 600 q 582 692 576 664 l 614 692 m 722 1303 l 729 1282 q 563 1185 639 1244 q 444 1065 488 1126 l 419 1065 q 302 1185 378 1126 q 135 1282 226 1244 l 142 1303 q 320 1263 232 1288 q 460 1213 408 1238 q 576 1263 503 1238 q 722 1303 649 1288 z "},"Ê":{"ha":881,"x_min":47,"x_max":818,"o":"m 790 983 q 783 865 785 922 q 781 778 781 808 q 782 725 781 750 q 785 683 783 700 l 753 683 q 710 844 739 785 q 634 927 681 903 q 525 951 588 951 l 468 951 q 407 944 428 951 q 379 917 386 938 q 372 853 372 896 l 372 131 q 379 67 372 88 q 407 39 386 46 q 468 32 428 32 l 536 32 q 647 59 599 32 q 728 151 694 86 q 781 328 763 217 l 813 328 q 808 211 808 283 q 810 121 808 179 q 818 0 811 63 q 658 3 747 3 q 500 4 569 4 q 411 4 465 4 q 294 3 357 4 q 168 2 232 3 q 47 0 104 1 l 47 28 q 114 39 92 31 q 144 72 136 47 q 151 147 151 97 l 151 836 q 144 912 151 888 q 113 945 136 936 q 47 956 90 954 l 47 983 q 168 981 104 982 q 294 980 232 981 q 411 979 357 979 q 500 979 465 979 q 645 980 564 979 q 790 983 726 981 m 574 508 q 574 494 574 508 q 574 481 574 481 l 331 481 q 331 494 331 481 q 331 508 331 508 l 574 508 m 614 692 q 609 571 608 613 q 610 494 610 529 q 611 418 610 460 q 618 297 613 376 l 586 297 q 560 388 579 346 q 507 455 542 429 q 417 481 472 481 l 417 508 q 488 526 458 508 q 535 572 517 543 q 565 632 554 600 q 582 692 576 664 l 614 692 m 449 1306 q 566 1187 490 1246 q 733 1089 642 1128 l 726 1068 q 548 1110 636 1085 q 408 1158 460 1135 q 292 1110 365 1135 q 146 1068 219 1085 l 139 1089 q 305 1186 229 1128 q 424 1306 381 1244 l 449 1306 z "},"Ế":{"ha":881,"x_min":47,"x_max":818,"o":"m 790 983 q 783 865 785 922 q 781 778 781 808 q 782 725 781 750 q 785 683 783 700 l 753 683 q 710 844 739 785 q 634 927 681 903 q 525 951 588 951 l 468 951 q 407 944 428 951 q 379 917 386 938 q 372 853 372 896 l 372 131 q 379 67 372 88 q 407 39 386 46 q 468 32 428 32 l 536 32 q 647 59 599 32 q 728 151 694 86 q 781 328 763 217 l 813 328 q 808 211 808 283 q 810 121 808 179 q 818 0 811 63 q 658 3 747 3 q 500 4 569 4 q 411 4 465 4 q 294 3 357 4 q 168 2 232 3 q 47 0 104 1 l 47 28 q 114 39 92 31 q 144 72 136 47 q 151 147 151 97 l 151 836 q 144 912 151 888 q 113 945 136 936 q 47 956 90 954 l 47 983 q 168 981 104 982 q 294 980 232 981 q 411 979 357 979 q 500 979 465 979 q 645 980 564 979 q 790 983 726 981 m 574 508 q 574 494 574 508 q 574 481 574 481 l 331 481 q 331 494 331 481 q 331 508 331 508 l 574 508 m 614 692 q 609 571 608 613 q 610 494 610 529 q 611 418 610 460 q 618 297 613 376 l 586 297 q 560 388 579 346 q 507 455 542 429 q 417 481 472 481 l 417 508 q 488 526 458 508 q 535 572 517 543 q 565 632 554 600 q 582 692 576 664 l 614 692 m 449 1306 q 566 1187 490 1246 q 733 1089 642 1128 l 726 1068 q 548 1110 636 1085 q 408 1158 460 1135 q 292 1110 365 1135 q 146 1068 219 1085 l 139 1089 q 305 1186 229 1128 q 424 1306 381 1244 l 449 1306 m 560 1603 q 623 1612 589 1619 q 672 1572 657 1604 q 676 1517 686 1546 q 633 1469 665 1488 q 565 1444 603 1453 q 475 1421 528 1435 q 344 1378 422 1407 l 335 1394 q 438 1489 401 1449 q 501 1558 475 1529 q 560 1603 528 1586 z "},"Ệ":{"ha":881,"x_min":47,"x_max":818,"o":"m 790 983 q 783 865 785 922 q 781 778 781 808 q 782 725 781 750 q 785 683 783 700 l 753 683 q 710 844 739 785 q 634 927 681 903 q 525 951 588 951 l 468 951 q 407 944 428 951 q 379 917 386 938 q 372 853 372 896 l 372 131 q 379 67 372 88 q 407 39 386 46 q 468 32 428 32 l 536 32 q 647 59 599 32 q 728 151 694 86 q 781 328 763 217 l 813 328 q 808 211 808 283 q 810 121 808 179 q 818 0 811 63 q 658 3 747 3 q 500 4 569 4 q 411 4 465 4 q 294 3 357 4 q 168 2 232 3 q 47 0 104 1 l 47 28 q 114 39 92 31 q 144 72 136 47 q 151 147 151 97 l 151 836 q 144 912 151 888 q 113 945 136 936 q 47 956 90 954 l 47 983 q 168 981 104 982 q 294 980 232 981 q 411 979 357 979 q 500 979 465 979 q 645 980 564 979 q 790 983 726 981 m 574 508 q 574 494 574 508 q 574 481 574 481 l 331 481 q 331 494 331 481 q 331 508 331 508 l 574 508 m 614 692 q 609 571 608 613 q 610 494 610 529 q 611 418 610 460 q 618 297 613 376 l 586 297 q 560 388 579 346 q 507 455 542 429 q 417 481 472 481 l 417 508 q 488 526 458 508 q 535 572 517 543 q 565 632 554 600 q 582 692 576 664 l 614 692 m 449 1404 q 552 1253 486 1328 q 697 1132 618 1179 l 686 1113 q 531 1161 606 1132 q 408 1218 456 1190 q 310 1161 371 1190 q 186 1113 250 1132 l 175 1132 q 320 1253 254 1179 q 424 1404 386 1326 l 449 1404 m 449 -260 q 374 -236 403 -260 q 346 -168 346 -212 q 374 -101 346 -126 q 451 -76 401 -76 q 528 -101 501 -76 q 554 -168 554 -125 q 526 -235 554 -211 q 449 -260 497 -260 z "},"Ề":{"ha":881,"x_min":47,"x_max":818,"o":"m 790 983 q 783 865 785 922 q 781 778 781 808 q 782 725 781 750 q 785 683 783 700 l 753 683 q 710 844 739 785 q 634 927 681 903 q 525 951 588 951 l 468 951 q 407 944 428 951 q 379 917 386 938 q 372 853 372 896 l 372 131 q 379 67 372 88 q 407 39 386 46 q 468 32 428 32 l 536 32 q 647 59 599 32 q 728 151 694 86 q 781 328 763 217 l 813 328 q 808 211 808 283 q 810 121 808 179 q 818 0 811 63 q 658 3 747 3 q 500 4 569 4 q 411 4 465 4 q 294 3 357 4 q 168 2 232 3 q 47 0 104 1 l 47 28 q 114 39 92 31 q 144 72 136 47 q 151 147 151 97 l 151 836 q 144 912 151 888 q 113 945 136 936 q 47 956 90 954 l 47 983 q 168 981 104 982 q 294 980 232 981 q 411 979 357 979 q 500 979 465 979 q 645 980 564 979 q 790 983 726 981 m 574 508 q 574 494 574 508 q 574 481 574 481 l 331 481 q 331 494 331 481 q 331 508 331 508 l 574 508 m 614 692 q 609 571 608 613 q 610 494 610 529 q 611 418 610 460 q 618 297 613 376 l 586 297 q 560 388 579 346 q 507 455 542 429 q 417 481 472 481 l 417 508 q 488 526 458 508 q 535 572 517 543 q 565 632 554 600 q 582 692 576 664 l 614 692 m 449 1306 q 566 1187 490 1246 q 733 1089 642 1128 l 726 1068 q 548 1110 636 1085 q 408 1158 460 1135 q 292 1110 365 1135 q 146 1068 219 1085 l 139 1089 q 305 1186 229 1128 q 424 1306 381 1244 l 449 1306 m 304 1603 q 363 1558 336 1586 q 426 1489 389 1529 q 529 1394 464 1449 l 519 1378 q 390 1421 443 1407 q 299 1444 336 1435 q 231 1469 261 1453 q 188 1517 199 1488 q 192 1572 178 1546 q 242 1612 208 1604 q 304 1603 275 1619 z "},"Ể":{"ha":881,"x_min":47,"x_max":890,"o":"m 790 983 q 783 865 785 922 q 781 778 781 808 q 782 725 781 750 q 785 683 783 700 l 753 683 q 710 844 739 785 q 634 927 681 903 q 525 951 588 951 l 468 951 q 407 944 428 951 q 379 917 386 938 q 372 853 372 896 l 372 131 q 379 67 372 88 q 407 39 386 46 q 468 32 428 32 l 536 32 q 647 59 599 32 q 728 151 694 86 q 781 328 763 217 l 813 328 q 808 211 808 283 q 810 121 808 179 q 818 0 811 63 q 658 3 747 3 q 500 4 569 4 q 411 4 465 4 q 294 3 357 4 q 168 2 232 3 q 47 0 104 1 l 47 28 q 114 39 92 31 q 144 72 136 47 q 151 147 151 97 l 151 836 q 144 912 151 888 q 113 945 136 936 q 47 956 90 954 l 47 983 q 168 981 104 982 q 294 980 232 981 q 411 979 357 979 q 500 979 465 979 q 645 980 564 979 q 790 983 726 981 m 574 508 q 574 494 574 508 q 574 481 574 481 l 331 481 q 331 494 331 481 q 331 508 331 508 l 574 508 m 614 692 q 609 571 608 613 q 610 494 610 529 q 611 418 610 460 q 618 297 613 376 l 586 297 q 560 388 579 346 q 507 455 542 429 q 417 481 472 481 l 417 508 q 488 526 458 508 q 535 572 517 543 q 565 632 554 600 q 582 692 576 664 l 614 692 m 449 1306 q 566 1187 490 1246 q 733 1089 642 1128 l 726 1068 q 548 1110 636 1085 q 408 1158 460 1135 q 292 1110 365 1135 q 146 1068 219 1085 l 139 1089 q 305 1186 229 1128 q 424 1306 381 1244 l 449 1306 m 671 1282 l 671 1358 q 742 1408 722 1381 q 763 1467 763 1436 q 731 1531 763 1510 q 657 1551 700 1551 q 618 1547 636 1551 q 592 1533 600 1542 q 635 1508 619 1525 q 651 1461 651 1490 q 630 1408 651 1428 q 576 1389 608 1389 q 523 1409 543 1389 q 503 1461 503 1429 q 520 1514 503 1492 q 558 1549 538 1536 q 616 1571 583 1563 q 693 1579 649 1579 q 792 1567 747 1579 q 864 1532 836 1556 q 892 1474 892 1508 q 866 1416 892 1442 q 797 1373 840 1390 q 699 1346 753 1356 l 699 1282 l 671 1282 z "},"Ễ":{"ha":881,"x_min":47,"x_max":818,"o":"m 790 983 q 783 865 785 922 q 781 778 781 808 q 782 725 781 750 q 785 683 783 700 l 753 683 q 710 844 739 785 q 634 927 681 903 q 525 951 588 951 l 468 951 q 407 944 428 951 q 379 917 386 938 q 372 853 372 896 l 372 131 q 379 67 372 88 q 407 39 386 46 q 468 32 428 32 l 536 32 q 647 59 599 32 q 728 151 694 86 q 781 328 763 217 l 813 328 q 808 211 808 283 q 810 121 808 179 q 818 0 811 63 q 658 3 747 3 q 500 4 569 4 q 411 4 465 4 q 294 3 357 4 q 168 2 232 3 q 47 0 104 1 l 47 28 q 114 39 92 31 q 144 72 136 47 q 151 147 151 97 l 151 836 q 144 912 151 888 q 113 945 136 936 q 47 956 90 954 l 47 983 q 168 981 104 982 q 294 980 232 981 q 411 979 357 979 q 500 979 465 979 q 645 980 564 979 q 790 983 726 981 m 574 508 q 574 494 574 508 q 574 481 574 481 l 331 481 q 331 494 331 481 q 331 508 331 508 l 574 508 m 614 692 q 609 571 608 613 q 610 494 610 529 q 611 418 610 460 q 618 297 613 376 l 586 297 q 560 388 579 346 q 507 455 542 429 q 417 481 472 481 l 417 508 q 488 526 458 508 q 535 572 517 543 q 565 632 554 600 q 582 692 576 664 l 614 692 m 449 1306 q 566 1187 490 1246 q 733 1089 642 1128 l 726 1068 q 548 1110 636 1085 q 408 1158 460 1135 q 292 1110 365 1135 q 146 1068 219 1085 l 139 1089 q 305 1186 229 1128 q 424 1306 381 1244 l 449 1306 m 314 1589 q 399 1574 363 1589 q 467 1539 436 1558 q 531 1505 499 1519 q 606 1490 564 1490 q 668 1508 639 1490 q 721 1565 697 1525 l 740 1558 q 670 1417 722 1463 q 556 1372 618 1372 q 470 1387 507 1372 q 401 1422 433 1401 q 337 1456 369 1442 q 263 1471 304 1471 q 200 1453 229 1471 q 147 1394 171 1436 l 128 1401 q 199 1544 147 1499 q 314 1589 251 1589 z "},"Ë":{"ha":881,"x_min":47,"x_max":818,"o":"m 790 983 q 783 865 785 922 q 781 778 781 808 q 782 725 781 750 q 785 683 783 700 l 753 683 q 710 844 739 785 q 634 927 681 903 q 525 951 588 951 l 468 951 q 407 944 428 951 q 379 917 386 938 q 372 853 372 896 l 372 131 q 379 67 372 88 q 407 39 386 46 q 468 32 428 32 l 536 32 q 647 59 599 32 q 728 151 694 86 q 781 328 763 217 l 813 328 q 808 211 808 283 q 810 121 808 179 q 818 0 811 63 q 658 3 747 3 q 500 4 569 4 q 411 4 465 4 q 294 3 357 4 q 168 2 232 3 q 47 0 104 1 l 47 28 q 114 39 92 31 q 144 72 136 47 q 151 147 151 97 l 151 836 q 144 912 151 888 q 113 945 136 936 q 47 956 90 954 l 47 983 q 168 981 104 982 q 294 980 232 981 q 411 979 357 979 q 500 979 465 979 q 645 980 564 979 q 790 983 726 981 m 574 508 q 574 494 574 508 q 574 481 574 481 l 331 481 q 331 494 331 481 q 331 508 331 508 l 574 508 m 614 692 q 609 571 608 613 q 610 494 610 529 q 611 418 610 460 q 618 297 613 376 l 586 297 q 560 388 579 346 q 507 455 542 429 q 417 481 472 481 l 417 508 q 488 526 458 508 q 535 572 517 543 q 565 632 554 600 q 582 692 576 664 l 614 692 m 603 1274 q 676 1242 644 1274 q 707 1168 707 1210 q 676 1094 707 1125 q 603 1064 644 1064 q 528 1094 560 1064 q 497 1169 497 1125 q 528 1242 497 1211 q 603 1274 560 1274 m 269 1274 q 343 1242 311 1274 q 375 1168 375 1210 q 343 1094 375 1125 q 269 1064 311 1064 q 196 1094 226 1064 q 165 1169 165 1125 q 196 1242 165 1211 q 269 1274 226 1274 z "},"Ė":{"ha":881,"x_min":47,"x_max":818,"o":"m 790 983 q 783 865 785 922 q 781 778 781 808 q 782 725 781 750 q 785 683 783 700 l 753 683 q 710 844 739 785 q 634 927 681 903 q 525 951 588 951 l 468 951 q 407 944 428 951 q 379 917 386 938 q 372 853 372 896 l 372 131 q 379 67 372 88 q 407 39 386 46 q 468 32 428 32 l 536 32 q 647 59 599 32 q 728 151 694 86 q 781 328 763 217 l 813 328 q 808 211 808 283 q 810 121 808 179 q 818 0 811 63 q 658 3 747 3 q 500 4 569 4 q 411 4 465 4 q 294 3 357 4 q 168 2 232 3 q 47 0 104 1 l 47 28 q 114 39 92 31 q 144 72 136 47 q 151 147 151 97 l 151 836 q 144 912 151 888 q 113 945 136 936 q 47 956 90 954 l 47 983 q 168 981 104 982 q 294 980 232 981 q 411 979 357 979 q 500 979 465 979 q 645 980 564 979 q 790 983 726 981 m 574 508 q 574 494 574 508 q 574 481 574 481 l 331 481 q 331 494 331 481 q 331 508 331 508 l 574 508 m 614 692 q 609 571 608 613 q 610 494 610 529 q 611 418 610 460 q 618 297 613 376 l 586 297 q 560 388 579 346 q 507 455 542 429 q 417 481 472 481 l 417 508 q 488 526 458 508 q 535 572 517 543 q 565 632 554 600 q 582 692 576 664 l 614 692 m 438 1276 q 523 1248 490 1276 q 556 1169 556 1219 q 523 1091 556 1119 q 438 1063 490 1063 q 351 1091 383 1063 q 319 1169 319 1119 q 351 1248 319 1219 q 438 1276 383 1276 z "},"Ẹ":{"ha":881,"x_min":47,"x_max":818,"o":"m 790 983 q 783 865 785 922 q 781 778 781 808 q 782 725 781 750 q 785 683 783 700 l 753 683 q 710 844 739 785 q 634 927 681 903 q 525 951 588 951 l 468 951 q 407 944 428 951 q 379 917 386 938 q 372 853 372 896 l 372 131 q 379 67 372 88 q 407 39 386 46 q 468 32 428 32 l 536 32 q 647 59 599 32 q 728 151 694 86 q 781 328 763 217 l 813 328 q 808 211 808 283 q 810 121 808 179 q 818 0 811 63 q 658 3 747 3 q 500 4 569 4 q 411 4 465 4 q 294 3 357 4 q 168 2 232 3 q 47 0 104 1 l 47 28 q 114 39 92 31 q 144 72 136 47 q 151 147 151 97 l 151 836 q 144 912 151 888 q 113 945 136 936 q 47 956 90 954 l 47 983 q 168 981 104 982 q 294 980 232 981 q 411 979 357 979 q 500 979 465 979 q 645 980 564 979 q 790 983 726 981 m 574 508 q 574 494 574 508 q 574 481 574 481 l 331 481 q 331 494 331 481 q 331 508 331 508 l 574 508 m 614 692 q 609 571 608 613 q 610 494 610 529 q 611 418 610 460 q 618 297 613 376 l 586 297 q 560 388 579 346 q 507 455 542 429 q 417 481 472 481 l 417 508 q 488 526 458 508 q 535 572 517 543 q 565 632 554 600 q 582 692 576 664 l 614 692 m 449 -260 q 374 -236 403 -260 q 346 -168 346 -212 q 374 -101 346 -126 q 451 -76 401 -76 q 528 -101 501 -76 q 554 -168 554 -125 q 526 -235 554 -211 q 449 -260 497 -260 z "},"È":{"ha":881,"x_min":47,"x_max":818,"o":"m 790 983 q 783 865 785 922 q 781 778 781 808 q 782 725 781 750 q 785 683 783 700 l 753 683 q 710 844 739 785 q 634 927 681 903 q 525 951 588 951 l 468 951 q 407 944 428 951 q 379 917 386 938 q 372 853 372 896 l 372 131 q 379 67 372 88 q 407 39 386 46 q 468 32 428 32 l 536 32 q 647 59 599 32 q 728 151 694 86 q 781 328 763 217 l 813 328 q 808 211 808 283 q 810 121 808 179 q 818 0 811 63 q 658 3 747 3 q 500 4 569 4 q 411 4 465 4 q 294 3 357 4 q 168 2 232 3 q 47 0 104 1 l 47 28 q 114 39 92 31 q 144 72 136 47 q 151 147 151 97 l 151 836 q 144 912 151 888 q 113 945 136 936 q 47 956 90 954 l 47 983 q 168 981 104 982 q 294 980 232 981 q 411 979 357 979 q 500 979 465 979 q 645 980 564 979 q 790 983 726 981 m 574 508 q 574 494 574 508 q 574 481 574 481 l 331 481 q 331 494 331 481 q 331 508 331 508 l 574 508 m 614 692 q 609 571 608 613 q 610 494 610 529 q 611 418 610 460 q 618 297 613 376 l 586 297 q 560 388 579 346 q 507 455 542 429 q 417 481 472 481 l 417 508 q 488 526 458 508 q 535 572 517 543 q 565 632 554 600 q 582 692 576 664 l 614 692 m 304 1297 q 363 1252 336 1281 q 426 1183 389 1224 q 529 1089 464 1143 l 519 1072 q 390 1115 443 1101 q 299 1138 336 1129 q 231 1164 261 1147 q 188 1211 199 1182 q 192 1267 178 1240 q 242 1306 208 1299 q 304 1297 275 1314 z "},"Ẻ":{"ha":881,"x_min":47,"x_max":818,"o":"m 790 983 q 783 865 785 922 q 781 778 781 808 q 782 725 781 750 q 785 683 783 700 l 753 683 q 710 844 739 785 q 634 927 681 903 q 525 951 588 951 l 468 951 q 407 944 428 951 q 379 917 386 938 q 372 853 372 896 l 372 131 q 379 67 372 88 q 407 39 386 46 q 468 32 428 32 l 536 32 q 647 59 599 32 q 728 151 694 86 q 781 328 763 217 l 813 328 q 808 211 808 283 q 810 121 808 179 q 818 0 811 63 q 658 3 747 3 q 500 4 569 4 q 411 4 465 4 q 294 3 357 4 q 168 2 232 3 q 47 0 104 1 l 47 28 q 114 39 92 31 q 144 72 136 47 q 151 147 151 97 l 151 836 q 144 912 151 888 q 113 945 136 936 q 47 956 90 954 l 47 983 q 168 981 104 982 q 294 980 232 981 q 411 979 357 979 q 500 979 465 979 q 645 980 564 979 q 790 983 726 981 m 574 508 q 574 494 574 508 q 574 481 574 481 l 331 481 q 331 494 331 481 q 331 508 331 508 l 574 508 m 614 692 q 609 571 608 613 q 610 494 610 529 q 611 418 610 460 q 618 297 613 376 l 586 297 q 560 388 579 346 q 507 455 542 429 q 417 481 472 481 l 417 508 q 488 526 458 508 q 535 572 517 543 q 565 632 554 600 q 582 692 576 664 l 614 692 m 415 1058 l 415 1135 q 487 1185 467 1157 q 507 1243 507 1213 q 476 1307 507 1286 q 401 1328 444 1328 q 363 1323 381 1328 q 336 1310 344 1318 q 380 1284 364 1301 q 396 1238 396 1267 q 374 1185 396 1204 q 321 1165 353 1165 q 267 1185 288 1165 q 247 1238 247 1206 q 265 1290 247 1268 q 303 1325 282 1313 q 360 1347 328 1339 q 438 1356 393 1356 q 536 1344 492 1356 q 608 1308 581 1332 q 636 1250 636 1285 q 610 1192 636 1218 q 541 1149 585 1167 q 443 1122 497 1132 l 443 1058 l 415 1058 z "},"Ē":{"ha":881,"x_min":47,"x_max":818,"o":"m 790 983 q 783 865 785 922 q 781 778 781 808 q 782 725 781 750 q 785 683 783 700 l 753 683 q 710 844 739 785 q 634 927 681 903 q 525 951 588 951 l 468 951 q 407 944 428 951 q 379 917 386 938 q 372 853 372 896 l 372 131 q 379 67 372 88 q 407 39 386 46 q 468 32 428 32 l 536 32 q 647 59 599 32 q 728 151 694 86 q 781 328 763 217 l 813 328 q 808 211 808 283 q 810 121 808 179 q 818 0 811 63 q 658 3 747 3 q 500 4 569 4 q 411 4 465 4 q 294 3 357 4 q 168 2 232 3 q 47 0 104 1 l 47 28 q 114 39 92 31 q 144 72 136 47 q 151 147 151 97 l 151 836 q 144 912 151 888 q 113 945 136 936 q 47 956 90 954 l 47 983 q 168 981 104 982 q 294 980 232 981 q 411 979 357 979 q 500 979 465 979 q 645 980 564 979 q 790 983 726 981 m 574 508 q 574 494 574 508 q 574 481 574 481 l 331 481 q 331 494 331 481 q 331 508 331 508 l 574 508 m 614 692 q 609 571 608 613 q 610 494 610 529 q 611 418 610 460 q 618 297 613 376 l 586 297 q 560 388 579 346 q 507 455 542 429 q 417 481 472 481 l 417 508 q 488 526 458 508 q 535 572 517 543 q 565 632 554 600 q 582 692 576 664 l 614 692 m 714 1172 l 714 1138 l 158 1138 l 158 1172 l 714 1172 z "},"Ę":{"ha":881,"x_min":47,"x_max":828,"o":"m 790 983 q 783 865 785 922 q 781 778 781 808 q 782 725 781 750 q 785 683 783 700 l 753 683 q 710 844 739 785 q 634 927 681 903 q 525 951 588 951 l 468 951 q 407 944 428 951 q 379 917 386 938 q 372 853 372 896 l 372 131 q 379 67 372 88 q 407 39 386 46 q 468 32 428 32 l 536 32 q 647 59 599 32 q 728 151 694 86 q 781 328 763 217 l 813 328 q 808 211 808 283 q 810 121 808 179 q 818 0 811 63 q 658 3 747 3 q 500 4 569 4 q 411 4 465 4 q 294 3 357 4 q 168 2 232 3 q 47 0 104 1 l 47 28 q 114 39 92 31 q 144 72 136 47 q 151 147 151 97 l 151 836 q 144 912 151 888 q 113 945 136 936 q 47 956 90 954 l 47 983 q 168 981 104 982 q 294 980 232 981 q 411 979 357 979 q 500 979 465 979 q 645 980 564 979 q 790 983 726 981 m 574 508 q 574 494 574 508 q 574 481 574 481 l 331 481 q 331 494 331 481 q 331 508 331 508 l 574 508 m 614 692 q 609 571 608 613 q 610 494 610 529 q 611 418 610 460 q 618 297 613 376 l 586 297 q 560 388 579 346 q 507 455 542 429 q 417 481 472 481 l 417 508 q 488 526 458 508 q 535 572 517 543 q 565 632 554 600 q 582 692 576 664 l 614 692 m 814 4 q 697 -59 731 -22 q 663 -128 663 -96 q 678 -170 663 -156 q 721 -185 693 -185 q 769 -174 744 -185 q 810 -147 794 -162 l 828 -167 q 746 -239 792 -217 q 638 -261 700 -261 q 544 -235 578 -261 q 511 -165 511 -210 q 578 -64 511 -107 q 761 4 644 -21 l 814 4 z "},"Ẽ":{"ha":881,"x_min":47,"x_max":818,"o":"m 790 983 q 783 865 785 922 q 781 778 781 808 q 782 725 781 750 q 785 683 783 700 l 753 683 q 710 844 739 785 q 634 927 681 903 q 525 951 588 951 l 468 951 q 407 944 428 951 q 379 917 386 938 q 372 853 372 896 l 372 131 q 379 67 372 88 q 407 39 386 46 q 468 32 428 32 l 536 32 q 647 59 599 32 q 728 151 694 86 q 781 328 763 217 l 813 328 q 808 211 808 283 q 810 121 808 179 q 818 0 811 63 q 658 3 747 3 q 500 4 569 4 q 411 4 465 4 q 294 3 357 4 q 168 2 232 3 q 47 0 104 1 l 47 28 q 114 39 92 31 q 144 72 136 47 q 151 147 151 97 l 151 836 q 144 912 151 888 q 113 945 136 936 q 47 956 90 954 l 47 983 q 168 981 104 982 q 294 980 232 981 q 411 979 357 979 q 500 979 465 979 q 645 980 564 979 q 790 983 726 981 m 574 508 q 574 494 574 508 q 574 481 574 481 l 331 481 q 331 494 331 481 q 331 508 331 508 l 574 508 m 614 692 q 609 571 608 613 q 610 494 610 529 q 611 418 610 460 q 618 297 613 376 l 586 297 q 560 388 579 346 q 507 455 542 429 q 417 481 472 481 l 417 508 q 488 526 458 508 q 535 572 517 543 q 565 632 554 600 q 582 692 576 664 l 614 692 m 314 1283 q 399 1268 363 1283 q 467 1233 436 1253 q 531 1199 499 1214 q 606 1185 564 1185 q 668 1202 639 1185 q 721 1260 697 1219 l 740 1253 q 670 1112 722 1157 q 556 1067 618 1067 q 470 1081 507 1067 q 401 1116 433 1096 q 337 1151 369 1136 q 263 1165 304 1165 q 200 1148 229 1165 q 147 1089 171 1131 l 128 1096 q 199 1238 147 1193 q 314 1283 251 1283 z "},"Ʒ":{"ha":836,"x_min":54,"x_max":786,"o":"m 774 983 l 774 956 l 533 492 l 510 550 q 652 485 590 524 q 750 394 714 447 q 786 271 786 342 q 738 124 786 190 q 603 19 690 58 q 396 -19 517 -19 q 256 -3 315 -19 q 164 32 196 14 q 141 45 153 39 q 118 51 129 51 q 97 36 104 51 q 86 -10 90 21 l 54 -10 q 58 68 57 24 q 59 184 58 113 q 60 365 60 256 l 92 365 q 126 192 97 272 q 214 65 156 113 q 361 17 272 17 q 486 52 438 17 q 557 144 535 88 q 579 264 579 200 q 549 397 579 342 q 463 485 518 451 q 333 533 408 519 l 333 561 l 539 951 l 381 951 q 283 938 328 951 q 200 891 238 924 q 138 803 163 858 q 103 667 113 749 l 71 667 q 74 714 74 686 q 75 767 75 742 q 73 863 75 804 q 65 983 71 921 q 167 981 111 982 q 277 979 222 979 q 378 979 332 979 q 576 980 471 979 q 774 983 682 981 z "},"Ǯ":{"ha":836,"x_min":54,"x_max":786,"o":"m 774 983 l 774 956 l 533 492 l 510 550 q 652 485 590 524 q 750 394 714 447 q 786 271 786 342 q 738 124 786 190 q 603 19 690 58 q 396 -19 517 -19 q 256 -3 315 -19 q 164 32 196 14 q 141 45 153 39 q 118 51 129 51 q 97 36 104 51 q 86 -10 90 21 l 54 -10 q 58 68 57 24 q 59 184 58 113 q 60 365 60 256 l 92 365 q 126 192 97 272 q 214 65 156 113 q 361 17 272 17 q 486 52 438 17 q 557 144 535 88 q 579 264 579 200 q 549 397 579 342 q 463 485 518 451 q 333 533 408 519 l 333 561 l 539 951 l 381 951 q 283 938 328 951 q 200 891 238 924 q 138 803 163 858 q 103 667 113 749 l 71 667 q 74 714 74 686 q 75 767 75 742 q 73 863 75 804 q 65 983 71 921 q 167 981 111 982 q 277 979 222 979 q 378 979 332 979 q 576 980 471 979 q 774 983 682 981 m 706 1303 l 713 1282 q 547 1185 622 1244 q 428 1065 471 1126 l 403 1065 q 285 1185 361 1126 q 118 1282 210 1244 l 125 1303 q 303 1263 215 1288 q 443 1213 392 1238 q 559 1263 486 1238 q 706 1303 632 1288 z "},"F":{"ha":822,"x_min":47,"x_max":790,"o":"m 790 983 q 783 863 785 921 q 781 772 781 804 q 782 714 781 742 q 785 667 783 686 l 753 667 q 703 837 735 775 q 624 925 671 899 q 514 951 578 951 l 468 951 q 407 944 428 951 q 379 917 386 938 q 372 853 372 896 l 372 156 q 383 75 372 101 q 426 40 394 49 q 521 31 458 32 l 521 0 q 410 3 478 1 q 267 4 342 4 q 150 3 207 4 q 47 0 93 1 l 47 28 q 114 39 92 31 q 144 72 136 47 q 151 147 151 97 l 151 836 q 144 912 151 888 q 113 945 136 936 q 47 956 90 954 l 47 983 q 168 981 104 982 q 294 980 232 981 q 411 979 357 979 q 500 979 465 979 q 645 980 564 979 q 790 983 726 981 m 583 503 q 583 489 583 503 q 583 475 583 475 l 331 475 q 331 489 331 475 q 331 503 331 503 l 583 503 m 618 686 q 613 565 613 607 q 614 489 614 524 q 615 413 614 454 q 622 292 617 371 l 590 292 q 564 382 582 340 q 511 449 546 424 q 421 475 476 475 l 421 503 q 491 520 463 503 q 539 566 519 538 q 569 626 558 594 q 586 686 581 658 l 618 686 z "},"G":{"ha":1021,"x_min":60,"x_max":989,"o":"m 563 1003 q 717 976 657 1003 q 824 913 776 950 q 851 900 840 900 q 886 983 878 900 l 918 983 q 914 852 915 929 q 913 647 913 775 l 881 647 q 851 792 871 731 q 776 899 831 854 q 694 949 743 931 q 594 967 644 967 q 464 927 518 967 q 375 819 410 888 q 324 666 340 751 q 307 489 307 581 q 376 124 307 239 q 574 8 444 8 q 632 17 607 8 q 672 36 657 25 q 699 66 692 50 q 706 108 706 82 l 706 244 q 695 340 706 308 q 654 382 685 371 q 565 394 624 393 l 565 422 q 635 420 594 421 q 721 419 676 419 q 803 418 765 418 q 910 419 861 418 q 989 422 958 421 l 989 394 q 949 385 963 393 q 931 351 936 376 q 926 275 926 326 l 926 0 l 899 0 q 888 51 897 24 q 858 79 879 79 q 833 74 849 79 q 783 50 817 69 q 675 1 732 21 q 556 -19 618 -19 q 283 40 394 -19 q 116 212 172 100 q 60 481 60 324 q 124 756 60 639 q 302 938 189 872 q 563 1003 415 1003 z "},"Ǵ":{"ha":1021,"x_min":60,"x_max":989,"o":"m 563 1003 q 717 976 657 1003 q 824 913 776 950 q 851 900 840 900 q 886 983 878 900 l 918 983 q 914 852 915 929 q 913 647 913 775 l 881 647 q 851 792 871 731 q 776 899 831 854 q 694 949 743 931 q 594 967 644 967 q 464 927 518 967 q 375 819 410 888 q 324 666 340 751 q 307 489 307 581 q 376 124 307 239 q 574 8 444 8 q 632 17 607 8 q 672 36 657 25 q 699 66 692 50 q 706 108 706 82 l 706 244 q 695 340 706 308 q 654 382 685 371 q 565 394 624 393 l 565 422 q 635 420 594 421 q 721 419 676 419 q 803 418 765 418 q 910 419 861 418 q 989 422 958 421 l 989 394 q 949 385 963 393 q 931 351 936 376 q 926 275 926 326 l 926 0 l 899 0 q 888 51 897 24 q 858 79 879 79 q 833 74 849 79 q 783 50 817 69 q 675 1 732 21 q 556 -19 618 -19 q 283 40 394 -19 q 116 212 172 100 q 60 481 60 324 q 124 756 60 639 q 302 938 189 872 q 563 1003 415 1003 m 660 1297 q 723 1306 689 1314 q 772 1267 757 1299 q 776 1211 786 1240 q 733 1164 765 1182 q 665 1138 703 1147 q 575 1115 628 1129 q 444 1072 522 1101 l 435 1089 q 538 1183 501 1143 q 601 1252 575 1224 q 660 1297 628 1281 z "},"Ğ":{"ha":1021,"x_min":60,"x_max":989,"o":"m 563 1003 q 717 976 657 1003 q 824 913 776 950 q 851 900 840 900 q 886 983 878 900 l 918 983 q 914 852 915 929 q 913 647 913 775 l 881 647 q 851 792 871 731 q 776 899 831 854 q 694 949 743 931 q 594 967 644 967 q 464 927 518 967 q 375 819 410 888 q 324 666 340 751 q 307 489 307 581 q 376 124 307 239 q 574 8 444 8 q 632 17 607 8 q 672 36 657 25 q 699 66 692 50 q 706 108 706 82 l 706 244 q 695 340 706 308 q 654 382 685 371 q 565 394 624 393 l 565 422 q 635 420 594 421 q 721 419 676 419 q 803 418 765 418 q 910 419 861 418 q 989 422 958 421 l 989 394 q 949 385 963 393 q 931 351 936 376 q 926 275 926 326 l 926 0 l 899 0 q 888 51 897 24 q 858 79 879 79 q 833 74 849 79 q 783 50 817 69 q 675 1 732 21 q 556 -19 618 -19 q 283 40 394 -19 q 116 212 172 100 q 60 481 60 324 q 124 756 60 639 q 302 938 189 872 q 563 1003 415 1003 m 821 1272 l 838 1257 q 778 1171 818 1214 q 675 1099 738 1128 q 528 1071 613 1071 q 381 1099 443 1071 q 278 1171 318 1128 q 218 1257 238 1214 l 235 1271 q 344 1215 272 1243 q 528 1188 415 1188 q 712 1215 640 1188 q 821 1272 783 1243 z "},"Ǧ":{"ha":1021,"x_min":60,"x_max":989,"o":"m 563 1003 q 717 976 657 1003 q 824 913 776 950 q 851 900 840 900 q 886 983 878 900 l 918 983 q 914 852 915 929 q 913 647 913 775 l 881 647 q 851 792 871 731 q 776 899 831 854 q 694 949 743 931 q 594 967 644 967 q 464 927 518 967 q 375 819 410 888 q 324 666 340 751 q 307 489 307 581 q 376 124 307 239 q 574 8 444 8 q 632 17 607 8 q 672 36 657 25 q 699 66 692 50 q 706 108 706 82 l 706 244 q 695 340 706 308 q 654 382 685 371 q 565 394 624 393 l 565 422 q 635 420 594 421 q 721 419 676 419 q 803 418 765 418 q 910 419 861 418 q 989 422 958 421 l 989 394 q 949 385 963 393 q 931 351 936 376 q 926 275 926 326 l 926 0 l 899 0 q 888 51 897 24 q 858 79 879 79 q 833 74 849 79 q 783 50 817 69 q 675 1 732 21 q 556 -19 618 -19 q 283 40 394 -19 q 116 212 172 100 q 60 481 60 324 q 124 756 60 639 q 302 938 189 872 q 563 1003 415 1003 m 822 1303 l 829 1282 q 663 1185 739 1244 q 544 1065 588 1126 l 519 1065 q 402 1185 478 1126 q 235 1282 326 1244 l 242 1303 q 420 1263 332 1288 q 560 1213 508 1238 q 676 1263 603 1238 q 822 1303 749 1288 z "},"Ĝ":{"ha":1021,"x_min":60,"x_max":989,"o":"m 563 1003 q 717 976 657 1003 q 824 913 776 950 q 851 900 840 900 q 886 983 878 900 l 918 983 q 914 852 915 929 q 913 647 913 775 l 881 647 q 851 792 871 731 q 776 899 831 854 q 694 949 743 931 q 594 967 644 967 q 464 927 518 967 q 375 819 410 888 q 324 666 340 751 q 307 489 307 581 q 376 124 307 239 q 574 8 444 8 q 632 17 607 8 q 672 36 657 25 q 699 66 692 50 q 706 108 706 82 l 706 244 q 695 340 706 308 q 654 382 685 371 q 565 394 624 393 l 565 422 q 635 420 594 421 q 721 419 676 419 q 803 418 765 418 q 910 419 861 418 q 989 422 958 421 l 989 394 q 949 385 963 393 q 931 351 936 376 q 926 275 926 326 l 926 0 l 899 0 q 888 51 897 24 q 858 79 879 79 q 833 74 849 79 q 783 50 817 69 q 675 1 732 21 q 556 -19 618 -19 q 283 40 394 -19 q 116 212 172 100 q 60 481 60 324 q 124 756 60 639 q 302 938 189 872 q 563 1003 415 1003 m 549 1306 q 666 1187 590 1246 q 833 1089 742 1128 l 826 1068 q 648 1110 736 1085 q 508 1158 560 1135 q 392 1110 465 1135 q 246 1068 319 1085 l 239 1089 q 405 1186 329 1128 q 524 1306 481 1244 l 549 1306 z "},"Ģ":{"ha":1021,"x_min":60,"x_max":989,"o":"m 563 1003 q 717 976 657 1003 q 824 913 776 950 q 851 900 840 900 q 886 983 878 900 l 918 983 q 914 852 915 929 q 913 647 913 775 l 881 647 q 851 792 871 731 q 776 899 831 854 q 694 949 743 931 q 594 967 644 967 q 464 927 518 967 q 375 819 410 888 q 324 666 340 751 q 307 489 307 581 q 376 124 307 239 q 574 8 444 8 q 632 17 607 8 q 672 36 657 25 q 699 66 692 50 q 706 108 706 82 l 706 244 q 695 340 706 308 q 654 382 685 371 q 565 394 624 393 l 565 422 q 635 420 594 421 q 721 419 676 419 q 803 418 765 418 q 910 419 861 418 q 989 422 958 421 l 989 394 q 949 385 963 393 q 931 351 936 376 q 926 275 926 326 l 926 0 l 899 0 q 888 51 897 24 q 858 79 879 79 q 833 74 849 79 q 783 50 817 69 q 675 1 732 21 q 556 -19 618 -19 q 283 40 394 -19 q 116 212 172 100 q 60 481 60 324 q 124 756 60 639 q 302 938 189 872 q 563 1003 415 1003 m 553 -76 q 635 -105 603 -76 q 667 -183 667 -133 q 628 -285 667 -244 q 508 -337 590 -326 l 503 -308 q 581 -283 551 -301 q 614 -232 610 -264 q 588 -248 604 -242 q 546 -254 571 -254 q 474 -231 501 -254 q 447 -167 447 -208 q 476 -100 447 -124 q 553 -76 504 -76 z "},"Ġ":{"ha":1021,"x_min":60,"x_max":989,"o":"m 563 1003 q 717 976 657 1003 q 824 913 776 950 q 851 900 840 900 q 886 983 878 900 l 918 983 q 914 852 915 929 q 913 647 913 775 l 881 647 q 851 792 871 731 q 776 899 831 854 q 694 949 743 931 q 594 967 644 967 q 464 927 518 967 q 375 819 410 888 q 324 666 340 751 q 307 489 307 581 q 376 124 307 239 q 574 8 444 8 q 632 17 607 8 q 672 36 657 25 q 699 66 692 50 q 706 108 706 82 l 706 244 q 695 340 706 308 q 654 382 685 371 q 565 394 624 393 l 565 422 q 635 420 594 421 q 721 419 676 419 q 803 418 765 418 q 910 419 861 418 q 989 422 958 421 l 989 394 q 949 385 963 393 q 931 351 936 376 q 926 275 926 326 l 926 0 l 899 0 q 888 51 897 24 q 858 79 879 79 q 833 74 849 79 q 783 50 817 69 q 675 1 732 21 q 556 -19 618 -19 q 283 40 394 -19 q 116 212 172 100 q 60 481 60 324 q 124 756 60 639 q 302 938 189 872 q 563 1003 415 1003 m 549 1276 q 634 1248 601 1276 q 667 1169 667 1219 q 634 1091 667 1119 q 549 1063 601 1063 q 463 1091 494 1063 q 431 1169 431 1119 q 463 1248 431 1219 q 549 1276 494 1276 z "},"Ǥ":{"ha":1021,"x_min":60,"x_max":1021,"o":"m 563 1003 q 717 976 657 1003 q 824 913 776 950 q 851 900 840 900 q 886 983 878 900 l 918 983 q 914 852 915 929 q 913 647 913 775 l 881 647 q 851 792 871 731 q 776 899 831 854 q 694 949 743 931 q 594 967 644 967 q 464 927 518 967 q 375 819 410 888 q 324 666 340 751 q 307 489 307 581 q 376 124 307 239 q 574 8 444 8 q 632 17 607 8 q 672 36 657 25 q 699 66 692 50 q 706 108 706 82 l 706 281 q 695 376 706 344 q 654 418 685 407 q 565 431 624 429 l 565 458 q 635 456 594 457 q 721 455 676 456 q 803 454 765 454 q 910 456 861 454 q 989 458 958 457 l 989 431 q 949 421 963 429 q 931 388 936 413 q 926 311 926 363 l 926 0 l 899 0 q 888 51 897 24 q 858 79 879 79 q 833 74 849 79 q 783 50 817 69 q 675 1 732 21 q 556 -19 618 -19 q 283 40 394 -19 q 116 212 172 100 q 60 481 60 324 q 124 756 60 639 q 302 938 189 872 q 563 1003 415 1003 m 553 242 l 553 269 l 1021 269 l 1021 242 l 553 242 z "},"H":{"ha":1111,"x_min":47,"x_max":1065,"o":"m 636 0 l 636 28 q 703 39 681 31 q 733 72 725 47 q 740 147 740 97 l 740 836 q 733 912 740 888 q 702 945 725 936 q 636 956 679 954 l 636 983 q 734 981 674 982 q 854 979 794 979 q 974 981 918 979 q 1065 983 1031 982 l 1065 956 q 998 945 1021 954 q 968 912 975 936 q 961 836 961 888 l 961 147 q 969 72 961 97 q 999 39 976 47 q 1065 28 1021 31 l 1065 0 q 974 3 1031 3 q 854 4 918 4 q 734 3 794 4 q 636 0 674 3 m 47 0 l 47 28 q 114 39 92 31 q 144 72 136 47 q 151 147 151 97 l 151 836 q 144 912 151 888 q 113 945 136 936 q 47 956 90 954 l 47 983 q 141 981 83 982 q 267 979 199 979 q 382 981 325 979 q 476 983 439 982 l 476 956 q 409 945 432 954 q 379 912 386 936 q 372 836 372 888 l 372 147 q 380 72 372 97 q 410 39 388 47 q 476 28 432 31 l 476 0 q 382 3 439 3 q 267 4 325 4 q 141 3 199 4 q 47 0 83 3 m 282 481 l 282 508 l 831 508 l 831 481 l 282 481 z "},"Ħ":{"ha":1111,"x_min":47,"x_max":1065,"o":"m 636 0 l 636 28 q 703 39 681 31 q 733 72 725 47 q 740 147 740 97 l 740 836 q 733 912 740 888 q 702 945 725 936 q 636 956 679 954 l 636 983 q 734 981 674 982 q 854 979 794 979 q 974 981 918 979 q 1065 983 1031 982 l 1065 956 q 998 945 1021 954 q 968 912 975 936 q 961 836 961 888 l 961 147 q 969 72 961 97 q 999 39 976 47 q 1065 28 1021 31 l 1065 0 q 974 3 1031 3 q 854 4 918 4 q 734 3 794 4 q 636 0 674 3 m 47 0 l 47 28 q 114 39 92 31 q 144 72 136 47 q 151 147 151 97 l 151 836 q 144 912 151 888 q 113 945 136 936 q 47 956 90 954 l 47 983 q 141 981 83 982 q 267 979 199 979 q 382 981 325 979 q 476 983 439 982 l 476 956 q 409 945 432 954 q 379 912 386 936 q 372 836 372 888 l 372 147 q 380 72 372 97 q 410 39 388 47 q 476 28 432 31 l 476 0 q 382 3 439 3 q 267 4 325 4 q 141 3 199 4 q 47 0 83 3 m 282 481 l 282 508 l 831 508 l 831 481 l 282 481 m 1065 740 l 1065 713 l 47 713 l 47 740 l 1065 740 z "},"Ȟ":{"ha":1111,"x_min":47,"x_max":1065,"o":"m 636 0 l 636 28 q 703 39 681 31 q 733 72 725 47 q 740 147 740 97 l 740 836 q 733 912 740 888 q 702 945 725 936 q 636 956 679 954 l 636 983 q 734 981 674 982 q 854 979 794 979 q 974 981 918 979 q 1065 983 1031 982 l 1065 956 q 998 945 1021 954 q 968 912 975 936 q 961 836 961 888 l 961 147 q 969 72 961 97 q 999 39 976 47 q 1065 28 1021 31 l 1065 0 q 974 3 1031 3 q 854 4 918 4 q 734 3 794 4 q 636 0 674 3 m 47 0 l 47 28 q 114 39 92 31 q 144 72 136 47 q 151 147 151 97 l 151 836 q 144 912 151 888 q 113 945 136 936 q 47 956 90 954 l 47 983 q 141 981 83 982 q 267 979 199 979 q 382 981 325 979 q 476 983 439 982 l 476 956 q 409 945 432 954 q 379 912 386 936 q 372 836 372 888 l 372 147 q 380 72 372 97 q 410 39 388 47 q 476 28 432 31 l 476 0 q 382 3 439 3 q 267 4 325 4 q 141 3 199 4 q 47 0 83 3 m 282 481 l 282 508 l 831 508 l 831 481 l 282 481 m 846 1303 l 853 1282 q 687 1185 763 1244 q 568 1065 611 1126 l 543 1065 q 426 1185 501 1126 q 258 1282 350 1244 l 265 1303 q 444 1263 356 1288 q 583 1213 532 1238 q 699 1263 626 1238 q 846 1303 772 1288 z "},"Ĥ":{"ha":1111,"x_min":47,"x_max":1065,"o":"m 636 0 l 636 28 q 703 39 681 31 q 733 72 725 47 q 740 147 740 97 l 740 836 q 733 912 740 888 q 702 945 725 936 q 636 956 679 954 l 636 983 q 734 981 674 982 q 854 979 794 979 q 974 981 918 979 q 1065 983 1031 982 l 1065 956 q 998 945 1021 954 q 968 912 975 936 q 961 836 961 888 l 961 147 q 969 72 961 97 q 999 39 976 47 q 1065 28 1021 31 l 1065 0 q 974 3 1031 3 q 854 4 918 4 q 734 3 794 4 q 636 0 674 3 m 47 0 l 47 28 q 114 39 92 31 q 144 72 136 47 q 151 147 151 97 l 151 836 q 144 912 151 888 q 113 945 136 936 q 47 956 90 954 l 47 983 q 141 981 83 982 q 267 979 199 979 q 382 981 325 979 q 476 983 439 982 l 476 956 q 409 945 432 954 q 379 912 386 936 q 372 836 372 888 l 372 147 q 380 72 372 97 q 410 39 388 47 q 476 28 432 31 l 476 0 q 382 3 439 3 q 267 4 325 4 q 141 3 199 4 q 47 0 83 3 m 282 481 l 282 508 l 831 508 l 831 481 l 282 481 m 572 1306 q 690 1187 614 1246 q 857 1089 765 1128 l 850 1068 q 672 1110 760 1085 q 532 1158 583 1135 q 416 1110 489 1135 q 269 1068 343 1085 l 263 1089 q 428 1186 353 1128 q 547 1306 504 1244 l 572 1306 z "},"I":{"ha":522,"x_min":47,"x_max":476,"o":"m 476 983 l 476 956 q 409 945 432 954 q 379 912 386 936 q 372 836 372 888 l 372 147 q 380 72 372 97 q 410 39 388 47 q 476 28 432 31 l 476 0 q 382 3 439 3 q 267 4 325 4 q 141 3 199 4 q 47 0 83 3 l 47 28 q 114 39 92 31 q 144 72 136 47 q 151 147 151 97 l 151 836 q 144 912 151 888 q 113 945 136 936 q 47 956 90 954 l 47 983 q 141 981 83 982 q 267 979 199 979 q 382 981 325 979 q 476 983 439 982 z "},"Ĳ":{"ha":1025,"x_min":47,"x_max":986,"o":"m 476 983 l 476 956 q 409 945 432 954 q 379 912 386 936 q 372 836 372 888 l 372 147 q 380 72 372 97 q 410 39 388 47 q 476 28 432 31 l 476 0 q 382 3 439 3 q 267 4 325 4 q 141 3 199 4 q 47 0 83 3 l 47 28 q 114 39 92 31 q 144 72 136 47 q 151 147 151 97 l 151 836 q 144 912 151 888 q 113 945 136 936 q 47 956 90 954 l 47 983 q 141 981 83 982 q 267 979 199 979 q 382 981 325 979 q 476 983 439 982 m 486 -261 l 486 -233 q 581 -201 542 -228 q 640 -108 619 -174 q 661 75 661 -43 l 661 836 q 653 912 661 888 q 624 945 646 936 q 557 956 601 954 l 557 983 q 648 981 592 982 q 767 979 704 979 q 888 981 829 979 q 986 983 947 982 l 986 956 q 920 945 943 954 q 890 912 897 936 q 882 836 882 888 l 882 328 q 882 205 882 271 q 877 76 882 139 q 858 -35 872 14 q 738 -196 831 -131 q 486 -261 646 -261 z "},"Í":{"ha":522,"x_min":47,"x_max":515,"o":"m 476 983 l 476 956 q 409 945 432 954 q 379 912 386 936 q 372 836 372 888 l 372 147 q 380 72 372 97 q 410 39 388 47 q 476 28 432 31 l 476 0 q 382 3 439 3 q 267 4 325 4 q 141 3 199 4 q 47 0 83 3 l 47 28 q 114 39 92 31 q 144 72 136 47 q 151 147 151 97 l 151 836 q 144 912 151 888 q 113 945 136 936 q 47 956 90 954 l 47 983 q 141 981 83 982 q 267 979 199 979 q 382 981 325 979 q 476 983 439 982 m 390 1297 q 453 1306 419 1314 q 503 1267 488 1299 q 506 1211 517 1240 q 464 1164 496 1182 q 396 1138 433 1147 q 306 1115 358 1129 q 175 1072 253 1101 l 165 1089 q 269 1183 232 1143 q 332 1252 306 1224 q 390 1297 358 1281 z "},"Ĭ":{"ha":522,"x_min":-51,"x_max":568,"o":"m 476 983 l 476 956 q 409 945 432 954 q 379 912 386 936 q 372 836 372 888 l 372 147 q 380 72 372 97 q 410 39 388 47 q 476 28 432 31 l 476 0 q 382 3 439 3 q 267 4 325 4 q 141 3 199 4 q 47 0 83 3 l 47 28 q 114 39 92 31 q 144 72 136 47 q 151 147 151 97 l 151 836 q 144 912 151 888 q 113 945 136 936 q 47 956 90 954 l 47 983 q 141 981 83 982 q 267 979 199 979 q 382 981 325 979 q 476 983 439 982 m 551 1272 l 568 1257 q 508 1171 549 1214 q 406 1099 468 1128 q 258 1071 343 1071 q 111 1099 174 1071 q 8 1171 49 1128 q -51 1257 -32 1214 l -35 1271 q 74 1215 3 1243 q 258 1188 146 1188 q 442 1215 371 1188 q 551 1272 514 1243 z "},"Î":{"ha":522,"x_min":-31,"x_max":564,"o":"m 476 983 l 476 956 q 409 945 432 954 q 379 912 386 936 q 372 836 372 888 l 372 147 q 380 72 372 97 q 410 39 388 47 q 476 28 432 31 l 476 0 q 382 3 439 3 q 267 4 325 4 q 141 3 199 4 q 47 0 83 3 l 47 28 q 114 39 92 31 q 144 72 136 47 q 151 147 151 97 l 151 836 q 144 912 151 888 q 113 945 136 936 q 47 956 90 954 l 47 983 q 141 981 83 982 q 267 979 199 979 q 382 981 325 979 q 476 983 439 982 m 279 1306 q 397 1187 321 1246 q 564 1089 472 1128 l 557 1068 q 378 1110 467 1085 q 239 1158 290 1135 q 123 1110 196 1135 q -24 1068 50 1085 l -31 1089 q 135 1186 60 1128 q 254 1306 211 1244 l 279 1306 z "},"Ï":{"ha":522,"x_min":-6,"x_max":538,"o":"m 476 983 l 476 956 q 409 945 432 954 q 379 912 386 936 q 372 836 372 888 l 372 147 q 380 72 372 97 q 410 39 388 47 q 476 28 432 31 l 476 0 q 382 3 439 3 q 267 4 325 4 q 141 3 199 4 q 47 0 83 3 l 47 28 q 114 39 92 31 q 144 72 136 47 q 151 147 151 97 l 151 836 q 144 912 151 888 q 113 945 136 936 q 47 956 90 954 l 47 983 q 141 981 83 982 q 267 979 199 979 q 382 981 325 979 q 476 983 439 982 m 433 1274 q 506 1242 475 1274 q 538 1168 538 1210 q 506 1094 538 1125 q 433 1064 475 1064 q 359 1094 390 1064 q 328 1169 328 1125 q 359 1242 328 1211 q 433 1274 390 1274 m 100 1274 q 174 1242 142 1274 q 206 1168 206 1210 q 174 1094 206 1125 q 100 1064 142 1064 q 26 1094 57 1064 q -4 1169 -4 1125 q 26 1242 -4 1211 q 100 1274 57 1274 z "},"İ":{"ha":522,"x_min":47,"x_max":476,"o":"m 476 983 l 476 956 q 409 945 432 954 q 379 912 386 936 q 372 836 372 888 l 372 147 q 380 72 372 97 q 410 39 388 47 q 476 28 432 31 l 476 0 q 382 3 439 3 q 267 4 325 4 q 141 3 199 4 q 47 0 83 3 l 47 28 q 114 39 92 31 q 144 72 136 47 q 151 147 151 97 l 151 836 q 144 912 151 888 q 113 945 136 936 q 47 956 90 954 l 47 983 q 141 981 83 982 q 267 979 199 979 q 382 981 325 979 q 476 983 439 982 m 267 1342 q 359 1313 325 1342 q 393 1235 393 1285 q 359 1156 393 1185 q 267 1128 325 1128 q 174 1156 208 1128 q 140 1235 140 1185 q 174 1313 140 1285 q 267 1342 208 1342 z "},"Ị":{"ha":522,"x_min":47,"x_max":476,"o":"m 476 983 l 476 956 q 409 945 432 954 q 379 912 386 936 q 372 836 372 888 l 372 147 q 380 72 372 97 q 410 39 388 47 q 476 28 432 31 l 476 0 q 382 3 439 3 q 267 4 325 4 q 141 3 199 4 q 47 0 83 3 l 47 28 q 114 39 92 31 q 144 72 136 47 q 151 147 151 97 l 151 836 q 144 912 151 888 q 113 945 136 936 q 47 956 90 954 l 47 983 q 141 981 83 982 q 267 979 199 979 q 382 981 325 979 q 476 983 439 982 m 264 -260 q 190 -236 218 -260 q 161 -168 161 -212 q 189 -101 161 -126 q 267 -76 217 -76 q 343 -101 317 -76 q 369 -168 369 -125 q 341 -235 369 -211 q 264 -260 313 -260 z "},"Ì":{"ha":522,"x_min":8,"x_max":476,"o":"m 476 983 l 476 956 q 409 945 432 954 q 379 912 386 936 q 372 836 372 888 l 372 147 q 380 72 372 97 q 410 39 388 47 q 476 28 432 31 l 476 0 q 382 3 439 3 q 267 4 325 4 q 141 3 199 4 q 47 0 83 3 l 47 28 q 114 39 92 31 q 144 72 136 47 q 151 147 151 97 l 151 836 q 144 912 151 888 q 113 945 136 936 q 47 956 90 954 l 47 983 q 141 981 83 982 q 267 979 199 979 q 382 981 325 979 q 476 983 439 982 m 135 1297 q 193 1252 167 1281 q 257 1183 219 1224 q 360 1089 294 1143 l 350 1072 q 220 1115 274 1101 q 129 1138 167 1129 q 61 1164 92 1147 q 19 1211 29 1182 q 22 1267 8 1240 q 72 1306 39 1299 q 135 1297 106 1314 z "},"Ỉ":{"ha":522,"x_min":47,"x_max":476,"o":"m 476 983 l 476 956 q 409 945 432 954 q 379 912 386 936 q 372 836 372 888 l 372 147 q 380 72 372 97 q 410 39 388 47 q 476 28 432 31 l 476 0 q 382 3 439 3 q 267 4 325 4 q 141 3 199 4 q 47 0 83 3 l 47 28 q 114 39 92 31 q 144 72 136 47 q 151 147 151 97 l 151 836 q 144 912 151 888 q 113 945 136 936 q 47 956 90 954 l 47 983 q 141 981 83 982 q 267 979 199 979 q 382 981 325 979 q 476 983 439 982 m 244 1058 l 244 1135 q 316 1185 296 1157 q 336 1243 336 1213 q 305 1307 336 1286 q 231 1328 274 1328 q 192 1323 210 1328 q 165 1310 174 1318 q 209 1284 193 1301 q 225 1238 225 1267 q 203 1185 225 1204 q 150 1165 182 1165 q 97 1185 117 1165 q 76 1238 76 1206 q 94 1290 76 1268 q 132 1325 111 1313 q 190 1347 157 1339 q 267 1356 222 1356 q 365 1344 321 1356 q 438 1308 410 1332 q 465 1250 465 1285 q 440 1192 465 1218 q 370 1149 414 1167 q 272 1122 326 1132 l 272 1058 l 244 1058 z "},"Ī":{"ha":522,"x_min":-11,"x_max":544,"o":"m 476 983 l 476 956 q 409 945 432 954 q 379 912 386 936 q 372 836 372 888 l 372 147 q 380 72 372 97 q 410 39 388 47 q 476 28 432 31 l 476 0 q 382 3 439 3 q 267 4 325 4 q 141 3 199 4 q 47 0 83 3 l 47 28 q 114 39 92 31 q 144 72 136 47 q 151 147 151 97 l 151 836 q 144 912 151 888 q 113 945 136 936 q 47 956 90 954 l 47 983 q 141 981 83 982 q 267 979 199 979 q 382 981 325 979 q 476 983 439 982 m 544 1172 l 544 1138 l -11 1138 l -11 1172 l 544 1172 z "},"Į":{"ha":522,"x_min":47,"x_max":476,"o":"m 476 983 l 476 956 q 409 945 432 954 q 379 912 386 936 q 372 836 372 888 l 372 147 q 380 72 372 97 q 410 39 388 47 q 476 28 432 31 l 476 0 q 382 3 439 3 q 267 4 325 4 q 141 3 199 4 q 47 0 83 3 l 47 28 q 114 39 92 31 q 144 72 136 47 q 151 147 151 97 l 151 836 q 144 912 151 888 q 113 945 136 936 q 47 956 90 954 l 47 983 q 141 981 83 982 q 267 979 199 979 q 382 981 325 979 q 476 983 439 982 m 460 4 q 342 -59 376 -22 q 308 -128 308 -96 q 324 -170 308 -156 q 367 -185 339 -185 q 415 -174 390 -185 q 456 -147 440 -162 l 474 -167 q 392 -239 438 -217 q 283 -261 346 -261 q 190 -235 224 -261 q 157 -165 157 -210 q 224 -64 157 -107 q 407 4 290 -21 l 460 4 z "},"Ĩ":{"ha":522,"x_min":-42,"x_max":571,"o":"m 476 983 l 476 956 q 409 945 432 954 q 379 912 386 936 q 372 836 372 888 l 372 147 q 380 72 372 97 q 410 39 388 47 q 476 28 432 31 l 476 0 q 382 3 439 3 q 267 4 325 4 q 141 3 199 4 q 47 0 83 3 l 47 28 q 114 39 92 31 q 144 72 136 47 q 151 147 151 97 l 151 836 q 144 912 151 888 q 113 945 136 936 q 47 956 90 954 l 47 983 q 141 981 83 982 q 267 979 199 979 q 382 981 325 979 q 476 983 439 982 m 144 1283 q 230 1268 193 1283 q 298 1233 267 1253 q 362 1199 329 1214 q 436 1185 394 1185 q 499 1202 469 1185 q 551 1260 528 1219 l 571 1253 q 501 1112 553 1157 q 386 1067 449 1067 q 301 1081 338 1067 q 232 1116 264 1096 q 167 1151 200 1136 q 93 1165 135 1165 q 31 1148 60 1165 q -22 1089 1 1131 l -42 1096 q 30 1238 -22 1193 q 144 1283 82 1283 z "},"J":{"ha":506,"x_min":-32,"x_max":468,"o":"m -32 -261 l -32 -233 q 63 -201 24 -228 q 122 -108 101 -174 q 143 75 143 -43 l 143 836 q 135 912 143 888 q 106 945 128 936 q 39 956 83 954 l 39 983 q 130 981 74 982 q 249 979 186 979 q 370 981 311 979 q 468 983 429 982 l 468 956 q 402 945 425 954 q 372 912 379 936 q 364 836 364 888 l 364 328 q 364 205 364 271 q 359 76 364 139 q 340 -35 354 14 q 220 -196 313 -131 q -32 -261 128 -261 z "},"Ĵ":{"ha":506,"x_min":-47,"x_max":547,"o":"m -32 -261 l -32 -233 q 63 -201 24 -228 q 122 -108 101 -174 q 143 75 143 -43 l 143 836 q 135 912 143 888 q 106 945 128 936 q 39 956 83 954 l 39 983 q 130 981 74 982 q 249 979 186 979 q 370 981 311 979 q 468 983 429 982 l 468 956 q 402 945 425 954 q 372 912 379 936 q 364 836 364 888 l 364 328 q 364 205 364 271 q 359 76 364 139 q 340 -35 354 14 q 220 -196 313 -131 q -32 -261 128 -261 m 263 1306 q 380 1187 304 1246 q 547 1089 456 1128 l 540 1068 q 362 1110 450 1085 q 222 1158 274 1135 q 106 1110 179 1135 q -40 1068 33 1085 l -47 1089 q 119 1186 43 1128 q 238 1306 194 1244 l 263 1306 z "},"K":{"ha":992,"x_min":47,"x_max":1006,"o":"m 957 983 l 957 957 q 862 918 913 947 q 756 824 811 889 l 494 513 l 575 628 l 906 113 q 947 61 925 81 q 1006 28 969 42 l 1006 0 q 897 3 957 3 q 789 4 838 4 q 718 3 760 4 q 613 0 676 3 l 613 28 q 681 44 669 31 q 671 90 693 57 l 469 417 q 435 465 450 449 q 404 487 419 481 q 364 494 389 493 l 364 524 q 473 557 425 525 q 578 654 521 589 l 660 753 q 722 860 713 815 q 703 931 731 906 q 621 957 676 956 l 621 983 q 687 981 656 982 q 752 980 718 981 q 826 979 786 979 q 899 981 867 979 q 957 983 932 982 m 476 983 l 476 956 q 409 945 432 954 q 379 912 386 936 q 372 836 372 888 l 372 147 q 380 72 372 97 q 410 39 388 47 q 476 28 432 31 l 476 0 q 382 3 439 3 q 267 4 325 4 q 141 3 200 4 q 47 0 82 3 l 47 28 q 114 39 92 31 q 144 72 136 47 q 151 147 151 97 l 151 836 q 144 912 151 888 q 113 945 136 936 q 47 956 90 954 l 47 983 q 141 981 82 982 q 267 979 200 979 q 382 981 325 979 q 476 983 439 982 z "},"Ǩ":{"ha":992,"x_min":47,"x_max":1006,"o":"m 957 983 l 957 957 q 862 918 913 947 q 756 824 811 889 l 494 513 l 575 628 l 906 113 q 947 61 925 81 q 1006 28 969 42 l 1006 0 q 897 3 957 3 q 789 4 838 4 q 718 3 760 4 q 613 0 676 3 l 613 28 q 681 44 669 31 q 671 90 693 57 l 469 417 q 435 465 450 449 q 404 487 419 481 q 364 494 389 493 l 364 524 q 473 557 425 525 q 578 654 521 589 l 660 753 q 722 860 713 815 q 703 931 731 906 q 621 957 676 956 l 621 983 q 687 981 656 982 q 752 980 718 981 q 826 979 786 979 q 899 981 867 979 q 957 983 932 982 m 476 983 l 476 956 q 409 945 432 954 q 379 912 386 936 q 372 836 372 888 l 372 147 q 380 72 372 97 q 410 39 388 47 q 476 28 432 31 l 476 0 q 382 3 439 3 q 267 4 325 4 q 141 3 200 4 q 47 0 82 3 l 47 28 q 114 39 92 31 q 144 72 136 47 q 151 147 151 97 l 151 836 q 144 912 151 888 q 113 945 136 936 q 47 956 90 954 l 47 983 q 141 981 82 982 q 267 979 200 979 q 382 981 325 979 q 476 983 439 982 m 838 1303 l 844 1282 q 678 1185 754 1244 q 560 1065 603 1126 l 535 1065 q 417 1185 493 1126 q 250 1282 342 1244 l 257 1303 q 435 1263 347 1288 q 575 1213 524 1238 q 691 1263 618 1238 q 838 1303 764 1288 z "},"Ķ":{"ha":992,"x_min":47,"x_max":1006,"o":"m 957 983 l 957 957 q 862 918 913 947 q 756 824 811 889 l 494 513 l 575 628 l 906 113 q 947 61 925 81 q 1006 28 969 42 l 1006 0 q 897 3 957 3 q 789 4 838 4 q 718 3 760 4 q 613 0 676 3 l 613 28 q 681 44 669 31 q 671 90 693 57 l 469 417 q 435 465 450 449 q 404 487 419 481 q 364 494 389 493 l 364 524 q 473 557 425 525 q 578 654 521 589 l 660 753 q 722 860 713 815 q 703 931 731 906 q 621 957 676 956 l 621 983 q 687 981 656 982 q 752 980 718 981 q 826 979 786 979 q 899 981 867 979 q 957 983 932 982 m 476 983 l 476 956 q 409 945 432 954 q 379 912 386 936 q 372 836 372 888 l 372 147 q 380 72 372 97 q 410 39 388 47 q 476 28 432 31 l 476 0 q 382 3 439 3 q 267 4 325 4 q 141 3 200 4 q 47 0 82 3 l 47 28 q 114 39 92 31 q 144 72 136 47 q 151 147 151 97 l 151 836 q 144 912 151 888 q 113 945 136 936 q 47 956 90 954 l 47 983 q 141 981 82 982 q 267 979 200 979 q 382 981 325 979 q 476 983 439 982 m 547 -76 q 629 -105 597 -76 q 661 -183 661 -133 q 623 -285 661 -244 q 503 -337 585 -326 l 497 -308 q 575 -283 546 -301 q 608 -232 604 -264 q 582 -248 599 -242 q 540 -254 565 -254 q 469 -231 496 -254 q 442 -167 442 -208 q 470 -100 442 -124 q 547 -76 499 -76 z "},"L":{"ha":849,"x_min":47,"x_max":818,"o":"m 485 983 l 485 956 q 413 945 438 954 q 381 912 389 936 q 372 836 372 888 l 372 131 q 378 67 372 88 q 403 39 385 46 q 460 32 422 32 l 528 32 q 617 54 575 32 q 692 117 658 76 q 747 215 725 158 q 781 342 769 272 l 813 342 q 808 219 808 294 q 810 126 808 188 q 818 0 811 65 q 658 3 747 3 q 500 4 569 4 q 411 4 465 4 q 294 3 357 4 q 168 2 232 3 q 47 0 104 1 l 47 28 q 114 39 92 31 q 144 72 136 47 q 151 147 151 97 l 151 836 q 144 912 151 888 q 113 945 136 936 q 47 956 90 954 l 47 983 q 141 981 82 982 q 267 979 200 979 q 387 981 328 979 q 485 983 446 982 z "},"Ĺ":{"ha":849,"x_min":47,"x_max":818,"o":"m 485 983 l 485 956 q 413 945 438 954 q 381 912 389 936 q 372 836 372 888 l 372 131 q 378 67 372 88 q 403 39 385 46 q 460 32 422 32 l 528 32 q 617 54 575 32 q 692 117 658 76 q 747 215 725 158 q 781 342 769 272 l 813 342 q 808 219 808 294 q 810 126 808 188 q 818 0 811 65 q 658 3 747 3 q 500 4 569 4 q 411 4 465 4 q 294 3 357 4 q 168 2 232 3 q 47 0 104 1 l 47 28 q 114 39 92 31 q 144 72 136 47 q 151 147 151 97 l 151 836 q 144 912 151 888 q 113 945 136 936 q 47 956 90 954 l 47 983 q 141 981 82 982 q 267 979 200 979 q 387 981 328 979 q 485 983 446 982 m 390 1297 q 453 1306 419 1314 q 503 1267 488 1299 q 506 1211 517 1240 q 464 1164 496 1182 q 396 1138 433 1147 q 306 1115 358 1129 q 175 1072 253 1101 l 165 1089 q 269 1183 232 1143 q 332 1252 306 1224 q 390 1297 358 1281 z "},"Ľ":{"ha":849,"x_min":47,"x_max":818,"o":"m 485 983 l 485 956 q 413 945 438 954 q 381 912 389 936 q 372 836 372 888 l 372 131 q 378 67 372 88 q 403 39 385 46 q 460 32 422 32 l 528 32 q 617 54 575 32 q 692 117 658 76 q 747 215 725 158 q 781 342 769 272 l 813 342 q 808 219 808 294 q 810 126 808 188 q 818 0 811 65 q 658 3 747 3 q 500 4 569 4 q 411 4 465 4 q 294 3 357 4 q 168 2 232 3 q 47 0 104 1 l 47 28 q 114 39 92 31 q 144 72 136 47 q 151 147 151 97 l 151 836 q 144 912 151 888 q 113 945 136 936 q 47 956 90 954 l 47 983 q 141 981 82 982 q 267 979 200 979 q 387 981 328 979 q 485 983 446 982 m 757 992 q 762 969 760 985 q 764 942 764 954 q 719 831 764 897 q 601 664 675 764 l 582 669 q 604 827 599 776 q 610 899 610 878 q 602 940 610 926 q 568 954 594 954 l 568 983 q 677 981 636 978 q 757 992 718 985 z "},"Ļ":{"ha":849,"x_min":47,"x_max":818,"o":"m 485 983 l 485 956 q 413 945 438 954 q 381 912 389 936 q 372 836 372 888 l 372 131 q 378 67 372 88 q 403 39 385 46 q 460 32 422 32 l 528 32 q 617 54 575 32 q 692 117 658 76 q 747 215 725 158 q 781 342 769 272 l 813 342 q 808 219 808 294 q 810 126 808 188 q 818 0 811 65 q 658 3 747 3 q 500 4 569 4 q 411 4 465 4 q 294 3 357 4 q 168 2 232 3 q 47 0 104 1 l 47 28 q 114 39 92 31 q 144 72 136 47 q 151 147 151 97 l 151 836 q 144 912 151 888 q 113 945 136 936 q 47 956 90 954 l 47 983 q 141 981 82 982 q 267 979 200 979 q 387 981 328 979 q 485 983 446 982 m 486 -76 q 568 -105 536 -76 q 600 -183 600 -133 q 562 -285 600 -244 q 442 -337 524 -326 l 436 -308 q 514 -283 485 -301 q 547 -232 543 -264 q 521 -248 538 -242 q 479 -254 504 -254 q 408 -231 435 -254 q 381 -167 381 -208 q 409 -100 381 -124 q 486 -76 438 -76 z "},"Ŀ":{"ha":849,"x_min":47,"x_max":818,"o":"m 485 983 l 485 956 q 413 945 438 954 q 381 912 389 936 q 372 836 372 888 l 372 131 q 378 67 372 88 q 403 39 385 46 q 460 32 422 32 l 528 32 q 617 54 575 32 q 692 117 658 76 q 747 215 725 158 q 781 342 769 272 l 813 342 q 808 219 808 294 q 810 126 808 188 q 818 0 811 65 q 658 3 747 3 q 500 4 569 4 q 411 4 465 4 q 294 3 357 4 q 168 2 232 3 q 47 0 104 1 l 47 28 q 114 39 92 31 q 144 72 136 47 q 151 147 151 97 l 151 836 q 144 912 151 888 q 113 945 136 936 q 47 956 90 954 l 47 983 q 141 981 82 982 q 267 979 200 979 q 387 981 328 979 q 485 983 446 982 m 685 713 q 771 684 739 713 q 803 606 803 656 q 771 527 803 556 q 685 499 739 499 q 599 527 631 499 q 567 606 567 556 q 599 684 567 656 q 685 713 631 713 z "},"Ł":{"ha":849,"x_min":33,"x_max":818,"o":"m 485 983 l 485 956 q 413 945 438 954 q 381 912 389 936 q 372 836 372 888 l 372 131 q 378 67 372 88 q 403 39 385 46 q 460 32 422 32 l 528 32 q 617 54 575 32 q 692 117 658 76 q 747 215 725 158 q 781 342 769 272 l 813 342 q 808 219 808 294 q 810 126 808 188 q 818 0 811 65 q 658 3 747 3 q 500 4 569 4 q 411 4 465 4 q 294 3 357 4 q 168 2 232 3 q 47 0 104 1 l 47 28 q 114 39 92 31 q 144 72 136 47 q 151 147 151 97 l 151 836 q 144 912 151 888 q 113 945 136 936 q 47 956 90 954 l 47 983 q 141 981 82 982 q 267 979 200 979 q 387 981 328 979 q 485 983 446 982 m 643 657 l 643 625 l 249 396 l 249 428 l 643 657 m 249 442 l 249 410 l 33 285 l 33 317 l 249 442 z "},"M":{"ha":1288,"x_min":49,"x_max":1242,"o":"m 1242 983 l 1242 956 q 1175 945 1197 954 q 1145 912 1153 936 q 1138 836 1138 888 l 1138 147 q 1145 72 1138 97 q 1175 39 1153 47 q 1242 28 1197 31 l 1242 0 q 1144 3 1203 3 q 1024 4 1085 4 q 899 3 957 4 q 804 0 840 3 l 804 28 q 876 39 851 31 q 908 72 900 47 q 917 147 917 97 l 917 899 l 926 899 l 582 -1 l 560 -1 l 185 893 l 185 228 q 193 110 185 151 q 230 52 201 69 q 319 28 258 35 l 319 0 q 250 3 293 3 q 169 4 207 4 q 104 3 138 4 q 49 0 71 3 l 49 28 q 115 51 93 35 q 145 106 138 68 q 153 211 153 144 l 153 836 q 145 912 153 888 q 115 945 138 936 q 49 956 92 954 l 49 983 q 104 981 71 982 q 169 979 138 979 q 287 981 229 979 q 389 983 344 982 l 681 279 l 646 247 l 925 979 q 974 979 949 979 q 1024 979 999 979 q 1144 981 1085 979 q 1242 983 1203 982 z "},"N":{"ha":1003,"x_min":49,"x_max":963,"o":"m 963 983 l 963 956 q 896 933 918 950 q 866 878 874 915 q 858 772 858 840 l 858 -3 q 824 -1 842 -1 q 788 -3 807 -1 l 185 761 l 185 228 q 193 110 185 151 q 230 52 201 69 q 319 28 258 35 l 319 0 q 250 3 293 3 q 169 4 207 4 q 104 3 138 4 q 49 0 71 3 l 49 28 q 115 51 93 35 q 145 106 138 68 q 153 211 153 144 l 153 836 q 145 912 153 888 q 115 945 138 936 q 49 956 92 954 l 49 983 q 104 981 71 982 q 169 979 138 979 q 233 981 203 979 q 289 983 264 982 l 826 321 l 826 756 q 818 873 826 832 q 781 932 810 914 q 692 956 753 950 l 692 983 q 761 981 718 982 q 842 979 804 979 q 908 981 875 979 q 963 983 940 982 z "},"Ń":{"ha":1003,"x_min":49,"x_max":963,"o":"m 963 983 l 963 956 q 896 933 918 950 q 866 878 874 915 q 858 772 858 840 l 858 -3 q 824 -1 842 -1 q 788 -3 807 -1 l 185 761 l 185 228 q 193 110 185 151 q 230 52 201 69 q 319 28 258 35 l 319 0 q 250 3 293 3 q 169 4 207 4 q 104 3 138 4 q 49 0 71 3 l 49 28 q 115 51 93 35 q 145 106 138 68 q 153 211 153 144 l 153 836 q 145 912 153 888 q 115 945 138 936 q 49 956 92 954 l 49 983 q 104 981 71 982 q 169 979 138 979 q 233 981 203 979 q 289 983 264 982 l 826 321 l 826 756 q 818 873 826 832 q 781 932 810 914 q 692 956 753 950 l 692 983 q 761 981 718 982 q 842 979 804 979 q 908 981 875 979 q 963 983 940 982 m 650 1297 q 713 1306 679 1314 q 763 1267 747 1299 q 766 1211 776 1240 q 724 1164 756 1182 q 656 1138 693 1147 q 565 1115 618 1129 q 435 1072 513 1101 l 425 1089 q 528 1183 492 1143 q 592 1252 565 1224 q 650 1297 618 1281 z "},"Ň":{"ha":1003,"x_min":49,"x_max":963,"o":"m 963 983 l 963 956 q 896 933 918 950 q 866 878 874 915 q 858 772 858 840 l 858 -3 q 824 -1 842 -1 q 788 -3 807 -1 l 185 761 l 185 228 q 193 110 185 151 q 230 52 201 69 q 319 28 258 35 l 319 0 q 250 3 293 3 q 169 4 207 4 q 104 3 138 4 q 49 0 71 3 l 49 28 q 115 51 93 35 q 145 106 138 68 q 153 211 153 144 l 153 836 q 145 912 153 888 q 115 945 138 936 q 49 956 92 954 l 49 983 q 104 981 71 982 q 169 979 138 979 q 233 981 203 979 q 289 983 264 982 l 826 321 l 826 756 q 818 873 826 832 q 781 932 810 914 q 692 956 753 950 l 692 983 q 761 981 718 982 q 842 979 804 979 q 908 981 875 979 q 963 983 940 982 m 813 1303 l 819 1282 q 653 1185 729 1244 q 535 1065 578 1126 l 510 1065 q 392 1185 468 1126 q 225 1282 317 1244 l 232 1303 q 410 1263 322 1288 q 550 1213 499 1238 q 666 1263 593 1238 q 813 1303 739 1288 z "},"Ņ":{"ha":1003,"x_min":49,"x_max":963,"o":"m 963 983 l 963 956 q 896 933 918 950 q 866 878 874 915 q 858 772 858 840 l 858 -3 q 824 -1 842 -1 q 788 -3 807 -1 l 185 761 l 185 228 q 193 110 185 151 q 230 52 201 69 q 319 28 258 35 l 319 0 q 250 3 293 3 q 169 4 207 4 q 104 3 138 4 q 49 0 71 3 l 49 28 q 115 51 93 35 q 145 106 138 68 q 153 211 153 144 l 153 836 q 145 912 153 888 q 115 945 138 936 q 49 956 92 954 l 49 983 q 104 981 71 982 q 169 979 138 979 q 233 981 203 979 q 289 983 264 982 l 826 321 l 826 756 q 818 873 826 832 q 781 932 810 914 q 692 956 753 950 l 692 983 q 761 981 718 982 q 842 979 804 979 q 908 981 875 979 q 963 983 940 982 m 511 -76 q 593 -105 561 -76 q 625 -183 625 -133 q 587 -285 625 -244 q 467 -337 549 -326 l 461 -308 q 539 -283 510 -301 q 572 -232 568 -264 q 546 -248 563 -242 q 504 -254 529 -254 q 433 -231 460 -254 q 406 -167 406 -208 q 434 -100 406 -124 q 511 -76 463 -76 z "},"Ŋ":{"ha":999,"x_min":47,"x_max":961,"o":"m 961 983 l 961 956 q 894 945 917 954 q 865 912 872 936 q 857 836 857 888 l 857 367 l 835 -1 q 811 -1 824 -1 q 785 -3 799 -1 l 183 761 l 183 147 q 192 72 183 97 q 224 39 200 47 q 296 28 249 31 l 296 0 q 238 3 271 3 q 168 4 204 4 q 101 3 135 4 q 47 0 68 3 l 47 28 q 113 39 90 31 q 144 72 136 47 q 151 147 151 97 l 151 836 q 144 912 151 888 q 113 945 136 936 q 47 956 90 954 l 47 983 q 101 981 68 982 q 168 979 135 979 q 236 981 203 979 q 296 983 269 982 l 825 332 l 825 836 q 817 912 825 888 q 784 945 808 936 q 713 956 760 954 l 713 983 q 772 981 738 982 q 840 979 806 979 q 906 981 874 979 q 961 983 939 982 m 857 618 l 857 89 q 842 -87 857 -19 q 801 -194 828 -156 q 738 -247 775 -232 q 656 -261 701 -261 q 541 -235 588 -261 q 494 -150 494 -208 q 524 -81 494 -106 q 601 -57 554 -57 q 676 -80 647 -57 q 704 -143 704 -103 q 689 -194 704 -169 q 642 -233 674 -219 q 656 -235 649 -235 q 669 -235 663 -235 q 788 -162 751 -235 q 825 53 825 -90 l 825 618 q 841 618 825 618 q 857 618 857 618 z "},"Ñ":{"ha":1003,"x_min":49,"x_max":963,"o":"m 963 983 l 963 956 q 896 933 918 950 q 866 878 874 915 q 858 772 858 840 l 858 -3 q 824 -1 842 -1 q 788 -3 807 -1 l 185 761 l 185 228 q 193 110 185 151 q 230 52 201 69 q 319 28 258 35 l 319 0 q 250 3 293 3 q 169 4 207 4 q 104 3 138 4 q 49 0 71 3 l 49 28 q 115 51 93 35 q 145 106 138 68 q 153 211 153 144 l 153 836 q 145 912 153 888 q 115 945 138 936 q 49 956 92 954 l 49 983 q 104 981 71 982 q 169 979 138 979 q 233 981 203 979 q 289 983 264 982 l 826 321 l 826 756 q 818 873 826 832 q 781 932 810 914 q 692 956 753 950 l 692 983 q 761 981 718 982 q 842 979 804 979 q 908 981 875 979 q 963 983 940 982 m 404 1283 q 490 1268 453 1283 q 558 1233 526 1253 q 622 1199 589 1214 q 696 1185 654 1185 q 758 1202 729 1185 q 811 1260 788 1219 l 831 1253 q 760 1112 813 1157 q 646 1067 708 1067 q 560 1081 597 1067 q 492 1116 524 1096 q 427 1151 460 1136 q 353 1165 394 1165 q 290 1148 319 1165 q 238 1089 261 1131 l 218 1096 q 290 1238 238 1193 q 404 1283 342 1283 z "},"O":{"ha":1101,"x_min":60,"x_max":1042,"o":"m 551 1003 q 809 943 699 1003 q 981 772 919 883 q 1042 500 1042 660 q 979 228 1042 344 q 805 46 917 111 q 550 -19 693 -19 q 292 40 403 -19 q 121 213 182 100 q 60 483 60 325 q 123 756 60 639 q 297 938 186 872 q 551 1003 407 1003 m 546 978 q 410 915 468 978 q 322 743 353 853 q 290 489 290 633 q 326 233 290 342 q 422 65 361 124 q 556 6 482 6 q 691 68 633 6 q 780 241 749 131 q 811 494 811 351 q 776 751 811 643 q 680 919 740 860 q 546 978 619 978 z "},"Ó":{"ha":1101,"x_min":60,"x_max":1042,"o":"m 551 1003 q 809 943 699 1003 q 981 772 919 883 q 1042 500 1042 660 q 979 228 1042 344 q 805 46 917 111 q 550 -19 693 -19 q 292 40 403 -19 q 121 213 182 100 q 60 483 60 325 q 123 756 60 639 q 297 938 186 872 q 551 1003 407 1003 m 546 978 q 410 915 468 978 q 322 743 353 853 q 290 489 290 633 q 326 233 290 342 q 422 65 361 124 q 556 6 482 6 q 691 68 633 6 q 780 241 749 131 q 811 494 811 351 q 776 751 811 643 q 680 919 740 860 q 546 978 619 978 m 672 1297 q 735 1306 701 1314 q 785 1267 769 1299 q 788 1211 799 1240 q 746 1164 778 1182 q 678 1138 715 1147 q 588 1115 640 1129 q 457 1072 535 1101 l 447 1089 q 551 1183 514 1143 q 614 1252 588 1224 q 672 1297 640 1281 z "},"Ŏ":{"ha":1101,"x_min":60,"x_max":1042,"o":"m 551 1003 q 809 943 699 1003 q 981 772 919 883 q 1042 500 1042 660 q 979 228 1042 344 q 805 46 917 111 q 550 -19 693 -19 q 292 40 403 -19 q 121 213 182 100 q 60 483 60 325 q 123 756 60 639 q 297 938 186 872 q 551 1003 407 1003 m 546 978 q 410 915 468 978 q 322 743 353 853 q 290 489 290 633 q 326 233 290 342 q 422 65 361 124 q 556 6 482 6 q 691 68 633 6 q 780 241 749 131 q 811 494 811 351 q 776 751 811 643 q 680 919 740 860 q 546 978 619 978 m 833 1272 l 850 1257 q 790 1171 831 1214 q 688 1099 750 1128 q 540 1071 625 1071 q 393 1099 456 1071 q 290 1171 331 1128 q 231 1257 250 1214 l 247 1271 q 356 1215 285 1243 q 540 1188 428 1188 q 724 1215 653 1188 q 833 1272 796 1243 z "},"Ô":{"ha":1101,"x_min":60,"x_max":1042,"o":"m 551 1003 q 809 943 699 1003 q 981 772 919 883 q 1042 500 1042 660 q 979 228 1042 344 q 805 46 917 111 q 550 -19 693 -19 q 292 40 403 -19 q 121 213 182 100 q 60 483 60 325 q 123 756 60 639 q 297 938 186 872 q 551 1003 407 1003 m 546 978 q 410 915 468 978 q 322 743 353 853 q 290 489 290 633 q 326 233 290 342 q 422 65 361 124 q 556 6 482 6 q 691 68 633 6 q 780 241 749 131 q 811 494 811 351 q 776 751 811 643 q 680 919 740 860 q 546 978 619 978 m 561 1306 q 678 1187 603 1246 q 846 1089 754 1128 l 839 1068 q 660 1110 749 1085 q 521 1158 572 1135 q 405 1110 478 1135 q 258 1068 332 1085 l 251 1089 q 417 1186 342 1128 q 536 1306 493 1244 l 561 1306 z "},"Ố":{"ha":1101,"x_min":60,"x_max":1042,"o":"m 551 1003 q 809 943 699 1003 q 981 772 919 883 q 1042 500 1042 660 q 979 228 1042 344 q 805 46 917 111 q 550 -19 693 -19 q 292 40 403 -19 q 121 213 182 100 q 60 483 60 325 q 123 756 60 639 q 297 938 186 872 q 551 1003 407 1003 m 546 978 q 410 915 468 978 q 322 743 353 853 q 290 489 290 633 q 326 233 290 342 q 422 65 361 124 q 556 6 482 6 q 691 68 633 6 q 780 241 749 131 q 811 494 811 351 q 776 751 811 643 q 680 919 740 860 q 546 978 619 978 m 561 1306 q 678 1187 603 1246 q 846 1089 754 1128 l 839 1068 q 660 1110 749 1085 q 521 1158 572 1135 q 405 1110 478 1135 q 258 1068 332 1085 l 251 1089 q 417 1186 342 1128 q 536 1306 493 1244 l 561 1306 m 672 1603 q 735 1612 701 1619 q 785 1572 769 1604 q 788 1517 799 1546 q 746 1469 778 1488 q 678 1444 715 1453 q 588 1421 640 1435 q 457 1378 535 1407 l 447 1394 q 551 1489 514 1449 q 614 1558 588 1529 q 672 1603 640 1586 z "},"Ộ":{"ha":1101,"x_min":60,"x_max":1042,"o":"m 551 1003 q 809 943 699 1003 q 981 772 919 883 q 1042 500 1042 660 q 979 228 1042 344 q 805 46 917 111 q 550 -19 693 -19 q 292 40 403 -19 q 121 213 182 100 q 60 483 60 325 q 123 756 60 639 q 297 938 186 872 q 551 1003 407 1003 m 546 978 q 410 915 468 978 q 322 743 353 853 q 290 489 290 633 q 326 233 290 342 q 422 65 361 124 q 556 6 482 6 q 691 68 633 6 q 780 241 749 131 q 811 494 811 351 q 776 751 811 643 q 680 919 740 860 q 546 978 619 978 m 561 1306 q 678 1187 603 1246 q 846 1089 754 1128 l 839 1068 q 660 1110 749 1085 q 521 1158 572 1135 q 405 1110 478 1135 q 258 1068 332 1085 l 251 1089 q 417 1186 342 1128 q 536 1306 493 1244 l 561 1306 m 550 -260 q 476 -236 504 -260 q 447 -168 447 -212 q 475 -101 447 -126 q 553 -76 503 -76 q 629 -101 603 -76 q 656 -168 656 -125 q 627 -235 656 -211 q 550 -260 599 -260 z "},"Ồ":{"ha":1101,"x_min":60,"x_max":1042,"o":"m 551 1003 q 809 943 699 1003 q 981 772 919 883 q 1042 500 1042 660 q 979 228 1042 344 q 805 46 917 111 q 550 -19 693 -19 q 292 40 403 -19 q 121 213 182 100 q 60 483 60 325 q 123 756 60 639 q 297 938 186 872 q 551 1003 407 1003 m 546 978 q 410 915 468 978 q 322 743 353 853 q 290 489 290 633 q 326 233 290 342 q 422 65 361 124 q 556 6 482 6 q 691 68 633 6 q 780 241 749 131 q 811 494 811 351 q 776 751 811 643 q 680 919 740 860 q 546 978 619 978 m 561 1306 q 678 1187 603 1246 q 846 1089 754 1128 l 839 1068 q 660 1110 749 1085 q 521 1158 572 1135 q 405 1110 478 1135 q 258 1068 332 1085 l 251 1089 q 417 1186 342 1128 q 536 1306 493 1244 l 561 1306 m 417 1603 q 475 1558 449 1586 q 539 1489 501 1529 q 642 1394 576 1449 l 632 1378 q 502 1421 556 1407 q 411 1444 449 1435 q 343 1469 374 1453 q 301 1517 311 1488 q 304 1572 290 1546 q 354 1612 321 1604 q 417 1603 388 1619 z "},"Ổ":{"ha":1101,"x_min":60,"x_max":1042,"o":"m 551 1003 q 809 943 699 1003 q 981 772 919 883 q 1042 500 1042 660 q 979 228 1042 344 q 805 46 917 111 q 550 -19 693 -19 q 292 40 403 -19 q 121 213 182 100 q 60 483 60 325 q 123 756 60 639 q 297 938 186 872 q 551 1003 407 1003 m 546 978 q 410 915 468 978 q 322 743 353 853 q 290 489 290 633 q 326 233 290 342 q 422 65 361 124 q 556 6 482 6 q 691 68 633 6 q 780 241 749 131 q 811 494 811 351 q 776 751 811 643 q 680 919 740 860 q 546 978 619 978 m 561 1306 q 678 1187 603 1246 q 846 1089 754 1128 l 839 1068 q 660 1110 749 1085 q 521 1158 572 1135 q 405 1110 478 1135 q 258 1068 332 1085 l 251 1089 q 417 1186 342 1128 q 536 1306 493 1244 l 561 1306 m 782 1282 l 782 1358 q 853 1408 833 1381 q 874 1467 874 1436 q 842 1531 874 1510 q 768 1551 811 1551 q 729 1547 747 1551 q 703 1533 711 1542 q 747 1508 731 1525 q 763 1461 763 1490 q 741 1408 763 1428 q 688 1389 719 1389 q 634 1409 654 1389 q 614 1461 614 1429 q 631 1514 614 1492 q 669 1549 649 1536 q 727 1571 694 1563 q 804 1579 760 1579 q 903 1567 858 1579 q 975 1532 947 1556 q 1003 1474 1003 1508 q 977 1416 1003 1442 q 908 1373 951 1390 q 810 1346 864 1356 l 810 1282 l 782 1282 z "},"Ỗ":{"ha":1101,"x_min":60,"x_max":1042,"o":"m 551 1003 q 809 943 699 1003 q 981 772 919 883 q 1042 500 1042 660 q 979 228 1042 344 q 805 46 917 111 q 550 -19 693 -19 q 292 40 403 -19 q 121 213 182 100 q 60 483 60 325 q 123 756 60 639 q 297 938 186 872 q 551 1003 407 1003 m 546 978 q 410 915 468 978 q 322 743 353 853 q 290 489 290 633 q 326 233 290 342 q 422 65 361 124 q 556 6 482 6 q 691 68 633 6 q 780 241 749 131 q 811 494 811 351 q 776 751 811 643 q 680 919 740 860 q 546 978 619 978 m 561 1306 q 678 1187 603 1246 q 846 1089 754 1128 l 839 1068 q 660 1110 749 1085 q 521 1158 572 1135 q 405 1110 478 1135 q 258 1068 332 1085 l 251 1089 q 417 1186 342 1128 q 536 1306 493 1244 l 561 1306 m 426 1589 q 512 1574 475 1589 q 580 1539 549 1558 q 644 1505 611 1519 q 718 1490 676 1490 q 781 1508 751 1490 q 833 1565 810 1525 l 853 1558 q 783 1417 835 1463 q 668 1372 731 1372 q 583 1387 619 1372 q 514 1422 546 1401 q 449 1456 482 1442 q 375 1471 417 1471 q 313 1453 342 1471 q 260 1394 283 1436 l 240 1401 q 312 1544 260 1499 q 426 1589 364 1589 z "},"Ö":{"ha":1101,"x_min":60,"x_max":1042,"o":"m 551 1003 q 809 943 699 1003 q 981 772 919 883 q 1042 500 1042 660 q 979 228 1042 344 q 805 46 917 111 q 550 -19 693 -19 q 292 40 403 -19 q 121 213 182 100 q 60 483 60 325 q 123 756 60 639 q 297 938 186 872 q 551 1003 407 1003 m 546 978 q 410 915 468 978 q 322 743 353 853 q 290 489 290 633 q 326 233 290 342 q 422 65 361 124 q 556 6 482 6 q 691 68 633 6 q 780 241 749 131 q 811 494 811 351 q 776 751 811 643 q 680 919 740 860 q 546 978 619 978 m 715 1274 q 788 1242 757 1274 q 819 1168 819 1210 q 788 1094 819 1125 q 715 1064 757 1064 q 641 1094 672 1064 q 610 1169 610 1125 q 641 1242 610 1211 q 715 1274 672 1274 m 382 1274 q 456 1242 424 1274 q 488 1168 488 1210 q 456 1094 488 1125 q 382 1064 424 1064 q 308 1094 339 1064 q 278 1169 278 1125 q 308 1242 278 1211 q 382 1274 339 1274 z "},"Ọ":{"ha":1101,"x_min":60,"x_max":1042,"o":"m 551 1003 q 809 943 699 1003 q 981 772 919 883 q 1042 500 1042 660 q 979 228 1042 344 q 805 46 917 111 q 550 -19 693 -19 q 292 40 403 -19 q 121 213 182 100 q 60 483 60 325 q 123 756 60 639 q 297 938 186 872 q 551 1003 407 1003 m 546 978 q 410 915 468 978 q 322 743 353 853 q 290 489 290 633 q 326 233 290 342 q 422 65 361 124 q 556 6 482 6 q 691 68 633 6 q 780 241 749 131 q 811 494 811 351 q 776 751 811 643 q 680 919 740 860 q 546 978 619 978 m 550 -260 q 476 -236 504 -260 q 447 -168 447 -212 q 475 -101 447 -126 q 553 -76 503 -76 q 629 -101 603 -76 q 656 -168 656 -125 q 627 -235 656 -211 q 550 -260 599 -260 z "},"Ò":{"ha":1101,"x_min":60,"x_max":1042,"o":"m 551 1003 q 809 943 699 1003 q 981 772 919 883 q 1042 500 1042 660 q 979 228 1042 344 q 805 46 917 111 q 550 -19 693 -19 q 292 40 403 -19 q 121 213 182 100 q 60 483 60 325 q 123 756 60 639 q 297 938 186 872 q 551 1003 407 1003 m 546 978 q 410 915 468 978 q 322 743 353 853 q 290 489 290 633 q 326 233 290 342 q 422 65 361 124 q 556 6 482 6 q 691 68 633 6 q 780 241 749 131 q 811 494 811 351 q 776 751 811 643 q 680 919 740 860 q 546 978 619 978 m 417 1297 q 475 1252 449 1281 q 539 1183 501 1224 q 642 1089 576 1143 l 632 1072 q 502 1115 556 1101 q 411 1138 449 1129 q 343 1164 374 1147 q 301 1211 311 1182 q 304 1267 290 1240 q 354 1306 321 1299 q 417 1297 388 1314 z "},"Ỏ":{"ha":1101,"x_min":60,"x_max":1042,"o":"m 551 1003 q 809 943 699 1003 q 981 772 919 883 q 1042 500 1042 660 q 979 228 1042 344 q 805 46 917 111 q 550 -19 693 -19 q 292 40 403 -19 q 121 213 182 100 q 60 483 60 325 q 123 756 60 639 q 297 938 186 872 q 551 1003 407 1003 m 546 978 q 410 915 468 978 q 322 743 353 853 q 290 489 290 633 q 326 233 290 342 q 422 65 361 124 q 556 6 482 6 q 691 68 633 6 q 780 241 749 131 q 811 494 811 351 q 776 751 811 643 q 680 919 740 860 q 546 978 619 978 m 526 1058 l 526 1135 q 598 1185 578 1157 q 618 1243 618 1213 q 587 1307 618 1286 q 513 1328 556 1328 q 474 1323 492 1328 q 447 1310 456 1318 q 491 1284 475 1301 q 507 1238 507 1267 q 485 1185 507 1204 q 432 1165 464 1165 q 378 1185 399 1165 q 358 1238 358 1206 q 376 1290 358 1268 q 414 1325 393 1313 q 472 1347 439 1339 q 549 1356 504 1356 q 647 1344 603 1356 q 719 1308 692 1332 q 747 1250 747 1285 q 722 1192 747 1218 q 652 1149 696 1167 q 554 1122 608 1132 l 554 1058 l 526 1058 z "},"Ơ":{"ha":1101,"x_min":60,"x_max":1053,"o":"m 689 974 q 833 979 775 969 q 940 1011 892 989 l 938 1000 q 883 1045 908 1017 q 858 1114 858 1074 q 885 1183 858 1156 q 954 1210 913 1210 q 1025 1183 997 1210 q 1053 1111 1053 1156 q 1030 1042 1053 1074 q 964 989 1007 1010 q 868 957 928 971 q 726 944 808 943 l 689 974 m 551 1003 q 809 943 699 1003 q 981 772 919 883 q 1042 500 1042 660 q 979 228 1042 344 q 806 46 917 111 q 550 -19 694 -19 q 292 40 403 -19 q 121 213 182 100 q 60 483 60 325 q 123 756 60 639 q 297 938 186 872 q 551 1003 407 1003 m 546 978 q 410 915 468 978 q 322 743 353 853 q 290 489 290 633 q 326 233 290 342 q 422 65 361 124 q 556 6 482 6 q 691 68 633 6 q 780 241 749 131 q 811 494 811 351 q 776 751 811 643 q 680 919 740 860 q 546 978 619 978 z "},"Ớ":{"ha":1101,"x_min":60,"x_max":1053,"o":"m 689 974 q 833 979 775 969 q 940 1011 892 989 l 938 1000 q 883 1045 908 1017 q 858 1114 858 1074 q 885 1183 858 1156 q 954 1210 913 1210 q 1025 1183 997 1210 q 1053 1111 1053 1156 q 1030 1042 1053 1074 q 964 989 1007 1010 q 868 957 928 971 q 726 944 808 943 l 689 974 m 551 1003 q 809 943 699 1003 q 981 772 919 883 q 1042 500 1042 660 q 979 228 1042 344 q 806 46 917 111 q 550 -19 694 -19 q 292 40 403 -19 q 121 213 182 100 q 60 483 60 325 q 123 756 60 639 q 297 938 186 872 q 551 1003 407 1003 m 546 978 q 410 915 468 978 q 322 743 353 853 q 290 489 290 633 q 326 233 290 342 q 422 65 361 124 q 556 6 482 6 q 691 68 633 6 q 780 241 749 131 q 811 494 811 351 q 776 751 811 643 q 680 919 740 860 q 546 978 619 978 m 672 1297 q 735 1306 701 1314 q 785 1267 769 1299 q 788 1211 799 1240 q 746 1164 778 1182 q 678 1138 715 1147 q 588 1115 640 1129 q 457 1072 535 1101 l 447 1089 q 551 1183 514 1143 q 614 1252 588 1224 q 672 1297 640 1281 z "},"Ợ":{"ha":1101,"x_min":60,"x_max":1053,"o":"m 689 974 q 833 979 775 969 q 940 1011 892 989 l 938 1000 q 883 1045 908 1017 q 858 1114 858 1074 q 885 1183 858 1156 q 954 1210 913 1210 q 1025 1183 997 1210 q 1053 1111 1053 1156 q 1030 1042 1053 1074 q 964 989 1007 1010 q 868 957 928 971 q 726 944 808 943 l 689 974 m 551 1003 q 809 943 699 1003 q 981 772 919 883 q 1042 500 1042 660 q 979 228 1042 344 q 806 46 917 111 q 550 -19 694 -19 q 292 40 403 -19 q 121 213 182 100 q 60 483 60 325 q 123 756 60 639 q 297 938 186 872 q 551 1003 407 1003 m 546 978 q 410 915 468 978 q 322 743 353 853 q 290 489 290 633 q 326 233 290 342 q 422 65 361 124 q 556 6 482 6 q 691 68 633 6 q 780 241 749 131 q 811 494 811 351 q 776 751 811 643 q 680 919 740 860 q 546 978 619 978 m 550 -260 q 476 -236 504 -260 q 447 -168 447 -212 q 475 -101 447 -126 q 553 -76 503 -76 q 629 -101 603 -76 q 656 -168 656 -125 q 627 -235 656 -211 q 550 -260 599 -260 z "},"Ờ":{"ha":1101,"x_min":60,"x_max":1053,"o":"m 689 974 q 833 979 775 969 q 940 1011 892 989 l 938 1000 q 883 1045 908 1017 q 858 1114 858 1074 q 885 1183 858 1156 q 954 1210 913 1210 q 1025 1183 997 1210 q 1053 1111 1053 1156 q 1030 1042 1053 1074 q 964 989 1007 1010 q 868 957 928 971 q 726 944 808 943 l 689 974 m 551 1003 q 809 943 699 1003 q 981 772 919 883 q 1042 500 1042 660 q 979 228 1042 344 q 806 46 917 111 q 550 -19 694 -19 q 292 40 403 -19 q 121 213 182 100 q 60 483 60 325 q 123 756 60 639 q 297 938 186 872 q 551 1003 407 1003 m 546 978 q 410 915 468 978 q 322 743 353 853 q 290 489 290 633 q 326 233 290 342 q 422 65 361 124 q 556 6 482 6 q 691 68 633 6 q 780 241 749 131 q 811 494 811 351 q 776 751 811 643 q 680 919 740 860 q 546 978 619 978 m 417 1297 q 475 1252 449 1281 q 539 1183 501 1224 q 642 1089 576 1143 l 632 1072 q 502 1115 556 1101 q 411 1138 449 1129 q 343 1164 374 1147 q 301 1211 311 1182 q 304 1267 290 1240 q 354 1306 321 1299 q 417 1297 388 1314 z "},"Ở":{"ha":1101,"x_min":60,"x_max":1053,"o":"m 689 974 q 833 979 775 969 q 940 1011 892 989 l 938 1000 q 883 1045 908 1017 q 858 1114 858 1074 q 885 1183 858 1156 q 954 1210 913 1210 q 1025 1183 997 1210 q 1053 1111 1053 1156 q 1030 1042 1053 1074 q 964 989 1007 1010 q 868 957 928 971 q 726 944 808 943 l 689 974 m 551 1003 q 809 943 699 1003 q 981 772 919 883 q 1042 500 1042 660 q 979 228 1042 344 q 806 46 917 111 q 550 -19 694 -19 q 292 40 403 -19 q 121 213 182 100 q 60 483 60 325 q 123 756 60 639 q 297 938 186 872 q 551 1003 407 1003 m 546 978 q 410 915 468 978 q 322 743 353 853 q 290 489 290 633 q 326 233 290 342 q 422 65 361 124 q 556 6 482 6 q 691 68 633 6 q 780 241 749 131 q 811 494 811 351 q 776 751 811 643 q 680 919 740 860 q 546 978 619 978 m 526 1058 l 526 1135 q 598 1185 578 1157 q 618 1243 618 1213 q 587 1307 618 1286 q 513 1328 556 1328 q 474 1323 492 1328 q 447 1310 456 1318 q 491 1284 475 1301 q 507 1238 507 1267 q 485 1185 507 1204 q 432 1165 464 1165 q 378 1185 399 1165 q 358 1238 358 1206 q 376 1290 358 1268 q 414 1325 393 1313 q 472 1347 439 1339 q 549 1356 504 1356 q 647 1344 603 1356 q 719 1308 692 1332 q 747 1250 747 1285 q 722 1192 747 1218 q 652 1149 696 1167 q 554 1122 608 1132 l 554 1058 l 526 1058 z "},"Ỡ":{"ha":1101,"x_min":60,"x_max":1053,"o":"m 689 974 q 833 979 775 969 q 940 1011 892 989 l 938 1000 q 883 1045 908 1017 q 858 1114 858 1074 q 885 1183 858 1156 q 954 1210 913 1210 q 1025 1183 997 1210 q 1053 1111 1053 1156 q 1030 1042 1053 1074 q 964 989 1007 1010 q 868 957 928 971 q 726 944 808 943 l 689 974 m 551 1003 q 809 943 699 1003 q 981 772 919 883 q 1042 500 1042 660 q 979 228 1042 344 q 806 46 917 111 q 550 -19 694 -19 q 292 40 403 -19 q 121 213 182 100 q 60 483 60 325 q 123 756 60 639 q 297 938 186 872 q 551 1003 407 1003 m 546 978 q 410 915 468 978 q 322 743 353 853 q 290 489 290 633 q 326 233 290 342 q 422 65 361 124 q 556 6 482 6 q 691 68 633 6 q 780 241 749 131 q 811 494 811 351 q 776 751 811 643 q 680 919 740 860 q 546 978 619 978 m 426 1283 q 512 1268 475 1283 q 580 1233 549 1253 q 644 1199 611 1214 q 718 1185 676 1185 q 781 1202 751 1185 q 833 1260 810 1219 l 853 1253 q 783 1112 835 1157 q 668 1067 731 1067 q 583 1081 619 1067 q 514 1116 546 1096 q 449 1151 482 1136 q 375 1165 417 1165 q 313 1148 342 1165 q 260 1089 283 1131 l 240 1096 q 312 1238 260 1193 q 426 1283 364 1283 z "},"Ő":{"ha":1101,"x_min":60,"x_max":1042,"o":"m 551 1003 q 809 943 699 1003 q 981 772 919 883 q 1042 500 1042 660 q 979 228 1042 344 q 805 46 917 111 q 550 -19 693 -19 q 292 40 403 -19 q 121 213 182 100 q 60 483 60 325 q 123 756 60 639 q 297 938 186 872 q 551 1003 407 1003 m 546 978 q 410 915 468 978 q 322 743 353 853 q 290 489 290 633 q 326 233 290 342 q 422 65 361 124 q 556 6 482 6 q 691 68 633 6 q 780 241 749 131 q 811 494 811 351 q 776 751 811 643 q 680 919 740 860 q 546 978 619 978 m 781 1299 q 843 1315 810 1321 q 894 1283 876 1310 q 908 1228 914 1257 q 871 1175 901 1199 q 811 1143 846 1157 q 732 1114 776 1129 q 632 1072 688 1099 l 618 1088 q 687 1176 660 1136 q 735 1247 714 1215 q 781 1299 757 1278 m 488 1299 q 550 1315 517 1321 q 601 1283 583 1310 q 615 1228 621 1257 q 578 1175 608 1199 q 518 1143 553 1157 q 439 1114 483 1129 q 339 1072 394 1099 l 325 1088 q 394 1176 367 1136 q 442 1247 421 1215 q 488 1299 464 1278 z "},"Ō":{"ha":1101,"x_min":60,"x_max":1042,"o":"m 551 1003 q 809 943 699 1003 q 981 772 919 883 q 1042 500 1042 660 q 979 228 1042 344 q 805 46 917 111 q 550 -19 693 -19 q 292 40 403 -19 q 121 213 182 100 q 60 483 60 325 q 123 756 60 639 q 297 938 186 872 q 551 1003 407 1003 m 546 978 q 410 915 468 978 q 322 743 353 853 q 290 489 290 633 q 326 233 290 342 q 422 65 361 124 q 556 6 482 6 q 691 68 633 6 q 780 241 749 131 q 811 494 811 351 q 776 751 811 643 q 680 919 740 860 q 546 978 619 978 m 826 1172 l 826 1138 l 271 1138 l 271 1172 l 826 1172 z "},"Ø":{"ha":1101,"x_min":60,"x_max":1042,"o":"m 551 1003 q 809 943 699 1003 q 981 772 919 883 q 1042 500 1042 660 q 979 228 1042 344 q 805 46 917 111 q 550 -19 693 -19 q 292 40 403 -19 q 121 213 182 100 q 60 483 60 325 q 123 756 60 639 q 297 938 186 872 q 551 1003 407 1003 m 546 978 q 410 915 468 978 q 322 743 353 853 q 290 489 290 633 q 326 233 290 342 q 422 65 361 124 q 556 6 482 6 q 691 68 633 6 q 780 241 749 131 q 811 494 811 351 q 776 751 811 643 q 680 919 740 860 q 546 978 619 978 m 776 885 l 797 857 l 321 106 l 296 131 l 776 885 m 279 131 l 304 106 l 153 -110 l 124 -90 l 279 131 m 921 1082 l 947 1064 l 807 857 l 786 885 l 921 1082 z "},"Ǿ":{"ha":1101,"x_min":60,"x_max":1042,"o":"m 551 1003 q 809 943 699 1003 q 981 772 919 883 q 1042 500 1042 660 q 979 228 1042 344 q 805 46 917 111 q 550 -19 693 -19 q 292 40 403 -19 q 121 213 182 100 q 60 483 60 325 q 123 756 60 639 q 297 938 186 872 q 551 1003 407 1003 m 546 978 q 410 915 468 978 q 322 743 353 853 q 290 489 290 633 q 326 233 290 342 q 422 65 361 124 q 556 6 482 6 q 691 68 633 6 q 780 241 749 131 q 811 494 811 351 q 776 751 811 643 q 680 919 740 860 q 546 978 619 978 m 776 885 l 797 857 l 321 106 l 296 131 l 776 885 m 279 131 l 304 106 l 153 -110 l 124 -90 l 279 131 m 921 1082 l 947 1064 l 807 857 l 786 885 l 921 1082 m 672 1297 q 735 1306 701 1314 q 785 1267 769 1299 q 788 1211 799 1240 q 746 1164 778 1182 q 678 1138 715 1147 q 588 1115 640 1129 q 457 1072 535 1101 l 447 1089 q 551 1183 514 1143 q 614 1252 588 1224 q 672 1297 640 1281 z "},"Õ":{"ha":1101,"x_min":60,"x_max":1042,"o":"m 551 1003 q 809 943 699 1003 q 981 772 919 883 q 1042 500 1042 660 q 979 228 1042 344 q 805 46 917 111 q 550 -19 693 -19 q 292 40 403 -19 q 121 213 182 100 q 60 483 60 325 q 123 756 60 639 q 297 938 186 872 q 551 1003 407 1003 m 546 978 q 410 915 468 978 q 322 743 353 853 q 290 489 290 633 q 326 233 290 342 q 422 65 361 124 q 556 6 482 6 q 691 68 633 6 q 780 241 749 131 q 811 494 811 351 q 776 751 811 643 q 680 919 740 860 q 546 978 619 978 m 426 1283 q 512 1268 475 1283 q 580 1233 549 1253 q 644 1199 611 1214 q 718 1185 676 1185 q 781 1202 751 1185 q 833 1260 810 1219 l 853 1253 q 783 1112 835 1157 q 668 1067 731 1067 q 583 1081 619 1067 q 514 1116 546 1096 q 449 1151 482 1136 q 375 1165 417 1165 q 313 1148 342 1165 q 260 1089 283 1131 l 240 1096 q 312 1238 260 1193 q 426 1283 364 1283 z "},"Œ":{"ha":1382,"x_min":60,"x_max":1319,"o":"m 543 1003 q 606 997 575 1003 q 664 981 636 992 q 798 980 732 981 q 920 979 864 979 q 1013 979 976 979 q 1152 980 1074 979 q 1292 983 1231 981 q 1284 875 1286 928 q 1282 794 1282 822 q 1283 742 1282 767 q 1286 700 1285 717 l 1254 700 q 1218 851 1243 796 q 1154 928 1193 906 q 1060 951 1115 951 l 1031 951 q 965 944 988 951 q 935 912 943 936 q 926 836 926 888 l 926 147 q 935 72 926 97 q 965 40 943 47 q 1031 32 988 32 l 1071 32 q 1169 58 1126 32 q 1242 145 1213 85 q 1282 311 1271 206 l 1314 311 q 1310 194 1310 267 q 1312 112 1310 165 q 1319 0 1314 58 q 1166 3 1251 3 q 1013 4 1081 4 q 919 4 976 4 q 794 4 861 4 q 660 3 726 4 q 603 -13 633 -7 q 542 -19 572 -19 q 289 40 397 -19 q 120 213 181 100 q 60 483 60 325 q 122 756 60 639 q 292 938 183 872 q 543 1003 401 1003 m 538 978 q 407 915 463 978 q 321 743 351 853 q 290 489 290 633 q 324 233 290 342 q 417 65 358 124 q 547 6 476 6 q 617 19 581 6 q 680 59 654 32 q 706 131 706 86 l 706 844 q 678 926 706 897 q 613 966 651 954 q 538 978 574 978 m 1113 508 l 1113 481 l 885 481 l 885 508 l 1113 508 m 1147 672 q 1142 564 1142 601 q 1143 494 1143 526 q 1144 426 1143 463 q 1151 317 1146 389 l 1119 317 q 1102 394 1114 357 q 1064 456 1090 432 q 983 481 1038 481 l 983 508 q 1048 525 1024 508 q 1085 568 1072 542 q 1104 622 1097 594 q 1115 672 1111 650 l 1147 672 z "},"P":{"ha":890,"x_min":47,"x_max":861,"o":"m 47 983 q 141 981 82 982 q 258 979 200 979 q 388 981 325 979 q 476 982 450 982 q 765 906 669 982 q 861 708 861 829 q 842 603 861 658 q 776 502 822 549 q 649 426 729 456 q 446 397 568 397 l 304 397 l 304 425 l 432 425 q 556 463 514 425 q 615 561 599 500 q 631 693 631 622 q 592 890 631 825 q 458 956 553 956 q 388 932 404 956 q 372 836 372 908 l 372 156 q 383 75 372 101 q 426 40 394 49 q 521 31 458 32 l 521 0 q 410 3 478 1 q 267 4 342 4 q 150 3 207 4 q 47 0 93 1 l 47 28 q 114 39 92 31 q 144 72 136 47 q 151 147 151 97 l 151 836 q 144 912 151 888 q 113 945 136 936 q 47 956 90 954 l 47 983 z "},"Þ":{"ha":863,"x_min":47,"x_max":835,"o":"m 450 788 q 665 756 579 788 q 792 665 750 725 q 835 521 835 606 q 815 406 835 463 q 749 304 796 350 q 622 231 703 258 q 419 203 542 203 l 286 203 q 286 217 286 203 q 286 231 286 231 l 406 231 q 530 269 488 231 q 588 371 572 307 q 604 508 604 435 q 562 697 604 632 q 415 761 519 761 q 352 760 386 761 q 288 759 318 760 q 243 758 258 758 l 240 785 q 365 786 306 785 q 450 788 425 788 m 476 983 l 476 956 q 409 945 432 954 q 379 912 386 936 q 372 836 372 888 l 372 147 q 380 72 372 97 q 410 39 388 47 q 476 28 432 31 l 476 0 q 382 3 439 3 q 267 4 325 4 q 141 3 199 4 q 47 0 83 3 l 47 28 q 114 39 92 31 q 144 72 136 47 q 151 147 151 97 l 151 836 q 144 912 151 888 q 113 945 136 936 q 47 956 90 954 l 47 983 q 141 981 83 982 q 267 979 199 979 q 382 981 325 979 q 476 983 439 982 z "},"Q":{"ha":1101,"x_min":60,"x_max":1086,"o":"m 1061 17 l 1086 10 q 1051 -122 1075 -67 q 990 -207 1028 -176 q 915 -246 961 -231 q 811 -261 868 -261 q 662 -237 735 -261 q 514 -180 589 -214 q 356 -114 439 -146 q 337 -108 346 -111 q 322 -104 328 -104 q 265 -125 296 -117 q 206 -133 233 -133 q 159 -125 178 -133 q 140 -97 140 -117 q 217 -60 140 -60 q 322 -79 265 -60 q 410 -48 374 -65 q 487 -15 447 -31 q 583 4 526 0 l 585 -18 q 509 -34 540 -22 q 446 -60 478 -46 q 371 -86 414 -74 q 554 -101 469 -93 q 711 -110 639 -108 q 842 -104 783 -112 q 978 -67 928 -94 q 1061 17 1028 -39 m 551 1003 q 809 943 699 1003 q 981 772 919 883 q 1042 500 1042 660 q 979 228 1042 344 q 805 46 917 111 q 550 -19 693 -19 q 292 40 403 -19 q 121 213 182 100 q 60 483 60 325 q 123 756 60 639 q 297 938 186 872 q 551 1003 407 1003 m 546 978 q 410 915 468 978 q 322 743 353 853 q 290 489 290 633 q 326 233 290 342 q 422 65 361 124 q 556 6 482 6 q 691 68 633 6 q 780 241 749 131 q 811 494 811 351 q 776 751 811 643 q 680 919 740 860 q 546 978 619 978 z "},"R":{"ha":961,"x_min":47,"x_max":989,"o":"m 47 983 q 141 981 82 982 q 258 979 200 979 q 388 981 325 979 q 476 982 450 982 q 691 953 606 982 q 819 871 776 925 q 861 740 861 817 q 842 645 861 693 q 776 556 822 597 q 649 491 729 515 q 446 467 568 467 l 313 467 l 313 494 l 432 494 q 556 526 514 494 q 615 609 599 557 q 631 725 631 661 q 592 895 631 835 q 458 956 553 956 q 388 932 404 956 q 372 836 372 908 l 372 147 q 380 72 372 97 q 410 39 388 47 q 476 28 432 31 l 476 0 q 382 3 439 3 q 267 4 325 4 q 141 3 200 4 q 47 0 82 3 l 47 28 q 114 39 92 31 q 144 72 136 47 q 151 147 151 97 l 151 836 q 144 912 151 888 q 113 945 136 936 q 47 956 90 954 l 47 983 m 310 490 q 413 485 369 489 q 490 477 457 481 q 550 472 524 474 q 737 418 676 461 q 815 289 797 375 l 847 146 q 874 68 860 90 q 914 46 888 46 q 944 55 932 47 q 969 78 956 63 l 989 61 q 908 -1 951 18 q 804 -19 865 -19 q 681 13 729 -19 q 617 131 632 44 l 592 269 q 568 372 582 328 q 530 441 554 415 q 463 467 506 467 l 313 467 l 310 490 z "},"Ŕ":{"ha":961,"x_min":47,"x_max":989,"o":"m 47 983 q 141 981 82 982 q 258 979 200 979 q 388 981 325 979 q 476 982 450 982 q 691 953 606 982 q 819 871 776 925 q 861 740 861 817 q 842 645 861 693 q 776 556 822 597 q 649 491 729 515 q 446 467 568 467 l 313 467 l 313 494 l 432 494 q 556 526 514 494 q 615 609 599 557 q 631 725 631 661 q 592 895 631 835 q 458 956 553 956 q 388 932 404 956 q 372 836 372 908 l 372 147 q 380 72 372 97 q 410 39 388 47 q 476 28 432 31 l 476 0 q 382 3 439 3 q 267 4 325 4 q 141 3 200 4 q 47 0 82 3 l 47 28 q 114 39 92 31 q 144 72 136 47 q 151 147 151 97 l 151 836 q 144 912 151 888 q 113 945 136 936 q 47 956 90 954 l 47 983 m 310 490 q 413 485 369 489 q 490 477 457 481 q 550 472 524 474 q 737 418 676 461 q 815 289 797 375 l 847 146 q 874 68 860 90 q 914 46 888 46 q 944 55 932 47 q 969 78 956 63 l 989 61 q 908 -1 951 18 q 804 -19 865 -19 q 681 13 729 -19 q 617 131 632 44 l 592 269 q 568 372 582 328 q 530 441 554 415 q 463 467 506 467 l 313 467 l 310 490 m 574 1297 q 637 1306 603 1314 q 686 1267 671 1299 q 690 1211 700 1240 q 647 1164 679 1182 q 579 1138 617 1147 q 489 1115 542 1129 q 358 1072 436 1101 l 349 1089 q 452 1183 415 1143 q 515 1252 489 1224 q 574 1297 542 1281 z "},"Ř":{"ha":961,"x_min":47,"x_max":989,"o":"m 47 983 q 141 981 82 982 q 258 979 200 979 q 388 981 325 979 q 476 982 450 982 q 691 953 606 982 q 819 871 776 925 q 861 740 861 817 q 842 645 861 693 q 776 556 822 597 q 649 491 729 515 q 446 467 568 467 l 313 467 l 313 494 l 432 494 q 556 526 514 494 q 615 609 599 557 q 631 725 631 661 q 592 895 631 835 q 458 956 553 956 q 388 932 404 956 q 372 836 372 908 l 372 147 q 380 72 372 97 q 410 39 388 47 q 476 28 432 31 l 476 0 q 382 3 439 3 q 267 4 325 4 q 141 3 200 4 q 47 0 82 3 l 47 28 q 114 39 92 31 q 144 72 136 47 q 151 147 151 97 l 151 836 q 144 912 151 888 q 113 945 136 936 q 47 956 90 954 l 47 983 m 310 490 q 413 485 369 489 q 490 477 457 481 q 550 472 524 474 q 737 418 676 461 q 815 289 797 375 l 847 146 q 874 68 860 90 q 914 46 888 46 q 944 55 932 47 q 969 78 956 63 l 989 61 q 908 -1 951 18 q 804 -19 865 -19 q 681 13 729 -19 q 617 131 632 44 l 592 269 q 568 372 582 328 q 530 441 554 415 q 463 467 506 467 l 313 467 l 310 490 m 736 1303 l 743 1282 q 577 1185 653 1244 q 458 1065 501 1126 l 433 1065 q 316 1185 392 1126 q 149 1282 240 1244 l 156 1303 q 334 1263 246 1288 q 474 1213 422 1238 q 590 1263 517 1238 q 736 1303 663 1288 z "},"Ŗ":{"ha":961,"x_min":47,"x_max":989,"o":"m 47 983 q 141 981 82 982 q 258 979 200 979 q 388 981 325 979 q 476 982 450 982 q 691 953 606 982 q 819 871 776 925 q 861 740 861 817 q 842 645 861 693 q 776 556 822 597 q 649 491 729 515 q 446 467 568 467 l 313 467 l 313 494 l 432 494 q 556 526 514 494 q 615 609 599 557 q 631 725 631 661 q 592 895 631 835 q 458 956 553 956 q 388 932 404 956 q 372 836 372 908 l 372 147 q 380 72 372 97 q 410 39 388 47 q 476 28 432 31 l 476 0 q 382 3 439 3 q 267 4 325 4 q 141 3 200 4 q 47 0 82 3 l 47 28 q 114 39 92 31 q 144 72 136 47 q 151 147 151 97 l 151 836 q 144 912 151 888 q 113 945 136 936 q 47 956 90 954 l 47 983 m 310 490 q 413 485 369 489 q 490 477 457 481 q 550 472 524 474 q 737 418 676 461 q 815 289 797 375 l 847 146 q 874 68 860 90 q 914 46 888 46 q 944 55 932 47 q 969 78 956 63 l 989 61 q 908 -1 951 18 q 804 -19 865 -19 q 681 13 729 -19 q 617 131 632 44 l 592 269 q 568 372 582 328 q 530 441 554 415 q 463 467 506 467 l 313 467 l 310 490 m 501 -76 q 583 -105 551 -76 q 615 -183 615 -133 q 577 -285 615 -244 q 457 -337 539 -326 l 451 -308 q 529 -283 500 -301 q 563 -232 558 -264 q 536 -248 553 -242 q 494 -254 519 -254 q 423 -231 450 -254 q 396 -167 396 -208 q 424 -100 396 -124 q 501 -76 453 -76 z "},"S":{"ha":811,"x_min":76,"x_max":754,"o":"m 394 1001 q 521 984 476 1001 q 597 947 565 967 q 624 933 614 938 q 644 928 635 928 q 665 943 658 928 q 675 989 671 958 l 707 989 q 703 926 706 963 q 701 829 701 889 q 700 672 700 769 l 668 672 q 635 813 663 744 q 556 924 607 881 q 432 968 506 968 q 322 931 365 968 q 279 826 279 893 q 307 731 279 771 q 388 654 335 692 q 518 564 442 617 q 638 478 585 521 q 722 381 690 435 q 754 251 754 326 q 706 100 754 160 q 581 10 658 40 q 410 -19 503 -19 q 272 -3 324 -19 q 186 32 221 14 q 139 51 156 51 q 119 36 125 51 q 108 -10 113 21 l 76 -10 q 80 68 79 24 q 81 184 81 113 q 82 365 82 256 l 114 365 q 145 194 119 274 q 224 65 171 114 q 367 17 278 17 q 453 34 415 17 q 515 86 492 51 q 539 172 539 121 q 512 274 539 231 q 438 354 485 317 q 331 431 392 392 q 208 517 265 474 q 117 615 151 560 q 83 747 83 671 q 127 891 83 835 q 242 974 171 947 q 394 1001 314 1001 z "},"Ś":{"ha":811,"x_min":76,"x_max":754,"o":"m 394 1001 q 521 984 476 1001 q 597 947 565 967 q 624 933 614 938 q 644 928 635 928 q 665 943 658 928 q 675 989 671 958 l 707 989 q 703 926 706 963 q 701 829 701 889 q 700 672 700 769 l 668 672 q 635 813 663 744 q 556 924 607 881 q 432 968 506 968 q 322 931 365 968 q 279 826 279 893 q 307 731 279 771 q 388 654 335 692 q 518 564 442 617 q 638 478 585 521 q 722 381 690 435 q 754 251 754 326 q 706 100 754 160 q 581 10 658 40 q 410 -19 503 -19 q 272 -3 324 -19 q 186 32 221 14 q 139 51 156 51 q 119 36 125 51 q 108 -10 113 21 l 76 -10 q 80 68 79 24 q 81 184 81 113 q 82 365 82 256 l 114 365 q 145 194 119 274 q 224 65 171 114 q 367 17 278 17 q 453 34 415 17 q 515 86 492 51 q 539 172 539 121 q 512 274 539 231 q 438 354 485 317 q 331 431 392 392 q 208 517 265 474 q 117 615 151 560 q 83 747 83 671 q 127 891 83 835 q 242 974 171 947 q 394 1001 314 1001 m 538 1297 q 601 1306 567 1314 q 650 1267 635 1299 q 653 1211 664 1240 q 611 1164 643 1182 q 543 1138 581 1147 q 453 1115 506 1129 q 322 1072 400 1101 l 313 1089 q 416 1183 379 1143 q 479 1252 453 1224 q 538 1297 506 1281 z "},"Š":{"ha":811,"x_min":76,"x_max":754,"o":"m 394 1001 q 521 984 476 1001 q 597 947 565 967 q 624 933 614 938 q 644 928 635 928 q 665 943 658 928 q 675 989 671 958 l 707 989 q 703 926 706 963 q 701 829 701 889 q 700 672 700 769 l 668 672 q 635 813 663 744 q 556 924 607 881 q 432 968 506 968 q 322 931 365 968 q 279 826 279 893 q 307 731 279 771 q 388 654 335 692 q 518 564 442 617 q 638 478 585 521 q 722 381 690 435 q 754 251 754 326 q 706 100 754 160 q 581 10 658 40 q 410 -19 503 -19 q 272 -3 324 -19 q 186 32 221 14 q 139 51 156 51 q 119 36 125 51 q 108 -10 113 21 l 76 -10 q 80 68 79 24 q 81 184 81 113 q 82 365 82 256 l 114 365 q 145 194 119 274 q 224 65 171 114 q 367 17 278 17 q 453 34 415 17 q 515 86 492 51 q 539 172 539 121 q 512 274 539 231 q 438 354 485 317 q 331 431 392 392 q 208 517 265 474 q 117 615 151 560 q 83 747 83 671 q 127 891 83 835 q 242 974 171 947 q 394 1001 314 1001 m 700 1303 l 707 1282 q 541 1185 617 1244 q 422 1065 465 1126 l 397 1065 q 280 1185 356 1126 q 113 1282 204 1244 l 119 1303 q 298 1263 210 1288 q 438 1213 386 1238 q 553 1263 481 1238 q 700 1303 626 1288 z "},"Ş":{"ha":811,"x_min":76,"x_max":754,"o":"m 394 1001 q 521 984 476 1001 q 597 947 565 967 q 624 933 614 938 q 644 928 635 928 q 665 943 658 928 q 675 989 671 958 l 707 989 q 703 926 706 963 q 701 829 701 889 q 700 672 700 769 l 668 672 q 635 813 663 744 q 556 924 607 881 q 432 968 506 968 q 322 931 365 968 q 279 826 279 893 q 307 731 279 771 q 388 654 335 692 q 518 564 442 617 q 638 478 585 521 q 722 381 690 435 q 754 251 754 326 q 706 100 754 160 q 581 10 658 40 q 410 -19 503 -19 q 272 -3 324 -19 q 186 32 221 14 q 139 51 156 51 q 119 36 125 51 q 108 -10 113 21 l 76 -10 q 80 68 79 24 q 81 184 81 113 q 82 365 82 256 l 114 365 q 145 194 119 274 q 224 65 171 114 q 367 17 278 17 q 453 34 415 17 q 515 86 492 51 q 539 172 539 121 q 512 274 539 231 q 438 354 485 317 q 331 431 392 392 q 208 517 265 474 q 117 615 151 560 q 83 747 83 671 q 127 891 83 835 q 242 974 171 947 q 394 1001 314 1001 m 429 7 l 399 -90 q 449 -78 422 -82 q 506 -74 476 -74 q 583 -94 557 -74 q 610 -149 610 -114 q 579 -212 610 -187 q 499 -249 549 -237 q 390 -261 449 -261 q 317 -256 350 -261 q 261 -244 283 -251 l 268 -219 q 297 -223 278 -221 q 338 -225 315 -225 q 396 -219 367 -225 q 444 -201 425 -214 q 464 -168 464 -189 q 447 -140 464 -149 q 400 -132 431 -132 q 374 -134 389 -132 q 346 -142 358 -136 l 392 7 l 429 7 z "},"Ŝ":{"ha":811,"x_min":76,"x_max":754,"o":"m 394 1001 q 521 984 476 1001 q 597 947 565 967 q 624 933 614 938 q 644 928 635 928 q 665 943 658 928 q 675 989 671 958 l 707 989 q 703 926 706 963 q 701 829 701 889 q 700 672 700 769 l 668 672 q 635 813 663 744 q 556 924 607 881 q 432 968 506 968 q 322 931 365 968 q 279 826 279 893 q 307 731 279 771 q 388 654 335 692 q 518 564 442 617 q 638 478 585 521 q 722 381 690 435 q 754 251 754 326 q 706 100 754 160 q 581 10 658 40 q 410 -19 503 -19 q 272 -3 324 -19 q 186 32 221 14 q 139 51 156 51 q 119 36 125 51 q 108 -10 113 21 l 76 -10 q 80 68 79 24 q 81 184 81 113 q 82 365 82 256 l 114 365 q 145 194 119 274 q 224 65 171 114 q 367 17 278 17 q 453 34 415 17 q 515 86 492 51 q 539 172 539 121 q 512 274 539 231 q 438 354 485 317 q 331 431 392 392 q 208 517 265 474 q 117 615 151 560 q 83 747 83 671 q 127 891 83 835 q 242 974 171 947 q 394 1001 314 1001 m 426 1306 q 544 1187 468 1246 q 711 1089 619 1128 l 704 1068 q 526 1110 614 1085 q 386 1158 438 1135 q 270 1110 343 1135 q 124 1068 197 1085 l 117 1089 q 283 1186 207 1128 q 401 1306 358 1244 l 426 1306 z "},"Ș":{"ha":811,"x_min":76,"x_max":754,"o":"m 394 1001 q 521 984 476 1001 q 597 947 565 967 q 624 933 614 938 q 644 928 635 928 q 665 943 658 928 q 675 989 671 958 l 707 989 q 703 926 706 963 q 701 829 701 889 q 700 672 700 769 l 668 672 q 635 813 663 744 q 556 924 607 881 q 432 968 506 968 q 322 931 365 968 q 279 826 279 893 q 307 731 279 771 q 388 654 335 692 q 518 564 442 617 q 638 478 585 521 q 722 381 690 435 q 754 251 754 326 q 706 100 754 160 q 581 10 658 40 q 410 -19 503 -19 q 272 -3 324 -19 q 186 32 221 14 q 139 51 156 51 q 119 36 125 51 q 108 -10 113 21 l 76 -10 q 80 68 79 24 q 81 184 81 113 q 82 365 82 256 l 114 365 q 145 194 119 274 q 224 65 171 114 q 367 17 278 17 q 453 34 415 17 q 515 86 492 51 q 539 172 539 121 q 512 274 539 231 q 438 354 485 317 q 331 431 392 392 q 208 517 265 474 q 117 615 151 560 q 83 747 83 671 q 127 891 83 835 q 242 974 171 947 q 394 1001 314 1001 m 414 -76 q 496 -105 464 -76 q 528 -183 528 -133 q 490 -285 528 -244 q 369 -337 451 -326 l 364 -308 q 442 -283 413 -301 q 475 -232 471 -264 q 449 -248 465 -242 q 407 -254 432 -254 q 335 -231 363 -254 q 308 -167 308 -208 q 337 -100 308 -124 q 414 -76 365 -76 z "},"ẞ":{"ha":1050,"x_min":13,"x_max":1015,"o":"m 574 1003 q 780 973 688 1003 q 942 896 872 943 l 700 564 q 874 499 804 540 q 980 399 944 457 q 1015 271 1015 342 q 966 119 1015 185 q 832 17 917 54 q 640 -19 747 -19 q 552 -12 588 -19 q 490 7 517 -6 q 429 62 449 26 q 410 138 410 97 q 440 224 410 193 q 515 256 471 256 q 588 226 560 256 q 617 146 617 196 q 592 68 617 99 q 533 24 568 38 q 565 13 544 17 q 597 10 585 10 q 693 38 651 10 q 760 121 735 67 q 785 254 785 175 q 707 473 785 388 q 482 599 629 558 l 724 953 q 666 972 701 965 q 600 978 631 978 q 467 946 526 978 q 372 832 407 914 q 338 600 338 750 l 338 147 q 349 53 338 78 q 397 28 360 29 l 397 0 q 349 1 372 0 q 294 3 326 3 q 211 4 263 4 q 145 3 182 4 q 72 2 108 3 q 13 0 36 1 l 13 28 q 78 39 56 31 q 109 72 101 47 q 117 147 117 97 l 117 515 q 171 792 117 685 q 328 951 225 900 q 574 1003 431 1003 z "},"Ə":{"ha":1085,"x_min":58,"x_max":1025,"o":"m 536 -19 q 278 44 386 -19 q 115 226 171 108 q 60 508 58 344 l 863 508 l 865 482 l 288 482 q 310 240 279 347 q 403 72 340 133 q 550 10 465 10 q 685 66 631 10 q 769 223 740 122 q 797 458 797 324 q 757 737 797 624 q 643 908 717 850 q 469 967 569 967 q 272 882 347 967 q 178 647 196 797 l 146 647 q 144 858 146 782 q 140 983 143 933 l 172 983 q 192 909 179 924 q 235 913 204 894 q 293 947 257 925 q 388 986 329 968 q 536 1004 447 1004 q 797 942 688 1004 q 966 767 907 881 q 1025 496 1025 653 q 965 222 1025 338 q 794 43 904 106 q 536 -19 685 -19 z "},"T":{"ha":928,"x_min":35,"x_max":892,"o":"m 892 983 q 884 847 886 913 q 882 747 882 782 q 883 689 882 717 q 886 642 885 661 l 854 642 q 798 826 832 758 q 717 923 764 894 q 606 951 669 951 l 574 951 l 574 158 q 585 75 574 103 q 629 38 597 47 q 722 28 661 29 l 722 0 q 608 3 679 1 q 458 4 536 4 q 314 3 382 4 q 204 0 246 1 l 204 28 q 299 38 267 29 q 342 75 331 47 q 353 158 353 103 l 353 951 l 322 951 q 211 923 258 951 q 131 827 164 894 q 72 642 97 760 l 40 642 q 44 689 43 661 q 44 747 44 717 q 42 847 44 782 q 35 983 40 913 q 174 981 99 982 q 326 979 250 979 q 464 979 403 979 q 602 979 526 979 q 754 981 678 979 q 892 983 831 982 z "},"Ŧ":{"ha":928,"x_min":35,"x_max":892,"o":"m 768 506 l 768 478 l 161 478 l 161 506 l 768 506 m 892 983 q 884 847 886 913 q 882 747 882 782 q 883 689 882 717 q 886 642 885 661 l 854 642 q 798 826 832 758 q 717 923 764 894 q 606 951 669 951 l 574 951 l 574 158 q 585 75 574 103 q 629 38 597 47 q 722 28 661 29 l 722 0 q 608 3 679 1 q 458 4 536 4 q 314 3 382 4 q 204 0 246 1 l 204 28 q 299 38 267 29 q 342 75 331 47 q 353 158 353 103 l 353 951 l 322 951 q 211 923 258 951 q 131 827 164 894 q 72 642 97 760 l 40 642 q 44 689 43 661 q 44 747 44 717 q 42 847 44 782 q 35 983 40 913 q 174 981 99 982 q 326 979 250 979 q 464 979 403 979 q 602 979 526 979 q 754 981 678 979 q 892 983 831 982 z "},"Ť":{"ha":928,"x_min":35,"x_max":892,"o":"m 892 983 q 884 847 886 913 q 882 747 882 782 q 883 689 882 717 q 886 642 885 661 l 854 642 q 798 826 832 758 q 717 923 764 894 q 606 951 669 951 l 574 951 l 574 158 q 585 75 574 103 q 629 38 597 47 q 722 28 661 29 l 722 0 q 608 3 679 1 q 458 4 536 4 q 314 3 382 4 q 204 0 246 1 l 204 28 q 299 38 267 29 q 342 75 331 47 q 353 158 353 103 l 353 951 l 322 951 q 211 923 258 951 q 131 827 164 894 q 72 642 97 760 l 40 642 q 44 689 43 661 q 44 747 44 717 q 42 847 44 782 q 35 983 40 913 q 174 981 99 982 q 326 979 250 979 q 464 979 403 979 q 602 979 526 979 q 754 981 678 979 q 892 983 831 982 m 750 1303 l 757 1282 q 591 1185 667 1244 q 472 1065 515 1126 l 447 1065 q 330 1185 406 1126 q 163 1282 254 1244 l 169 1303 q 348 1263 260 1288 q 488 1213 436 1238 q 603 1263 531 1238 q 750 1303 676 1288 z "},"Ţ":{"ha":928,"x_min":35,"x_max":892,"o":"m 892 983 q 884 847 886 913 q 882 747 882 782 q 883 689 882 717 q 886 642 885 661 l 854 642 q 798 826 832 758 q 717 923 764 894 q 606 951 669 951 l 574 951 l 574 158 q 585 75 574 103 q 629 38 597 47 q 722 28 661 29 l 722 0 q 608 3 679 1 q 458 4 536 4 q 314 3 382 4 q 204 0 246 1 l 204 28 q 299 38 267 29 q 342 75 331 47 q 353 158 353 103 l 353 951 l 322 951 q 211 923 258 951 q 131 827 164 894 q 72 642 97 760 l 40 642 q 44 689 43 661 q 44 747 44 717 q 42 847 44 782 q 35 983 40 913 q 174 981 99 982 q 326 979 250 979 q 464 979 403 979 q 602 979 526 979 q 754 981 678 979 q 892 983 831 982 m 479 7 l 449 -90 q 499 -78 472 -82 q 556 -74 526 -74 q 633 -94 607 -74 q 660 -149 660 -114 q 629 -212 660 -187 q 549 -249 599 -237 q 440 -261 499 -261 q 367 -256 400 -261 q 311 -244 333 -251 l 318 -219 q 347 -223 328 -221 q 388 -225 365 -225 q 446 -219 417 -225 q 494 -201 475 -214 q 514 -168 514 -189 q 497 -140 514 -149 q 450 -132 481 -132 q 424 -134 439 -132 q 396 -142 408 -136 l 442 7 l 479 7 z "},"Ț":{"ha":928,"x_min":35,"x_max":892,"o":"m 892 983 q 884 847 886 913 q 882 747 882 782 q 883 689 882 717 q 886 642 885 661 l 854 642 q 798 826 832 758 q 717 923 764 894 q 606 951 669 951 l 574 951 l 574 158 q 585 75 574 103 q 629 38 597 47 q 722 28 661 29 l 722 0 q 608 3 679 1 q 458 4 536 4 q 314 3 382 4 q 204 0 246 1 l 204 28 q 299 38 267 29 q 342 75 331 47 q 353 158 353 103 l 353 951 l 322 951 q 211 923 258 951 q 131 827 164 894 q 72 642 97 760 l 40 642 q 44 689 43 661 q 44 747 44 717 q 42 847 44 782 q 35 983 40 913 q 174 981 99 982 q 326 979 250 979 q 464 979 403 979 q 602 979 526 979 q 754 981 678 979 q 892 983 831 982 m 456 -76 q 538 -105 506 -76 q 569 -183 569 -133 q 531 -285 569 -244 q 411 -337 493 -326 l 406 -308 q 483 -283 454 -301 q 517 -232 513 -264 q 490 -248 507 -242 q 449 -254 474 -254 q 377 -231 404 -254 q 350 -167 350 -208 q 378 -100 350 -124 q 456 -76 407 -76 z "},"U":{"ha":957,"x_min":26,"x_max":932,"o":"m 932 983 l 932 956 q 865 933 888 950 q 835 878 842 915 q 828 772 828 840 l 828 404 q 815 239 828 314 q 771 110 803 164 q 665 15 735 50 q 489 -19 596 -19 q 358 -5 425 -19 q 239 50 292 10 q 171 135 194 88 q 139 247 147 182 q 131 400 131 311 l 131 836 q 123 912 131 888 q 93 945 115 936 q 26 956 71 954 l 26 983 q 120 981 61 982 q 243 979 179 979 q 366 981 307 979 q 464 983 425 982 l 464 956 q 392 945 417 954 q 360 912 368 936 q 351 836 351 888 l 351 313 q 360 190 351 243 q 391 101 369 136 q 450 47 413 65 q 543 29 488 29 q 695 75 640 29 q 773 202 750 121 q 796 389 796 283 l 796 756 q 786 873 796 832 q 748 932 776 914 q 661 956 719 950 l 661 983 q 731 981 688 982 q 811 979 774 979 q 877 981 844 979 q 932 983 910 982 z "},"Ú":{"ha":957,"x_min":26,"x_max":932,"o":"m 932 983 l 932 956 q 865 933 888 950 q 835 878 842 915 q 828 772 828 840 l 828 404 q 815 239 828 314 q 771 110 803 164 q 665 15 735 50 q 489 -19 596 -19 q 358 -5 425 -19 q 239 50 292 10 q 171 135 194 88 q 139 247 147 182 q 131 400 131 311 l 131 836 q 123 912 131 888 q 93 945 115 936 q 26 956 71 954 l 26 983 q 120 981 61 982 q 243 979 179 979 q 366 981 307 979 q 464 983 425 982 l 464 956 q 392 945 417 954 q 360 912 368 936 q 351 836 351 888 l 351 313 q 360 190 351 243 q 391 101 369 136 q 450 47 413 65 q 543 29 488 29 q 695 75 640 29 q 773 202 750 121 q 796 389 796 283 l 796 756 q 786 873 796 832 q 748 932 776 914 q 661 956 719 950 l 661 983 q 731 981 688 982 q 811 979 774 979 q 877 981 844 979 q 932 983 910 982 m 619 1297 q 683 1306 649 1314 q 732 1267 717 1299 q 735 1211 746 1240 q 693 1164 725 1182 q 625 1138 663 1147 q 535 1115 588 1129 q 404 1072 482 1101 l 394 1089 q 498 1183 461 1143 q 561 1252 535 1224 q 619 1297 588 1281 z "},"Ŭ":{"ha":957,"x_min":26,"x_max":932,"o":"m 932 983 l 932 956 q 865 933 888 950 q 835 878 842 915 q 828 772 828 840 l 828 404 q 815 239 828 314 q 771 110 803 164 q 665 15 735 50 q 489 -19 596 -19 q 358 -5 425 -19 q 239 50 292 10 q 171 135 194 88 q 139 247 147 182 q 131 400 131 311 l 131 836 q 123 912 131 888 q 93 945 115 936 q 26 956 71 954 l 26 983 q 120 981 61 982 q 243 979 179 979 q 366 981 307 979 q 464 983 425 982 l 464 956 q 392 945 417 954 q 360 912 368 936 q 351 836 351 888 l 351 313 q 360 190 351 243 q 391 101 369 136 q 450 47 413 65 q 543 29 488 29 q 695 75 640 29 q 773 202 750 121 q 796 389 796 283 l 796 756 q 786 873 796 832 q 748 932 776 914 q 661 956 719 950 l 661 983 q 731 981 688 982 q 811 979 774 979 q 877 981 844 979 q 932 983 910 982 m 781 1272 l 797 1257 q 738 1171 778 1214 q 635 1099 697 1128 q 488 1071 572 1071 q 340 1099 403 1071 q 238 1171 278 1128 q 178 1257 197 1214 l 194 1271 q 303 1215 232 1243 q 488 1188 375 1188 q 672 1215 600 1188 q 781 1272 743 1243 z "},"Ǔ":{"ha":957,"x_min":26,"x_max":932,"o":"m 932 983 l 932 956 q 865 933 888 950 q 835 878 842 915 q 828 772 828 840 l 828 404 q 815 239 828 314 q 771 110 803 164 q 665 15 735 50 q 489 -19 596 -19 q 358 -5 425 -19 q 239 50 292 10 q 171 135 194 88 q 139 247 147 182 q 131 400 131 311 l 131 836 q 123 912 131 888 q 93 945 115 936 q 26 956 71 954 l 26 983 q 120 981 61 982 q 243 979 179 979 q 366 981 307 979 q 464 983 425 982 l 464 956 q 392 945 417 954 q 360 912 368 936 q 351 836 351 888 l 351 313 q 360 190 351 243 q 391 101 369 136 q 450 47 413 65 q 543 29 488 29 q 695 75 640 29 q 773 202 750 121 q 796 389 796 283 l 796 756 q 786 873 796 832 q 748 932 776 914 q 661 956 719 950 l 661 983 q 731 981 688 982 q 811 979 774 979 q 877 981 844 979 q 932 983 910 982 m 782 1303 l 789 1282 q 623 1185 699 1244 q 504 1065 547 1126 l 479 1065 q 362 1185 438 1126 q 194 1282 286 1244 l 201 1303 q 380 1263 292 1288 q 519 1213 468 1238 q 635 1263 563 1238 q 782 1303 708 1288 z "},"Û":{"ha":957,"x_min":26,"x_max":932,"o":"m 932 983 l 932 956 q 865 933 888 950 q 835 878 842 915 q 828 772 828 840 l 828 404 q 815 239 828 314 q 771 110 803 164 q 665 15 735 50 q 489 -19 596 -19 q 358 -5 425 -19 q 239 50 292 10 q 171 135 194 88 q 139 247 147 182 q 131 400 131 311 l 131 836 q 123 912 131 888 q 93 945 115 936 q 26 956 71 954 l 26 983 q 120 981 61 982 q 243 979 179 979 q 366 981 307 979 q 464 983 425 982 l 464 956 q 392 945 417 954 q 360 912 368 936 q 351 836 351 888 l 351 313 q 360 190 351 243 q 391 101 369 136 q 450 47 413 65 q 543 29 488 29 q 695 75 640 29 q 773 202 750 121 q 796 389 796 283 l 796 756 q 786 873 796 832 q 748 932 776 914 q 661 956 719 950 l 661 983 q 731 981 688 982 q 811 979 774 979 q 877 981 844 979 q 932 983 910 982 m 508 1306 q 626 1187 550 1246 q 793 1089 701 1128 l 786 1068 q 608 1110 696 1085 q 468 1158 519 1135 q 352 1110 425 1135 q 206 1068 279 1085 l 199 1089 q 365 1186 289 1128 q 483 1306 440 1244 l 508 1306 z "},"Ü":{"ha":957,"x_min":26,"x_max":932,"o":"m 932 983 l 932 956 q 865 933 888 950 q 835 878 842 915 q 828 772 828 840 l 828 404 q 815 239 828 314 q 771 110 803 164 q 665 15 735 50 q 489 -19 596 -19 q 358 -5 425 -19 q 239 50 292 10 q 171 135 194 88 q 139 247 147 182 q 131 400 131 311 l 131 836 q 123 912 131 888 q 93 945 115 936 q 26 956 71 954 l 26 983 q 120 981 61 982 q 243 979 179 979 q 366 981 307 979 q 464 983 425 982 l 464 956 q 392 945 417 954 q 360 912 368 936 q 351 836 351 888 l 351 313 q 360 190 351 243 q 391 101 369 136 q 450 47 413 65 q 543 29 488 29 q 695 75 640 29 q 773 202 750 121 q 796 389 796 283 l 796 756 q 786 873 796 832 q 748 932 776 914 q 661 956 719 950 l 661 983 q 731 981 688 982 q 811 979 774 979 q 877 981 844 979 q 932 983 910 982 m 663 1274 q 735 1242 704 1274 q 767 1168 767 1210 q 735 1094 767 1125 q 663 1064 704 1064 q 588 1094 619 1064 q 557 1169 557 1125 q 588 1242 557 1211 q 663 1274 619 1274 m 329 1274 q 403 1242 371 1274 q 435 1168 435 1210 q 403 1094 435 1125 q 329 1064 371 1064 q 256 1094 286 1064 q 225 1169 225 1125 q 256 1242 225 1211 q 329 1274 286 1274 z "},"Ụ":{"ha":957,"x_min":26,"x_max":932,"o":"m 932 983 l 932 956 q 865 933 888 950 q 835 878 842 915 q 828 772 828 840 l 828 404 q 815 239 828 314 q 771 110 803 164 q 665 15 735 50 q 489 -19 596 -19 q 358 -5 425 -19 q 239 50 292 10 q 171 135 194 88 q 139 247 147 182 q 131 400 131 311 l 131 836 q 123 912 131 888 q 93 945 115 936 q 26 956 71 954 l 26 983 q 120 981 61 982 q 243 979 179 979 q 366 981 307 979 q 464 983 425 982 l 464 956 q 392 945 417 954 q 360 912 368 936 q 351 836 351 888 l 351 313 q 360 190 351 243 q 391 101 369 136 q 450 47 413 65 q 543 29 488 29 q 695 75 640 29 q 773 202 750 121 q 796 389 796 283 l 796 756 q 786 873 796 832 q 748 932 776 914 q 661 956 719 950 l 661 983 q 731 981 688 982 q 811 979 774 979 q 877 981 844 979 q 932 983 910 982 m 528 -260 q 453 -236 482 -260 q 425 -168 425 -212 q 453 -101 425 -126 q 531 -76 481 -76 q 607 -101 581 -76 q 633 -168 633 -125 q 605 -235 633 -211 q 528 -260 576 -260 z "},"Ù":{"ha":957,"x_min":26,"x_max":932,"o":"m 932 983 l 932 956 q 865 933 888 950 q 835 878 842 915 q 828 772 828 840 l 828 404 q 815 239 828 314 q 771 110 803 164 q 665 15 735 50 q 489 -19 596 -19 q 358 -5 425 -19 q 239 50 292 10 q 171 135 194 88 q 139 247 147 182 q 131 400 131 311 l 131 836 q 123 912 131 888 q 93 945 115 936 q 26 956 71 954 l 26 983 q 120 981 61 982 q 243 979 179 979 q 366 981 307 979 q 464 983 425 982 l 464 956 q 392 945 417 954 q 360 912 368 936 q 351 836 351 888 l 351 313 q 360 190 351 243 q 391 101 369 136 q 450 47 413 65 q 543 29 488 29 q 695 75 640 29 q 773 202 750 121 q 796 389 796 283 l 796 756 q 786 873 796 832 q 748 932 776 914 q 661 956 719 950 l 661 983 q 731 981 688 982 q 811 979 774 979 q 877 981 844 979 q 932 983 910 982 m 364 1297 q 422 1252 396 1281 q 486 1183 449 1224 q 589 1089 524 1143 l 579 1072 q 449 1115 503 1101 q 358 1138 396 1129 q 290 1164 321 1147 q 248 1211 258 1182 q 251 1267 238 1240 q 301 1306 268 1299 q 364 1297 335 1314 z "},"Ủ":{"ha":957,"x_min":26,"x_max":932,"o":"m 932 983 l 932 956 q 865 933 888 950 q 835 878 842 915 q 828 772 828 840 l 828 404 q 815 239 828 314 q 771 110 803 164 q 665 15 735 50 q 489 -19 596 -19 q 358 -5 425 -19 q 239 50 292 10 q 171 135 194 88 q 139 247 147 182 q 131 400 131 311 l 131 836 q 123 912 131 888 q 93 945 115 936 q 26 956 71 954 l 26 983 q 120 981 61 982 q 243 979 179 979 q 366 981 307 979 q 464 983 425 982 l 464 956 q 392 945 417 954 q 360 912 368 936 q 351 836 351 888 l 351 313 q 360 190 351 243 q 391 101 369 136 q 450 47 413 65 q 543 29 488 29 q 695 75 640 29 q 773 202 750 121 q 796 389 796 283 l 796 756 q 786 873 796 832 q 748 932 776 914 q 661 956 719 950 l 661 983 q 731 981 688 982 q 811 979 774 979 q 877 981 844 979 q 932 983 910 982 m 475 1058 l 475 1135 q 547 1185 526 1157 q 567 1243 567 1213 q 535 1307 567 1286 q 461 1328 504 1328 q 422 1323 440 1328 q 396 1310 404 1318 q 440 1284 424 1301 q 456 1238 456 1267 q 434 1185 456 1204 q 381 1165 413 1165 q 327 1185 347 1165 q 307 1238 307 1206 q 324 1290 307 1268 q 363 1325 342 1313 q 420 1347 388 1339 q 497 1356 453 1356 q 596 1344 551 1356 q 668 1308 640 1332 q 696 1250 696 1285 q 670 1192 696 1218 q 601 1149 644 1167 q 503 1122 557 1132 l 503 1058 l 475 1058 z "},"Ư":{"ha":957,"x_min":26,"x_max":1044,"o":"m 489 -19 q 358 -5 425 -19 q 239 50 292 10 q 171 135 194 88 q 139 247 147 182 q 131 400 131 311 l 131 836 q 123 912 131 888 q 93 945 115 936 q 26 956 71 954 l 26 983 q 120 981 61 982 q 243 979 179 979 q 366 981 307 979 q 464 983 425 982 l 464 956 q 392 945 417 954 q 360 912 368 936 q 351 836 351 888 l 351 313 q 360 190 351 243 q 391 101 369 136 q 450 47 413 65 q 543 29 488 29 q 695 75 640 29 q 773 202 750 121 q 796 389 796 283 l 796 963 l 799 951 q 728 951 764 950 q 658 956 693 951 l 665 983 q 716 980 693 982 q 768 978 739 978 q 854 984 814 978 q 932 1015 894 990 l 929 1006 q 875 1050 900 1021 q 850 1118 850 1079 q 877 1188 850 1160 q 946 1215 904 1215 q 1017 1188 989 1215 q 1044 1117 1044 1161 q 1019 1046 1044 1076 q 957 994 994 1015 q 884 964 919 974 q 815 951 849 954 l 828 961 l 828 404 q 815 239 828 314 q 771 110 803 164 q 665 15 735 50 q 489 -19 596 -19 z "},"Ứ":{"ha":957,"x_min":26,"x_max":1044,"o":"m 489 -19 q 358 -5 425 -19 q 239 50 292 10 q 171 135 194 88 q 139 247 147 182 q 131 400 131 311 l 131 836 q 123 912 131 888 q 93 945 115 936 q 26 956 71 954 l 26 983 q 120 981 61 982 q 243 979 179 979 q 366 981 307 979 q 464 983 425 982 l 464 956 q 392 945 417 954 q 360 912 368 936 q 351 836 351 888 l 351 313 q 360 190 351 243 q 391 101 369 136 q 450 47 413 65 q 543 29 488 29 q 695 75 640 29 q 773 202 750 121 q 796 389 796 283 l 796 963 l 799 951 q 728 951 764 950 q 658 956 693 951 l 665 983 q 716 980 693 982 q 768 978 739 978 q 854 984 814 978 q 932 1015 894 990 l 929 1006 q 875 1050 900 1021 q 850 1118 850 1079 q 877 1188 850 1160 q 946 1215 904 1215 q 1017 1188 989 1215 q 1044 1117 1044 1161 q 1019 1046 1044 1076 q 957 994 994 1015 q 884 964 919 974 q 815 951 849 954 l 828 961 l 828 404 q 815 239 828 314 q 771 110 803 164 q 665 15 735 50 q 489 -19 596 -19 m 619 1297 q 683 1306 649 1314 q 732 1267 717 1299 q 735 1211 746 1240 q 693 1164 725 1182 q 625 1138 663 1147 q 535 1115 588 1129 q 404 1072 482 1101 l 394 1089 q 498 1183 461 1143 q 561 1252 535 1224 q 619 1297 588 1281 z "},"Ự":{"ha":957,"x_min":26,"x_max":1044,"o":"m 489 -19 q 358 -5 425 -19 q 239 50 292 10 q 171 135 194 88 q 139 247 147 182 q 131 400 131 311 l 131 836 q 123 912 131 888 q 93 945 115 936 q 26 956 71 954 l 26 983 q 120 981 61 982 q 243 979 179 979 q 366 981 307 979 q 464 983 425 982 l 464 956 q 392 945 417 954 q 360 912 368 936 q 351 836 351 888 l 351 313 q 360 190 351 243 q 391 101 369 136 q 450 47 413 65 q 543 29 488 29 q 695 75 640 29 q 773 202 750 121 q 796 389 796 283 l 796 963 l 799 951 q 728 951 764 950 q 658 956 693 951 l 665 983 q 716 980 693 982 q 768 978 739 978 q 854 984 814 978 q 932 1015 894 990 l 929 1006 q 875 1050 900 1021 q 850 1118 850 1079 q 877 1188 850 1160 q 946 1215 904 1215 q 1017 1188 989 1215 q 1044 1117 1044 1161 q 1019 1046 1044 1076 q 957 994 994 1015 q 884 964 919 974 q 815 951 849 954 l 828 961 l 828 404 q 815 239 828 314 q 771 110 803 164 q 665 15 735 50 q 489 -19 596 -19 m 528 -260 q 453 -236 482 -260 q 425 -168 425 -212 q 453 -101 425 -126 q 531 -76 481 -76 q 607 -101 581 -76 q 633 -168 633 -125 q 605 -235 633 -211 q 528 -260 576 -260 z "},"Ừ":{"ha":957,"x_min":26,"x_max":1044,"o":"m 489 -19 q 358 -5 425 -19 q 239 50 292 10 q 171 135 194 88 q 139 247 147 182 q 131 400 131 311 l 131 836 q 123 912 131 888 q 93 945 115 936 q 26 956 71 954 l 26 983 q 120 981 61 982 q 243 979 179 979 q 366 981 307 979 q 464 983 425 982 l 464 956 q 392 945 417 954 q 360 912 368 936 q 351 836 351 888 l 351 313 q 360 190 351 243 q 391 101 369 136 q 450 47 413 65 q 543 29 488 29 q 695 75 640 29 q 773 202 750 121 q 796 389 796 283 l 796 963 l 799 951 q 728 951 764 950 q 658 956 693 951 l 665 983 q 716 980 693 982 q 768 978 739 978 q 854 984 814 978 q 932 1015 894 990 l 929 1006 q 875 1050 900 1021 q 850 1118 850 1079 q 877 1188 850 1160 q 946 1215 904 1215 q 1017 1188 989 1215 q 1044 1117 1044 1161 q 1019 1046 1044 1076 q 957 994 994 1015 q 884 964 919 974 q 815 951 849 954 l 828 961 l 828 404 q 815 239 828 314 q 771 110 803 164 q 665 15 735 50 q 489 -19 596 -19 m 364 1297 q 422 1252 396 1281 q 486 1183 449 1224 q 589 1089 524 1143 l 579 1072 q 449 1115 503 1101 q 358 1138 396 1129 q 290 1164 321 1147 q 248 1211 258 1182 q 251 1267 238 1240 q 301 1306 268 1299 q 364 1297 335 1314 z "},"Ử":{"ha":957,"x_min":26,"x_max":1044,"o":"m 489 -19 q 358 -5 425 -19 q 239 50 292 10 q 171 135 194 88 q 139 247 147 182 q 131 400 131 311 l 131 836 q 123 912 131 888 q 93 945 115 936 q 26 956 71 954 l 26 983 q 120 981 61 982 q 243 979 179 979 q 366 981 307 979 q 464 983 425 982 l 464 956 q 392 945 417 954 q 360 912 368 936 q 351 836 351 888 l 351 313 q 360 190 351 243 q 391 101 369 136 q 450 47 413 65 q 543 29 488 29 q 695 75 640 29 q 773 202 750 121 q 796 389 796 283 l 796 963 l 799 951 q 728 951 764 950 q 658 956 693 951 l 665 983 q 716 980 693 982 q 768 978 739 978 q 854 984 814 978 q 932 1015 894 990 l 929 1006 q 875 1050 900 1021 q 850 1118 850 1079 q 877 1188 850 1160 q 946 1215 904 1215 q 1017 1188 989 1215 q 1044 1117 1044 1161 q 1019 1046 1044 1076 q 957 994 994 1015 q 884 964 919 974 q 815 951 849 954 l 828 961 l 828 404 q 815 239 828 314 q 771 110 803 164 q 665 15 735 50 q 489 -19 596 -19 m 475 1058 l 475 1135 q 547 1185 526 1157 q 567 1243 567 1213 q 535 1307 567 1286 q 461 1328 504 1328 q 422 1323 440 1328 q 396 1310 404 1318 q 440 1284 424 1301 q 456 1238 456 1267 q 434 1185 456 1204 q 381 1165 413 1165 q 327 1185 347 1165 q 307 1238 307 1206 q 324 1290 307 1268 q 363 1325 342 1313 q 420 1347 388 1339 q 497 1356 453 1356 q 596 1344 551 1356 q 668 1308 640 1332 q 696 1250 696 1285 q 670 1192 696 1218 q 601 1149 644 1167 q 503 1122 557 1132 l 503 1058 l 475 1058 z "},"Ữ":{"ha":957,"x_min":26,"x_max":1044,"o":"m 489 -19 q 358 -5 425 -19 q 239 50 292 10 q 171 135 194 88 q 139 247 147 182 q 131 400 131 311 l 131 836 q 123 912 131 888 q 93 945 115 936 q 26 956 71 954 l 26 983 q 120 981 61 982 q 243 979 179 979 q 366 981 307 979 q 464 983 425 982 l 464 956 q 392 945 417 954 q 360 912 368 936 q 351 836 351 888 l 351 313 q 360 190 351 243 q 391 101 369 136 q 450 47 413 65 q 543 29 488 29 q 695 75 640 29 q 773 202 750 121 q 796 389 796 283 l 796 963 l 799 951 q 728 951 764 950 q 658 956 693 951 l 665 983 q 716 980 693 982 q 768 978 739 978 q 854 984 814 978 q 932 1015 894 990 l 929 1006 q 875 1050 900 1021 q 850 1118 850 1079 q 877 1188 850 1160 q 946 1215 904 1215 q 1017 1188 989 1215 q 1044 1117 1044 1161 q 1019 1046 1044 1076 q 957 994 994 1015 q 884 964 919 974 q 815 951 849 954 l 828 961 l 828 404 q 815 239 828 314 q 771 110 803 164 q 665 15 735 50 q 489 -19 596 -19 m 374 1283 q 459 1268 422 1283 q 527 1233 496 1253 q 591 1199 558 1214 q 665 1185 624 1185 q 728 1202 699 1185 q 781 1260 757 1219 l 800 1253 q 730 1112 782 1157 q 615 1067 678 1067 q 530 1081 567 1067 q 461 1116 493 1096 q 397 1151 429 1136 q 322 1165 364 1165 q 260 1148 289 1165 q 207 1089 231 1131 l 188 1096 q 259 1238 207 1193 q 374 1283 311 1283 z "},"Ű":{"ha":957,"x_min":26,"x_max":932,"o":"m 932 983 l 932 956 q 865 933 888 950 q 835 878 842 915 q 828 772 828 840 l 828 404 q 815 239 828 314 q 771 110 803 164 q 665 15 735 50 q 489 -19 596 -19 q 358 -5 425 -19 q 239 50 292 10 q 171 135 194 88 q 139 247 147 182 q 131 400 131 311 l 131 836 q 123 912 131 888 q 93 945 115 936 q 26 956 71 954 l 26 983 q 120 981 61 982 q 243 979 179 979 q 366 981 307 979 q 464 983 425 982 l 464 956 q 392 945 417 954 q 360 912 368 936 q 351 836 351 888 l 351 313 q 360 190 351 243 q 391 101 369 136 q 450 47 413 65 q 543 29 488 29 q 695 75 640 29 q 773 202 750 121 q 796 389 796 283 l 796 756 q 786 873 796 832 q 748 932 776 914 q 661 956 719 950 l 661 983 q 731 981 688 982 q 811 979 774 979 q 877 981 844 979 q 932 983 910 982 m 728 1299 q 790 1315 757 1321 q 842 1283 824 1310 q 855 1228 861 1257 q 818 1175 849 1199 q 758 1143 793 1157 q 679 1114 724 1129 q 579 1072 635 1099 l 565 1088 q 634 1176 607 1136 q 683 1247 661 1215 q 728 1299 704 1278 m 435 1299 q 497 1315 464 1321 q 549 1283 531 1310 q 562 1228 568 1257 q 525 1175 556 1199 q 465 1143 500 1157 q 386 1114 431 1129 q 286 1072 342 1099 l 272 1088 q 341 1176 314 1136 q 390 1247 368 1215 q 435 1299 411 1278 z "},"Ū":{"ha":957,"x_min":26,"x_max":932,"o":"m 932 983 l 932 956 q 865 933 888 950 q 835 878 842 915 q 828 772 828 840 l 828 404 q 815 239 828 314 q 771 110 803 164 q 665 15 735 50 q 489 -19 596 -19 q 358 -5 425 -19 q 239 50 292 10 q 171 135 194 88 q 139 247 147 182 q 131 400 131 311 l 131 836 q 123 912 131 888 q 93 945 115 936 q 26 956 71 954 l 26 983 q 120 981 61 982 q 243 979 179 979 q 366 981 307 979 q 464 983 425 982 l 464 956 q 392 945 417 954 q 360 912 368 936 q 351 836 351 888 l 351 313 q 360 190 351 243 q 391 101 369 136 q 450 47 413 65 q 543 29 488 29 q 695 75 640 29 q 773 202 750 121 q 796 389 796 283 l 796 756 q 786 873 796 832 q 748 932 776 914 q 661 956 719 950 l 661 983 q 731 981 688 982 q 811 979 774 979 q 877 981 844 979 q 932 983 910 982 m 774 1172 l 774 1138 l 218 1138 l 218 1172 l 774 1172 z "},"Ų":{"ha":957,"x_min":26,"x_max":932,"o":"m 932 983 l 932 956 q 865 933 888 950 q 835 878 842 915 q 828 772 828 840 l 828 404 q 815 239 828 314 q 771 110 803 164 q 665 15 735 50 q 489 -19 596 -19 q 358 -5 425 -19 q 239 50 292 10 q 171 135 194 88 q 139 247 147 182 q 131 400 131 311 l 131 836 q 123 912 131 888 q 93 945 115 936 q 26 956 71 954 l 26 983 q 120 981 61 982 q 243 979 179 979 q 366 981 307 979 q 464 983 425 982 l 464 956 q 392 945 417 954 q 360 912 368 936 q 351 836 351 888 l 351 313 q 360 190 351 243 q 391 101 369 136 q 450 47 413 65 q 543 29 488 29 q 695 75 640 29 q 773 202 750 121 q 796 389 796 283 l 796 756 q 786 873 796 832 q 748 932 776 914 q 661 956 719 950 l 661 983 q 731 981 688 982 q 811 979 774 979 q 877 981 844 979 q 932 983 910 982 m 638 4 q 520 -59 554 -22 q 486 -128 486 -96 q 501 -170 486 -156 q 544 -185 517 -185 q 593 -174 568 -185 q 633 -147 618 -162 l 651 -167 q 569 -239 615 -217 q 461 -261 524 -261 q 368 -235 401 -261 q 335 -165 335 -210 q 401 -64 335 -107 q 585 4 468 -21 l 638 4 z "},"Ů":{"ha":957,"x_min":26,"x_max":932,"o":"m 932 983 l 932 956 q 865 933 888 950 q 835 878 842 915 q 828 772 828 840 l 828 404 q 815 239 828 314 q 771 110 803 164 q 665 15 735 50 q 489 -19 596 -19 q 358 -5 425 -19 q 239 50 292 10 q 171 135 194 88 q 139 247 147 182 q 131 400 131 311 l 131 836 q 123 912 131 888 q 93 945 115 936 q 26 956 71 954 l 26 983 q 120 981 61 982 q 243 979 179 979 q 366 981 307 979 q 464 983 425 982 l 464 956 q 392 945 417 954 q 360 912 368 936 q 351 836 351 888 l 351 313 q 360 190 351 243 q 391 101 369 136 q 450 47 413 65 q 543 29 488 29 q 695 75 640 29 q 773 202 750 121 q 796 389 796 283 l 796 756 q 786 873 796 832 q 748 932 776 914 q 661 956 719 950 l 661 983 q 731 981 688 982 q 811 979 774 979 q 877 981 844 979 q 932 983 910 982 m 496 1372 q 602 1336 557 1372 q 647 1238 647 1300 q 602 1138 647 1175 q 496 1101 557 1101 q 391 1138 436 1101 q 346 1238 346 1175 q 391 1336 346 1300 q 496 1372 436 1372 m 496 1343 q 421 1315 457 1343 q 385 1236 385 1288 q 421 1157 385 1183 q 496 1131 457 1131 q 572 1157 536 1131 q 608 1236 608 1183 q 572 1315 608 1288 q 496 1343 536 1343 z "},"Ũ":{"ha":957,"x_min":26,"x_max":932,"o":"m 932 983 l 932 956 q 865 933 888 950 q 835 878 842 915 q 828 772 828 840 l 828 404 q 815 239 828 314 q 771 110 803 164 q 665 15 735 50 q 489 -19 596 -19 q 358 -5 425 -19 q 239 50 292 10 q 171 135 194 88 q 139 247 147 182 q 131 400 131 311 l 131 836 q 123 912 131 888 q 93 945 115 936 q 26 956 71 954 l 26 983 q 120 981 61 982 q 243 979 179 979 q 366 981 307 979 q 464 983 425 982 l 464 956 q 392 945 417 954 q 360 912 368 936 q 351 836 351 888 l 351 313 q 360 190 351 243 q 391 101 369 136 q 450 47 413 65 q 543 29 488 29 q 695 75 640 29 q 773 202 750 121 q 796 389 796 283 l 796 756 q 786 873 796 832 q 748 932 776 914 q 661 956 719 950 l 661 983 q 731 981 688 982 q 811 979 774 979 q 877 981 844 979 q 932 983 910 982 m 374 1283 q 459 1268 422 1283 q 527 1233 496 1253 q 591 1199 558 1214 q 665 1185 624 1185 q 728 1202 699 1185 q 781 1260 757 1219 l 800 1253 q 730 1112 782 1157 q 615 1067 678 1067 q 530 1081 567 1067 q 461 1116 493 1096 q 397 1151 429 1136 q 322 1165 364 1165 q 260 1148 289 1165 q 207 1089 231 1131 l 188 1096 q 259 1238 207 1193 q 374 1283 311 1283 z "},"V":{"ha":928,"x_min":-17,"x_max":942,"o":"m 942 983 l 942 956 q 877 907 911 944 q 814 790 843 869 l 521 -3 q 497 -1 510 -1 q 472 -1 485 -1 q 449 -1 461 -1 q 425 -3 436 -1 l 71 867 q 28 935 51 917 q -17 956 4 954 l -17 983 q 81 981 25 982 q 194 979 138 979 q 315 981 258 979 q 406 983 371 982 l 406 956 q 336 945 361 954 q 308 912 311 936 q 325 839 306 888 l 578 196 l 549 161 l 740 678 q 779 842 778 782 q 750 928 781 901 q 663 956 719 954 l 663 983 q 751 981 710 982 q 836 979 793 979 q 894 981 867 979 q 942 983 921 982 z "},"W":{"ha":1344,"x_min":-17,"x_max":1353,"o":"m 1353 983 l 1353 956 q 1289 908 1322 944 q 1231 790 1256 871 l 986 -3 q 963 -1 975 -1 q 938 -1 950 -1 q 913 -1 925 -1 q 889 -3 900 -1 l 597 881 q 563 939 583 924 q 521 956 543 954 l 521 983 q 613 981 560 982 q 719 979 667 979 q 834 981 781 979 q 919 983 888 982 l 919 956 q 853 946 878 954 q 826 914 829 938 q 839 839 822 890 l 1036 236 l 1004 179 l 1161 678 q 1193 843 1194 783 q 1161 928 1192 903 q 1074 956 1131 954 l 1074 983 q 1163 981 1121 982 q 1246 979 1204 979 q 1305 981 1278 979 q 1353 983 1332 982 m 361 983 l 361 956 q 322 935 333 951 q 313 894 311 919 q 325 839 315 868 l 538 222 l 500 172 l 678 692 l 697 654 l 479 -3 q 456 -1 468 -1 q 431 -1 443 -1 q 406 -1 418 -1 q 382 -3 393 -1 l 71 867 q 28 936 53 918 q -17 956 4 954 l -17 983 q 82 981 25 982 q 190 979 139 979 q 290 981 246 979 q 361 983 333 982 z "},"Ẃ":{"ha":1344,"x_min":-17,"x_max":1353,"o":"m 1353 983 l 1353 956 q 1289 908 1322 944 q 1231 790 1256 871 l 986 -3 q 963 -1 975 -1 q 938 -1 950 -1 q 913 -1 925 -1 q 889 -3 900 -1 l 597 881 q 563 939 583 924 q 521 956 543 954 l 521 983 q 613 981 560 982 q 719 979 667 979 q 834 981 781 979 q 919 983 888 982 l 919 956 q 853 946 878 954 q 826 914 829 938 q 839 839 822 890 l 1036 236 l 1004 179 l 1161 678 q 1193 843 1194 783 q 1161 928 1192 903 q 1074 956 1131 954 l 1074 983 q 1163 981 1121 982 q 1246 979 1204 979 q 1305 981 1278 979 q 1353 983 1332 982 m 361 983 l 361 956 q 322 935 333 951 q 313 894 311 919 q 325 839 315 868 l 538 222 l 500 172 l 678 692 l 697 654 l 479 -3 q 456 -1 468 -1 q 431 -1 443 -1 q 406 -1 418 -1 q 382 -3 393 -1 l 71 867 q 28 936 53 918 q -17 956 4 954 l -17 983 q 82 981 25 982 q 190 979 139 979 q 290 981 246 979 q 361 983 333 982 m 819 1297 q 883 1306 849 1314 q 932 1267 917 1299 q 935 1211 946 1240 q 893 1164 925 1182 q 825 1138 863 1147 q 735 1115 788 1129 q 604 1072 682 1101 l 594 1089 q 698 1183 661 1143 q 761 1252 735 1224 q 819 1297 788 1281 z "},"Ŵ":{"ha":1344,"x_min":-17,"x_max":1353,"o":"m 1353 983 l 1353 956 q 1289 908 1322 944 q 1231 790 1256 871 l 986 -3 q 963 -1 975 -1 q 938 -1 950 -1 q 913 -1 925 -1 q 889 -3 900 -1 l 597 881 q 563 939 583 924 q 521 956 543 954 l 521 983 q 613 981 560 982 q 719 979 667 979 q 834 981 781 979 q 919 983 888 982 l 919 956 q 853 946 878 954 q 826 914 829 938 q 839 839 822 890 l 1036 236 l 1004 179 l 1161 678 q 1193 843 1194 783 q 1161 928 1192 903 q 1074 956 1131 954 l 1074 983 q 1163 981 1121 982 q 1246 979 1204 979 q 1305 981 1278 979 q 1353 983 1332 982 m 361 983 l 361 956 q 322 935 333 951 q 313 894 311 919 q 325 839 315 868 l 538 222 l 500 172 l 678 692 l 697 654 l 479 -3 q 456 -1 468 -1 q 431 -1 443 -1 q 406 -1 418 -1 q 382 -3 393 -1 l 71 867 q 28 936 53 918 q -17 956 4 954 l -17 983 q 82 981 25 982 q 190 979 139 979 q 290 981 246 979 q 361 983 333 982 m 708 1306 q 826 1187 750 1246 q 993 1089 901 1128 l 986 1068 q 808 1110 896 1085 q 668 1158 719 1135 q 552 1110 625 1135 q 406 1068 479 1085 l 399 1089 q 565 1186 489 1128 q 683 1306 640 1244 l 708 1306 z "},"Ẅ":{"ha":1344,"x_min":-17,"x_max":1353,"o":"m 1353 983 l 1353 956 q 1289 908 1322 944 q 1231 790 1256 871 l 986 -3 q 963 -1 975 -1 q 938 -1 950 -1 q 913 -1 925 -1 q 889 -3 900 -1 l 597 881 q 563 939 583 924 q 521 956 543 954 l 521 983 q 613 981 560 982 q 719 979 667 979 q 834 981 781 979 q 919 983 888 982 l 919 956 q 853 946 878 954 q 826 914 829 938 q 839 839 822 890 l 1036 236 l 1004 179 l 1161 678 q 1193 843 1194 783 q 1161 928 1192 903 q 1074 956 1131 954 l 1074 983 q 1163 981 1121 982 q 1246 979 1204 979 q 1305 981 1278 979 q 1353 983 1332 982 m 361 983 l 361 956 q 322 935 333 951 q 313 894 311 919 q 325 839 315 868 l 538 222 l 500 172 l 678 692 l 697 654 l 479 -3 q 456 -1 468 -1 q 431 -1 443 -1 q 406 -1 418 -1 q 382 -3 393 -1 l 71 867 q 28 936 53 918 q -17 956 4 954 l -17 983 q 82 981 25 982 q 190 979 139 979 q 290 981 246 979 q 361 983 333 982 m 863 1274 q 935 1242 904 1274 q 967 1168 967 1210 q 935 1094 967 1125 q 863 1064 904 1064 q 788 1094 819 1064 q 757 1169 757 1125 q 788 1242 757 1211 q 863 1274 819 1274 m 529 1274 q 603 1242 571 1274 q 635 1168 635 1210 q 603 1094 635 1125 q 529 1064 571 1064 q 456 1094 486 1064 q 425 1169 425 1125 q 456 1242 425 1211 q 529 1274 486 1274 z "},"Ẁ":{"ha":1344,"x_min":-17,"x_max":1353,"o":"m 1353 983 l 1353 956 q 1289 908 1322 944 q 1231 790 1256 871 l 986 -3 q 963 -1 975 -1 q 938 -1 950 -1 q 913 -1 925 -1 q 889 -3 900 -1 l 597 881 q 563 939 583 924 q 521 956 543 954 l 521 983 q 613 981 560 982 q 719 979 667 979 q 834 981 781 979 q 919 983 888 982 l 919 956 q 853 946 878 954 q 826 914 829 938 q 839 839 822 890 l 1036 236 l 1004 179 l 1161 678 q 1193 843 1194 783 q 1161 928 1192 903 q 1074 956 1131 954 l 1074 983 q 1163 981 1121 982 q 1246 979 1204 979 q 1305 981 1278 979 q 1353 983 1332 982 m 361 983 l 361 956 q 322 935 333 951 q 313 894 311 919 q 325 839 315 868 l 538 222 l 500 172 l 678 692 l 697 654 l 479 -3 q 456 -1 468 -1 q 431 -1 443 -1 q 406 -1 418 -1 q 382 -3 393 -1 l 71 867 q 28 936 53 918 q -17 956 4 954 l -17 983 q 82 981 25 982 q 190 979 139 979 q 290 981 246 979 q 361 983 333 982 m 564 1297 q 622 1252 596 1281 q 686 1183 649 1224 q 789 1089 724 1143 l 779 1072 q 649 1115 703 1101 q 558 1138 596 1129 q 490 1164 521 1147 q 448 1211 458 1182 q 451 1267 438 1240 q 501 1306 468 1299 q 564 1297 535 1314 z "},"X":{"ha":960,"x_min":4,"x_max":976,"o":"m 415 985 l 415 956 q 335 944 353 956 q 338 903 318 932 l 888 99 q 932 46 915 60 q 976 29 949 32 l 976 0 q 896 3 949 1 q 786 6 843 6 q 659 3 724 6 q 563 0 594 1 l 563 29 q 645 38 626 29 q 644 76 664 47 l 93 886 q 50 940 67 926 q 4 956 33 954 l 4 985 q 90 981 33 983 q 203 979 146 979 q 323 981 265 979 q 415 985 381 983 m 428 494 q 431 485 428 494 q 436 467 433 476 q 439 458 439 458 l 300 268 q 238 141 244 193 q 262 60 231 89 q 354 28 293 32 l 354 0 q 305 2 335 1 q 242 3 275 3 q 181 4 210 4 q 135 4 153 4 q 63 3 96 4 q 7 0 29 3 l 7 28 q 106 87 56 44 q 208 197 156 129 l 428 494 m 914 983 l 914 956 q 823 903 868 943 q 739 810 778 863 l 514 510 q 509 528 514 510 q 504 546 504 546 l 647 739 q 710 853 700 806 q 694 926 721 900 q 611 956 668 953 l 611 983 q 669 981 638 982 q 733 980 701 981 q 786 979 764 979 q 860 981 826 979 q 914 983 893 982 z "},"Y":{"ha":865,"x_min":-10,"x_max":857,"o":"m 857 985 l 857 957 q 794 908 826 944 q 724 796 763 871 l 461 276 l 396 276 l 71 878 q 26 940 46 925 q -10 956 6 956 l -10 985 q 67 979 28 981 q 154 978 107 978 q 286 980 215 978 q 415 985 357 982 l 415 956 q 353 950 381 956 q 314 930 325 944 q 319 883 303 915 l 539 461 l 496 406 l 639 693 q 694 850 690 793 q 666 931 697 907 q 578 957 635 956 l 578 985 q 667 982 625 983 q 751 981 708 981 q 809 982 782 981 q 857 985 836 983 m 560 496 l 560 147 q 567 72 560 97 q 597 39 575 47 q 664 28 619 31 l 664 0 q 567 3 626 3 q 450 4 508 4 q 326 3 385 4 q 235 0 268 3 l 235 28 q 301 39 279 31 q 331 72 324 47 q 339 147 339 97 l 339 432 l 460 346 l 560 496 z "},"Ý":{"ha":865,"x_min":-10,"x_max":857,"o":"m 857 985 l 857 957 q 794 908 826 944 q 724 796 763 871 l 461 276 l 396 276 l 71 878 q 26 940 46 925 q -10 956 6 956 l -10 985 q 67 979 28 981 q 154 978 107 978 q 286 980 215 978 q 415 985 357 982 l 415 956 q 353 950 381 956 q 314 930 325 944 q 319 883 303 915 l 539 461 l 496 406 l 639 693 q 694 850 690 793 q 666 931 697 907 q 578 957 635 956 l 578 985 q 667 982 625 983 q 751 981 708 981 q 809 982 782 981 q 857 985 836 983 m 560 496 l 560 147 q 567 72 560 97 q 597 39 575 47 q 664 28 619 31 l 664 0 q 567 3 626 3 q 450 4 508 4 q 326 3 385 4 q 235 0 268 3 l 235 28 q 301 39 279 31 q 331 72 324 47 q 339 147 339 97 l 339 432 l 460 346 l 560 496 m 582 1297 q 645 1306 611 1314 q 694 1267 679 1299 q 698 1211 708 1240 q 656 1164 688 1182 q 588 1138 625 1147 q 497 1115 550 1129 q 367 1072 444 1101 l 357 1089 q 460 1183 424 1143 q 524 1252 497 1224 q 582 1297 550 1281 z "},"Ŷ":{"ha":865,"x_min":-10,"x_max":857,"o":"m 857 985 l 857 957 q 794 908 826 944 q 724 796 763 871 l 461 276 l 396 276 l 71 878 q 26 940 46 925 q -10 956 6 956 l -10 985 q 67 979 28 981 q 154 978 107 978 q 286 980 215 978 q 415 985 357 982 l 415 956 q 353 950 381 956 q 314 930 325 944 q 319 883 303 915 l 539 461 l 496 406 l 639 693 q 694 850 690 793 q 666 931 697 907 q 578 957 635 956 l 578 985 q 667 982 625 983 q 751 981 708 981 q 809 982 782 981 q 857 985 836 983 m 560 496 l 560 147 q 567 72 560 97 q 597 39 575 47 q 664 28 619 31 l 664 0 q 567 3 626 3 q 450 4 508 4 q 326 3 385 4 q 235 0 268 3 l 235 28 q 301 39 279 31 q 331 72 324 47 q 339 147 339 97 l 339 432 l 460 346 l 560 496 m 471 1306 q 588 1187 513 1246 q 756 1089 664 1128 l 749 1068 q 570 1110 658 1085 q 431 1158 482 1135 q 315 1110 388 1135 q 168 1068 242 1085 l 161 1089 q 327 1186 251 1128 q 446 1306 403 1244 l 471 1306 z "},"Ÿ":{"ha":865,"x_min":-10,"x_max":857,"o":"m 857 985 l 857 957 q 794 908 826 944 q 724 796 763 871 l 461 276 l 396 276 l 71 878 q 26 940 46 925 q -10 956 6 956 l -10 985 q 67 979 28 981 q 154 978 107 978 q 286 980 215 978 q 415 985 357 982 l 415 956 q 353 950 381 956 q 314 930 325 944 q 319 883 303 915 l 539 461 l 496 406 l 639 693 q 694 850 690 793 q 666 931 697 907 q 578 957 635 956 l 578 985 q 667 982 625 983 q 751 981 708 981 q 809 982 782 981 q 857 985 836 983 m 560 496 l 560 147 q 567 72 560 97 q 597 39 575 47 q 664 28 619 31 l 664 0 q 567 3 626 3 q 450 4 508 4 q 326 3 385 4 q 235 0 268 3 l 235 28 q 301 39 279 31 q 331 72 324 47 q 339 147 339 97 l 339 432 l 460 346 l 560 496 m 625 1274 q 698 1242 667 1274 q 729 1168 729 1210 q 698 1094 729 1125 q 625 1064 667 1064 q 551 1094 582 1064 q 519 1169 519 1125 q 551 1242 519 1211 q 625 1274 582 1274 m 292 1274 q 365 1242 333 1274 q 397 1168 397 1210 q 365 1094 397 1125 q 292 1064 333 1064 q 218 1094 249 1064 q 188 1169 188 1125 q 218 1242 188 1211 q 292 1274 249 1274 z "},"Ỵ":{"ha":865,"x_min":-10,"x_max":857,"o":"m 857 985 l 857 957 q 794 908 826 944 q 724 796 763 871 l 461 276 l 396 276 l 71 878 q 26 940 46 925 q -10 956 6 956 l -10 985 q 67 979 28 981 q 154 978 107 978 q 286 980 215 978 q 415 985 357 982 l 415 956 q 353 950 381 956 q 314 930 325 944 q 319 883 303 915 l 539 461 l 496 406 l 639 693 q 694 850 690 793 q 666 931 697 907 q 578 957 635 956 l 578 985 q 667 982 625 983 q 751 981 708 981 q 809 982 782 981 q 857 985 836 983 m 560 496 l 560 147 q 567 72 560 97 q 597 39 575 47 q 664 28 619 31 l 664 0 q 567 3 626 3 q 450 4 508 4 q 326 3 385 4 q 235 0 268 3 l 235 28 q 301 39 279 31 q 331 72 324 47 q 339 147 339 97 l 339 432 l 460 346 l 560 496 m 431 -260 q 356 -236 385 -260 q 328 -168 328 -212 q 356 -101 328 -126 q 433 -76 383 -76 q 510 -101 483 -76 q 536 -168 536 -125 q 508 -235 536 -211 q 431 -260 479 -260 z "},"Ỳ":{"ha":865,"x_min":-10,"x_max":857,"o":"m 857 985 l 857 957 q 794 908 826 944 q 724 796 763 871 l 461 276 l 396 276 l 71 878 q 26 940 46 925 q -10 956 6 956 l -10 985 q 67 979 28 981 q 154 978 107 978 q 286 980 215 978 q 415 985 357 982 l 415 956 q 353 950 381 956 q 314 930 325 944 q 319 883 303 915 l 539 461 l 496 406 l 639 693 q 694 850 690 793 q 666 931 697 907 q 578 957 635 956 l 578 985 q 667 982 625 983 q 751 981 708 981 q 809 982 782 981 q 857 985 836 983 m 560 496 l 560 147 q 567 72 560 97 q 597 39 575 47 q 664 28 619 31 l 664 0 q 567 3 626 3 q 450 4 508 4 q 326 3 385 4 q 235 0 268 3 l 235 28 q 301 39 279 31 q 331 72 324 47 q 339 147 339 97 l 339 432 l 460 346 l 560 496 m 326 1297 q 385 1252 358 1281 q 449 1183 411 1224 q 551 1089 486 1143 l 542 1072 q 412 1115 465 1101 q 321 1138 358 1129 q 253 1164 283 1147 q 210 1211 221 1182 q 214 1267 200 1240 q 264 1306 231 1299 q 326 1297 297 1314 z "},"Ỷ":{"ha":865,"x_min":-10,"x_max":857,"o":"m 857 985 l 857 957 q 794 908 826 944 q 724 796 763 871 l 461 276 l 396 276 l 71 878 q 26 940 46 925 q -10 956 6 956 l -10 985 q 67 979 28 981 q 154 978 107 978 q 286 980 215 978 q 415 985 357 982 l 415 956 q 353 950 381 956 q 314 930 325 944 q 319 883 303 915 l 539 461 l 496 406 l 639 693 q 694 850 690 793 q 666 931 697 907 q 578 957 635 956 l 578 985 q 667 982 625 983 q 751 981 708 981 q 809 982 782 981 q 857 985 836 983 m 560 496 l 560 147 q 567 72 560 97 q 597 39 575 47 q 664 28 619 31 l 664 0 q 567 3 626 3 q 450 4 508 4 q 326 3 385 4 q 235 0 268 3 l 235 28 q 301 39 279 31 q 331 72 324 47 q 339 147 339 97 l 339 432 l 460 346 l 560 496 m 438 1058 l 438 1135 q 509 1185 489 1157 q 529 1243 529 1213 q 498 1307 529 1286 q 424 1328 467 1328 q 385 1323 403 1328 q 358 1310 367 1318 q 402 1284 386 1301 q 418 1238 418 1267 q 397 1185 418 1204 q 343 1165 375 1165 q 290 1185 310 1165 q 269 1238 269 1206 q 287 1290 269 1268 q 325 1325 304 1313 q 383 1347 350 1339 q 460 1356 415 1356 q 558 1344 514 1356 q 631 1308 603 1332 q 658 1250 658 1285 q 633 1192 658 1218 q 563 1149 607 1167 q 465 1122 519 1132 l 465 1058 l 438 1058 z "},"Ỹ":{"ha":865,"x_min":-10,"x_max":857,"o":"m 857 985 l 857 957 q 794 908 826 944 q 724 796 763 871 l 461 276 l 396 276 l 71 878 q 26 940 46 925 q -10 956 6 956 l -10 985 q 67 979 28 981 q 154 978 107 978 q 286 980 215 978 q 415 985 357 982 l 415 956 q 353 950 381 956 q 314 930 325 944 q 319 883 303 915 l 539 461 l 496 406 l 639 693 q 694 850 690 793 q 666 931 697 907 q 578 957 635 956 l 578 985 q 667 982 625 983 q 751 981 708 981 q 809 982 782 981 q 857 985 836 983 m 560 496 l 560 147 q 567 72 560 97 q 597 39 575 47 q 664 28 619 31 l 664 0 q 567 3 626 3 q 450 4 508 4 q 326 3 385 4 q 235 0 268 3 l 235 28 q 301 39 279 31 q 331 72 324 47 q 339 147 339 97 l 339 432 l 460 346 l 560 496 m 336 1283 q 422 1268 385 1283 q 490 1233 458 1253 q 553 1199 521 1214 q 628 1185 586 1185 q 690 1202 661 1185 q 743 1260 719 1219 l 763 1253 q 692 1112 744 1157 q 578 1067 640 1067 q 492 1081 529 1067 q 424 1116 456 1096 q 359 1151 392 1136 q 285 1165 326 1165 q 222 1148 251 1165 q 169 1089 193 1131 l 150 1096 q 222 1238 169 1193 q 336 1283 274 1283 z "},"Z":{"ha":836,"x_min":54,"x_max":774,"o":"m 774 983 l 774 956 l 299 32 l 443 32 q 538 47 490 32 q 627 97 586 63 q 697 190 668 132 q 736 333 726 247 l 768 333 q 764 211 764 286 q 765 121 764 179 q 774 0 767 63 q 661 3 722 3 q 540 4 600 4 q 428 4 479 4 q 239 3 338 4 q 54 0 140 3 l 54 28 l 531 951 l 381 951 q 283 938 328 951 q 200 891 238 924 q 138 803 163 858 q 103 667 113 749 l 71 667 q 74 714 74 686 q 75 772 75 742 q 73 863 75 804 q 65 983 71 921 q 167 981 111 982 q 277 979 222 979 q 378 979 332 979 q 576 980 471 979 q 774 983 682 981 z "},"Ź":{"ha":836,"x_min":54,"x_max":774,"o":"m 774 983 l 774 956 l 299 32 l 443 32 q 538 47 490 32 q 627 97 586 63 q 697 190 668 132 q 736 333 726 247 l 768 333 q 764 211 764 286 q 765 121 764 179 q 774 0 767 63 q 661 3 722 3 q 540 4 600 4 q 428 4 479 4 q 239 3 338 4 q 54 0 140 3 l 54 28 l 531 951 l 381 951 q 283 938 328 951 q 200 891 238 924 q 138 803 163 858 q 103 667 113 749 l 71 667 q 74 714 74 686 q 75 772 75 742 q 73 863 75 804 q 65 983 71 921 q 167 981 111 982 q 277 979 222 979 q 378 979 332 979 q 576 980 471 979 q 774 983 682 981 m 543 1297 q 606 1306 572 1314 q 656 1267 640 1299 q 659 1211 669 1240 q 617 1164 649 1182 q 549 1138 586 1147 q 458 1115 511 1129 q 328 1072 406 1101 l 318 1089 q 422 1183 385 1143 q 485 1252 458 1224 q 543 1297 511 1281 z "},"Ž":{"ha":836,"x_min":54,"x_max":774,"o":"m 774 983 l 774 956 l 299 32 l 443 32 q 538 47 490 32 q 627 97 586 63 q 697 190 668 132 q 736 333 726 247 l 768 333 q 764 211 764 286 q 765 121 764 179 q 774 0 767 63 q 661 3 722 3 q 540 4 600 4 q 428 4 479 4 q 239 3 338 4 q 54 0 140 3 l 54 28 l 531 951 l 381 951 q 283 938 328 951 q 200 891 238 924 q 138 803 163 858 q 103 667 113 749 l 71 667 q 74 714 74 686 q 75 772 75 742 q 73 863 75 804 q 65 983 71 921 q 167 981 111 982 q 277 979 222 979 q 378 979 332 979 q 576 980 471 979 q 774 983 682 981 m 706 1303 l 713 1282 q 547 1185 622 1244 q 428 1065 471 1126 l 403 1065 q 285 1185 361 1126 q 118 1282 210 1244 l 125 1303 q 303 1263 215 1288 q 443 1213 392 1238 q 559 1263 486 1238 q 706 1303 632 1288 z "},"Ż":{"ha":836,"x_min":54,"x_max":774,"o":"m 774 983 l 774 956 l 299 32 l 443 32 q 538 47 490 32 q 627 97 586 63 q 697 190 668 132 q 736 333 726 247 l 768 333 q 764 211 764 286 q 765 121 764 179 q 774 0 767 63 q 661 3 722 3 q 540 4 600 4 q 428 4 479 4 q 239 3 338 4 q 54 0 140 3 l 54 28 l 531 951 l 381 951 q 283 938 328 951 q 200 891 238 924 q 138 803 163 858 q 103 667 113 749 l 71 667 q 74 714 74 686 q 75 772 75 742 q 73 863 75 804 q 65 983 71 921 q 167 981 111 982 q 277 979 222 979 q 378 979 332 979 q 576 980 471 979 q 774 983 682 981 m 419 1342 q 512 1313 478 1342 q 546 1235 546 1285 q 512 1156 546 1185 q 419 1128 478 1128 q 327 1156 361 1128 q 293 1235 293 1185 q 327 1313 293 1285 q 419 1342 361 1342 z "},"a":{"ha":719,"x_min":40,"x_max":713,"o":"m 225 -10 q 121 14 163 -10 q 60 77 79 38 q 40 164 40 117 q 67 261 40 224 q 138 322 94 299 q 228 361 181 346 q 320 391 276 376 q 391 426 364 406 q 418 478 418 446 l 418 586 q 406 651 418 622 q 370 694 394 679 q 307 710 346 710 q 251 702 279 710 q 206 676 224 694 q 266 634 244 663 q 288 569 288 606 q 255 494 288 522 q 178 467 222 467 q 102 498 128 467 q 76 574 76 529 q 97 640 76 614 q 153 690 117 667 q 247 725 192 713 q 365 738 301 738 q 481 724 429 738 q 567 676 532 711 q 608 598 599 644 q 618 481 618 551 l 618 103 q 625 55 618 68 q 649 42 632 42 q 673 49 661 42 q 699 65 685 56 l 713 42 q 645 3 683 17 q 560 -10 607 -10 q 478 5 508 -10 q 434 44 447 19 q 421 103 421 69 q 340 20 388 50 q 225 -10 293 -10 m 324 79 q 374 92 351 79 q 418 136 397 106 l 418 421 q 383 383 406 400 q 336 349 361 367 q 288 311 311 332 q 251 260 265 290 q 238 186 238 229 q 261 106 238 132 q 324 79 285 79 z "},"á":{"ha":719,"x_min":40,"x_max":713,"o":"m 225 -10 q 121 14 163 -10 q 60 77 79 38 q 40 164 40 117 q 67 261 40 224 q 138 322 94 299 q 228 361 181 346 q 320 391 276 376 q 391 426 364 406 q 418 478 418 446 l 418 586 q 406 651 418 622 q 370 694 394 679 q 307 710 346 710 q 251 702 279 710 q 206 676 224 694 q 266 634 244 663 q 288 569 288 606 q 255 494 288 522 q 178 467 222 467 q 102 498 128 467 q 76 574 76 529 q 97 640 76 614 q 153 690 117 667 q 247 725 192 713 q 365 738 301 738 q 481 724 429 738 q 567 676 532 711 q 608 598 599 644 q 618 481 618 551 l 618 103 q 625 55 618 68 q 649 42 632 42 q 673 49 661 42 q 699 65 685 56 l 713 42 q 645 3 683 17 q 560 -10 607 -10 q 478 5 508 -10 q 434 44 447 19 q 421 103 421 69 q 340 20 388 50 q 225 -10 293 -10 m 324 79 q 374 92 351 79 q 418 136 397 106 l 418 421 q 383 383 406 400 q 336 349 361 367 q 288 311 311 332 q 251 260 265 290 q 238 186 238 229 q 261 106 238 132 q 324 79 285 79 m 513 1135 q 538 1085 536 1117 q 517 1025 539 1053 q 463 975 494 997 q 387 921 431 953 q 282 832 343 889 l 267 844 q 328 970 308 919 q 361 1057 347 1021 q 399 1119 375 1093 q 453 1152 419 1147 q 513 1135 488 1157 z "},"ă":{"ha":719,"x_min":40,"x_max":713,"o":"m 225 -10 q 121 14 163 -10 q 60 77 79 38 q 40 164 40 117 q 67 261 40 224 q 138 322 94 299 q 228 361 181 346 q 320 391 276 376 q 391 426 364 406 q 418 478 418 446 l 418 586 q 406 651 418 622 q 370 694 394 679 q 307 710 346 710 q 251 702 279 710 q 206 676 224 694 q 266 634 244 663 q 288 569 288 606 q 255 494 288 522 q 178 467 222 467 q 102 498 128 467 q 76 574 76 529 q 97 640 76 614 q 153 690 117 667 q 247 725 192 713 q 365 738 301 738 q 481 724 429 738 q 567 676 532 711 q 608 598 599 644 q 618 481 618 551 l 618 103 q 625 55 618 68 q 649 42 632 42 q 673 49 661 42 q 699 65 685 56 l 713 42 q 645 3 683 17 q 560 -10 607 -10 q 478 5 508 -10 q 434 44 447 19 q 421 103 421 69 q 340 20 388 50 q 225 -10 293 -10 m 324 79 q 374 92 351 79 q 418 136 397 106 l 418 421 q 383 383 406 400 q 336 349 361 367 q 288 311 311 332 q 251 260 265 290 q 238 186 238 229 q 261 106 238 132 q 324 79 285 79 m 601 1094 l 625 1082 q 575 981 608 1032 q 489 897 542 931 q 360 863 436 863 q 231 897 283 863 q 144 981 178 931 q 94 1082 111 1032 l 118 1094 q 171 1049 139 1072 q 249 1010 203 1025 q 360 994 296 994 q 470 1010 424 994 q 549 1049 517 1025 q 601 1094 582 1072 z "},"ắ":{"ha":719,"x_min":40,"x_max":713,"o":"m 225 -10 q 121 14 163 -10 q 60 77 79 38 q 40 164 40 117 q 67 261 40 224 q 138 322 94 299 q 228 361 181 346 q 320 391 276 376 q 391 426 364 406 q 418 478 418 446 l 418 586 q 406 651 418 622 q 370 694 394 679 q 307 710 346 710 q 251 702 279 710 q 206 676 224 694 q 266 634 244 663 q 288 569 288 606 q 255 494 288 522 q 178 467 222 467 q 102 498 128 467 q 76 574 76 529 q 97 640 76 614 q 153 690 117 667 q 247 725 192 713 q 365 738 301 738 q 481 724 429 738 q 567 676 532 711 q 608 598 599 644 q 618 481 618 551 l 618 103 q 625 55 618 68 q 649 42 632 42 q 673 49 661 42 q 699 65 685 56 l 713 42 q 645 3 683 17 q 560 -10 607 -10 q 478 5 508 -10 q 434 44 447 19 q 421 103 421 69 q 340 20 388 50 q 225 -10 293 -10 m 324 79 q 374 92 351 79 q 418 136 397 106 l 418 421 q 383 383 406 400 q 336 349 361 367 q 288 311 311 332 q 251 260 265 290 q 238 186 238 229 q 261 106 238 132 q 324 79 285 79 m 601 1094 l 625 1082 q 575 981 608 1032 q 489 897 542 931 q 360 863 436 863 q 231 897 283 863 q 144 981 178 931 q 94 1082 111 1032 l 118 1094 q 171 1049 139 1072 q 249 1010 203 1025 q 360 994 296 994 q 470 1010 424 994 q 549 1049 517 1025 q 601 1094 582 1072 m 511 1400 q 536 1350 535 1382 q 515 1290 538 1318 q 461 1240 493 1263 q 385 1186 429 1218 q 281 1097 342 1154 l 265 1110 q 326 1235 307 1185 q 360 1322 346 1286 q 397 1385 374 1358 q 452 1417 418 1413 q 511 1400 486 1422 z "},"ặ":{"ha":719,"x_min":40,"x_max":713,"o":"m 225 -10 q 121 14 163 -10 q 60 77 79 38 q 40 164 40 117 q 67 261 40 224 q 138 322 94 299 q 228 361 181 346 q 320 391 276 376 q 391 426 364 406 q 418 478 418 446 l 418 586 q 406 651 418 622 q 370 694 394 679 q 307 710 346 710 q 251 702 279 710 q 206 676 224 694 q 266 634 244 663 q 288 569 288 606 q 255 494 288 522 q 178 467 222 467 q 102 498 128 467 q 76 574 76 529 q 97 640 76 614 q 153 690 117 667 q 247 725 192 713 q 365 738 301 738 q 481 724 429 738 q 567 676 532 711 q 608 598 599 644 q 618 481 618 551 l 618 103 q 625 55 618 68 q 649 42 632 42 q 673 49 661 42 q 699 65 685 56 l 713 42 q 645 3 683 17 q 560 -10 607 -10 q 478 5 508 -10 q 434 44 447 19 q 421 103 421 69 q 340 20 388 50 q 225 -10 293 -10 m 324 79 q 374 92 351 79 q 418 136 397 106 l 418 421 q 383 383 406 400 q 336 349 361 367 q 288 311 311 332 q 251 260 265 290 q 238 186 238 229 q 261 106 238 132 q 324 79 285 79 m 601 1094 l 625 1082 q 575 981 608 1032 q 489 897 542 931 q 360 863 436 863 q 231 897 283 863 q 144 981 178 931 q 94 1082 111 1032 l 118 1094 q 171 1049 139 1072 q 249 1010 203 1025 q 360 994 296 994 q 470 1010 424 994 q 549 1049 517 1025 q 601 1094 582 1072 m 358 -260 q 284 -236 313 -260 q 256 -168 256 -212 q 283 -101 256 -126 q 361 -76 311 -76 q 438 -101 411 -76 q 464 -168 464 -125 q 435 -235 464 -211 q 358 -260 407 -260 z "},"ằ":{"ha":719,"x_min":40,"x_max":713,"o":"m 225 -10 q 121 14 163 -10 q 60 77 79 38 q 40 164 40 117 q 67 261 40 224 q 138 322 94 299 q 228 361 181 346 q 320 391 276 376 q 391 426 364 406 q 418 478 418 446 l 418 586 q 406 651 418 622 q 370 694 394 679 q 307 710 346 710 q 251 702 279 710 q 206 676 224 694 q 266 634 244 663 q 288 569 288 606 q 255 494 288 522 q 178 467 222 467 q 102 498 128 467 q 76 574 76 529 q 97 640 76 614 q 153 690 117 667 q 247 725 192 713 q 365 738 301 738 q 481 724 429 738 q 567 676 532 711 q 608 598 599 644 q 618 481 618 551 l 618 103 q 625 55 618 68 q 649 42 632 42 q 673 49 661 42 q 699 65 685 56 l 713 42 q 645 3 683 17 q 560 -10 607 -10 q 478 5 508 -10 q 434 44 447 19 q 421 103 421 69 q 340 20 388 50 q 225 -10 293 -10 m 324 79 q 374 92 351 79 q 418 136 397 106 l 418 421 q 383 383 406 400 q 336 349 361 367 q 288 311 311 332 q 251 260 265 290 q 238 186 238 229 q 261 106 238 132 q 324 79 285 79 m 601 1094 l 625 1082 q 575 981 608 1032 q 489 897 542 931 q 360 863 436 863 q 231 897 283 863 q 144 981 178 931 q 94 1082 111 1032 l 118 1094 q 171 1049 139 1072 q 249 1010 203 1025 q 360 994 296 994 q 470 1010 424 994 q 549 1049 517 1025 q 601 1094 582 1072 m 186 1400 q 245 1417 211 1422 q 300 1385 279 1411 q 338 1322 324 1358 q 372 1235 351 1286 q 432 1110 392 1185 l 417 1097 q 312 1186 356 1154 q 237 1240 268 1218 q 182 1290 206 1263 q 161 1349 160 1318 q 186 1400 163 1381 z "},"ẳ":{"ha":719,"x_min":40,"x_max":713,"o":"m 225 -10 q 121 14 163 -10 q 60 77 79 38 q 40 164 40 117 q 67 261 40 224 q 138 322 94 299 q 228 361 181 346 q 320 391 276 376 q 391 426 364 406 q 418 478 418 446 l 418 586 q 406 651 418 622 q 370 694 394 679 q 307 710 346 710 q 251 702 279 710 q 206 676 224 694 q 266 634 244 663 q 288 569 288 606 q 255 494 288 522 q 178 467 222 467 q 102 498 128 467 q 76 574 76 529 q 97 640 76 614 q 153 690 117 667 q 247 725 192 713 q 365 738 301 738 q 481 724 429 738 q 567 676 532 711 q 608 598 599 644 q 618 481 618 551 l 618 103 q 625 55 618 68 q 649 42 632 42 q 673 49 661 42 q 699 65 685 56 l 713 42 q 645 3 683 17 q 560 -10 607 -10 q 478 5 508 -10 q 434 44 447 19 q 421 103 421 69 q 340 20 388 50 q 225 -10 293 -10 m 324 79 q 374 92 351 79 q 418 136 397 106 l 418 421 q 383 383 406 400 q 336 349 361 367 q 288 311 311 332 q 251 260 265 290 q 238 186 238 229 q 261 106 238 132 q 324 79 285 79 m 601 1094 l 625 1082 q 575 981 608 1032 q 489 897 542 931 q 360 863 436 863 q 231 897 283 863 q 144 981 178 931 q 94 1082 111 1032 l 118 1094 q 171 1049 139 1072 q 249 1010 203 1025 q 360 994 296 994 q 470 1010 424 994 q 549 1049 517 1025 q 601 1094 582 1072 m 346 1094 l 346 1171 q 427 1226 403 1196 q 451 1296 451 1256 q 425 1367 451 1343 q 356 1392 399 1392 q 319 1388 338 1392 q 290 1375 300 1383 q 338 1349 321 1367 q 354 1301 354 1331 q 333 1249 354 1268 q 279 1229 311 1229 q 226 1249 246 1229 q 206 1301 206 1269 q 223 1354 206 1332 q 261 1389 240 1376 q 318 1411 285 1403 q 393 1419 351 1419 q 528 1388 475 1419 q 581 1303 581 1357 q 520 1210 581 1246 q 374 1158 460 1175 l 374 1094 l 346 1094 z "},"ẵ":{"ha":719,"x_min":40,"x_max":713,"o":"m 225 -10 q 121 14 163 -10 q 60 77 79 38 q 40 164 40 117 q 67 261 40 224 q 138 322 94 299 q 228 361 181 346 q 320 391 276 376 q 391 426 364 406 q 418 478 418 446 l 418 586 q 406 651 418 622 q 370 694 394 679 q 307 710 346 710 q 251 702 279 710 q 206 676 224 694 q 266 634 244 663 q 288 569 288 606 q 255 494 288 522 q 178 467 222 467 q 102 498 128 467 q 76 574 76 529 q 97 640 76 614 q 153 690 117 667 q 247 725 192 713 q 365 738 301 738 q 481 724 429 738 q 567 676 532 711 q 608 598 599 644 q 618 481 618 551 l 618 103 q 625 55 618 68 q 649 42 632 42 q 673 49 661 42 q 699 65 685 56 l 713 42 q 645 3 683 17 q 560 -10 607 -10 q 478 5 508 -10 q 434 44 447 19 q 421 103 421 69 q 340 20 388 50 q 225 -10 293 -10 m 324 79 q 374 92 351 79 q 418 136 397 106 l 418 421 q 383 383 406 400 q 336 349 361 367 q 288 311 311 332 q 251 260 265 290 q 238 186 238 229 q 261 106 238 132 q 324 79 285 79 m 601 1094 l 625 1082 q 575 981 608 1032 q 489 897 542 931 q 360 863 436 863 q 231 897 283 863 q 144 981 178 931 q 94 1082 111 1032 l 118 1094 q 171 1049 139 1072 q 249 1010 203 1025 q 360 994 296 994 q 470 1010 424 994 q 549 1049 517 1025 q 601 1094 582 1072 m 256 1357 q 328 1343 299 1357 q 381 1311 357 1329 q 431 1279 406 1293 q 490 1265 457 1265 q 547 1283 519 1265 q 597 1339 574 1300 l 617 1329 q 547 1181 593 1226 q 444 1136 500 1136 q 372 1150 401 1136 q 317 1183 342 1164 q 268 1215 293 1201 q 208 1229 243 1229 q 152 1212 179 1229 q 101 1154 125 1194 l 82 1164 q 153 1313 106 1268 q 256 1357 200 1357 z "},"ǎ":{"ha":719,"x_min":40,"x_max":713,"o":"m 225 -10 q 121 14 163 -10 q 60 77 79 38 q 40 164 40 117 q 67 261 40 224 q 138 322 94 299 q 228 361 181 346 q 320 391 276 376 q 391 426 364 406 q 418 478 418 446 l 418 586 q 406 651 418 622 q 370 694 394 679 q 307 710 346 710 q 251 702 279 710 q 206 676 224 694 q 266 634 244 663 q 288 569 288 606 q 255 494 288 522 q 178 467 222 467 q 102 498 128 467 q 76 574 76 529 q 97 640 76 614 q 153 690 117 667 q 247 725 192 713 q 365 738 301 738 q 481 724 429 738 q 567 676 532 711 q 608 598 599 644 q 618 481 618 551 l 618 103 q 625 55 618 68 q 649 42 632 42 q 673 49 661 42 q 699 65 685 56 l 713 42 q 645 3 683 17 q 560 -10 607 -10 q 478 5 508 -10 q 434 44 447 19 q 421 103 421 69 q 340 20 388 50 q 225 -10 293 -10 m 324 79 q 374 92 351 79 q 418 136 397 106 l 418 421 q 383 383 406 400 q 336 349 361 367 q 288 311 311 332 q 251 260 265 290 q 238 186 238 229 q 261 106 238 132 q 324 79 285 79 m 597 1139 l 608 1119 q 463 999 529 1074 q 360 847 397 925 l 335 847 q 231 999 297 924 q 86 1119 165 1074 l 97 1139 q 253 1091 178 1119 q 375 1033 329 1063 q 474 1091 414 1063 q 597 1139 533 1119 z "},"â":{"ha":719,"x_min":40,"x_max":713,"o":"m 225 -10 q 121 14 163 -10 q 60 77 79 38 q 40 164 40 117 q 67 261 40 224 q 138 322 94 299 q 228 361 181 346 q 320 391 276 376 q 391 426 364 406 q 418 478 418 446 l 418 586 q 406 651 418 622 q 370 694 394 679 q 307 710 346 710 q 251 702 279 710 q 206 676 224 694 q 266 634 244 663 q 288 569 288 606 q 255 494 288 522 q 178 467 222 467 q 102 498 128 467 q 76 574 76 529 q 97 640 76 614 q 153 690 117 667 q 247 725 192 713 q 365 738 301 738 q 481 724 429 738 q 567 676 532 711 q 608 598 599 644 q 618 481 618 551 l 618 103 q 625 55 618 68 q 649 42 632 42 q 673 49 661 42 q 699 65 685 56 l 713 42 q 645 3 683 17 q 560 -10 607 -10 q 478 5 508 -10 q 434 44 447 19 q 421 103 421 69 q 340 20 388 50 q 225 -10 293 -10 m 324 79 q 374 92 351 79 q 418 136 397 106 l 418 421 q 383 383 406 400 q 336 349 361 367 q 288 311 311 332 q 251 260 265 290 q 238 186 238 229 q 261 106 238 132 q 324 79 285 79 m 374 1139 q 477 988 411 1063 q 622 867 543 914 l 611 847 q 456 896 531 867 q 333 953 381 925 q 235 896 296 925 q 111 847 175 867 l 100 867 q 245 988 179 914 q 349 1139 311 1061 l 374 1139 z "},"ấ":{"ha":719,"x_min":40,"x_max":713,"o":"m 225 -10 q 121 14 163 -10 q 60 77 79 38 q 40 164 40 117 q 67 261 40 224 q 138 322 94 299 q 228 361 181 346 q 320 391 276 376 q 391 426 364 406 q 418 478 418 446 l 418 586 q 406 651 418 622 q 370 694 394 679 q 307 710 346 710 q 251 702 279 710 q 206 676 224 694 q 266 634 244 663 q 288 569 288 606 q 255 494 288 522 q 178 467 222 467 q 102 498 128 467 q 76 574 76 529 q 97 640 76 614 q 153 690 117 667 q 247 725 192 713 q 365 738 301 738 q 481 724 429 738 q 567 676 532 711 q 608 598 599 644 q 618 481 618 551 l 618 103 q 625 55 618 68 q 649 42 632 42 q 673 49 661 42 q 699 65 685 56 l 713 42 q 645 3 683 17 q 560 -10 607 -10 q 478 5 508 -10 q 434 44 447 19 q 421 103 421 69 q 340 20 388 50 q 225 -10 293 -10 m 324 79 q 374 92 351 79 q 418 136 397 106 l 418 421 q 383 383 406 400 q 336 349 361 367 q 288 311 311 332 q 251 260 265 290 q 238 186 238 229 q 261 106 238 132 q 324 79 285 79 m 374 1139 q 477 988 411 1063 q 622 867 543 914 l 611 847 q 456 896 531 867 q 333 953 381 925 q 235 896 296 925 q 111 847 175 867 l 100 867 q 245 988 179 914 q 349 1139 311 1061 l 374 1139 m 500 1469 q 525 1419 524 1451 q 504 1360 526 1388 q 450 1310 482 1332 q 374 1256 418 1288 q 269 1167 331 1224 l 254 1179 q 315 1305 296 1254 q 349 1392 335 1356 q 386 1454 363 1428 q 441 1487 407 1482 q 500 1469 475 1492 z "},"ậ":{"ha":719,"x_min":40,"x_max":713,"o":"m 225 -10 q 121 14 163 -10 q 60 77 79 38 q 40 164 40 117 q 67 261 40 224 q 138 322 94 299 q 228 361 181 346 q 320 391 276 376 q 391 426 364 406 q 418 478 418 446 l 418 586 q 406 651 418 622 q 370 694 394 679 q 307 710 346 710 q 251 702 279 710 q 206 676 224 694 q 266 634 244 663 q 288 569 288 606 q 255 494 288 522 q 178 467 222 467 q 102 498 128 467 q 76 574 76 529 q 97 640 76 614 q 153 690 117 667 q 247 725 192 713 q 365 738 301 738 q 481 724 429 738 q 567 676 532 711 q 608 598 599 644 q 618 481 618 551 l 618 103 q 625 55 618 68 q 649 42 632 42 q 673 49 661 42 q 699 65 685 56 l 713 42 q 645 3 683 17 q 560 -10 607 -10 q 478 5 508 -10 q 434 44 447 19 q 421 103 421 69 q 340 20 388 50 q 225 -10 293 -10 m 324 79 q 374 92 351 79 q 418 136 397 106 l 418 421 q 383 383 406 400 q 336 349 361 367 q 288 311 311 332 q 251 260 265 290 q 238 186 238 229 q 261 106 238 132 q 324 79 285 79 m 374 1139 q 477 988 411 1063 q 622 867 543 914 l 611 847 q 456 896 531 867 q 333 953 381 925 q 235 896 296 925 q 111 847 175 867 l 100 867 q 245 988 179 914 q 349 1139 311 1061 l 374 1139 m 358 -260 q 284 -236 313 -260 q 256 -168 256 -212 q 283 -101 256 -126 q 361 -76 311 -76 q 438 -101 411 -76 q 464 -168 464 -125 q 435 -235 464 -211 q 358 -260 407 -260 z "},"ầ":{"ha":719,"x_min":40,"x_max":713,"o":"m 225 -10 q 121 14 163 -10 q 60 77 79 38 q 40 164 40 117 q 67 261 40 224 q 138 322 94 299 q 228 361 181 346 q 320 391 276 376 q 391 426 364 406 q 418 478 418 446 l 418 586 q 406 651 418 622 q 370 694 394 679 q 307 710 346 710 q 251 702 279 710 q 206 676 224 694 q 266 634 244 663 q 288 569 288 606 q 255 494 288 522 q 178 467 222 467 q 102 498 128 467 q 76 574 76 529 q 97 640 76 614 q 153 690 117 667 q 247 725 192 713 q 365 738 301 738 q 481 724 429 738 q 567 676 532 711 q 608 598 599 644 q 618 481 618 551 l 618 103 q 625 55 618 68 q 649 42 632 42 q 673 49 661 42 q 699 65 685 56 l 713 42 q 645 3 683 17 q 560 -10 607 -10 q 478 5 508 -10 q 434 44 447 19 q 421 103 421 69 q 340 20 388 50 q 225 -10 293 -10 m 324 79 q 374 92 351 79 q 418 136 397 106 l 418 421 q 383 383 406 400 q 336 349 361 367 q 288 311 311 332 q 251 260 265 290 q 238 186 238 229 q 261 106 238 132 q 324 79 285 79 m 374 1139 q 477 988 411 1063 q 622 867 543 914 l 611 847 q 456 896 531 867 q 333 953 381 925 q 235 896 296 925 q 111 847 175 867 l 100 867 q 245 988 179 914 q 349 1139 311 1061 l 374 1139 m 175 1469 q 234 1486 200 1492 q 289 1454 268 1481 q 326 1392 313 1428 q 360 1305 340 1356 q 421 1179 381 1254 l 406 1167 q 301 1256 344 1224 q 226 1310 257 1288 q 171 1360 194 1332 q 150 1419 149 1388 q 175 1469 151 1450 z "},"ẩ":{"ha":719,"x_min":40,"x_max":826,"o":"m 225 -10 q 121 14 163 -10 q 60 77 79 38 q 40 164 40 117 q 67 261 40 224 q 138 322 94 299 q 228 361 181 346 q 320 391 276 376 q 391 426 364 406 q 418 478 418 446 l 418 586 q 406 651 418 622 q 370 694 394 679 q 307 710 346 710 q 251 702 279 710 q 206 676 224 694 q 266 634 244 663 q 288 569 288 606 q 255 494 288 522 q 178 467 222 467 q 102 498 128 467 q 76 574 76 529 q 97 640 76 614 q 153 690 117 667 q 247 725 192 713 q 365 738 301 738 q 481 724 429 738 q 567 676 532 711 q 608 598 599 644 q 618 481 618 551 l 618 103 q 625 55 618 68 q 649 42 632 42 q 673 49 661 42 q 699 65 685 56 l 713 42 q 645 3 683 17 q 560 -10 607 -10 q 478 5 508 -10 q 434 44 447 19 q 421 103 421 69 q 340 20 388 50 q 225 -10 293 -10 m 324 79 q 374 92 351 79 q 418 136 397 106 l 418 421 q 383 383 406 400 q 336 349 361 367 q 288 311 311 332 q 251 260 265 290 q 238 186 238 229 q 261 106 238 132 q 324 79 285 79 m 374 1139 q 477 988 411 1063 q 622 867 543 914 l 611 847 q 456 896 531 867 q 333 953 381 925 q 235 896 296 925 q 111 847 175 867 l 100 867 q 245 988 179 914 q 349 1139 311 1061 l 374 1139 m 592 1057 l 592 1133 q 673 1188 649 1158 q 697 1258 697 1218 q 671 1330 697 1306 q 601 1354 644 1354 q 565 1350 583 1354 q 536 1338 546 1346 q 583 1311 567 1329 q 600 1264 600 1293 q 578 1211 600 1231 q 525 1192 557 1192 q 472 1212 492 1192 q 451 1264 451 1232 q 469 1317 451 1294 q 507 1351 486 1339 q 564 1374 531 1365 q 639 1382 597 1382 q 774 1351 721 1382 q 826 1265 826 1319 q 766 1173 826 1208 q 619 1121 706 1138 l 619 1057 l 592 1057 z "},"ẫ":{"ha":719,"x_min":40,"x_max":713,"o":"m 225 -10 q 121 14 163 -10 q 60 77 79 38 q 40 164 40 117 q 67 261 40 224 q 138 322 94 299 q 228 361 181 346 q 320 391 276 376 q 391 426 364 406 q 418 478 418 446 l 418 586 q 406 651 418 622 q 370 694 394 679 q 307 710 346 710 q 251 702 279 710 q 206 676 224 694 q 266 634 244 663 q 288 569 288 606 q 255 494 288 522 q 178 467 222 467 q 102 498 128 467 q 76 574 76 529 q 97 640 76 614 q 153 690 117 667 q 247 725 192 713 q 365 738 301 738 q 481 724 429 738 q 567 676 532 711 q 608 598 599 644 q 618 481 618 551 l 618 103 q 625 55 618 68 q 649 42 632 42 q 673 49 661 42 q 699 65 685 56 l 713 42 q 645 3 683 17 q 560 -10 607 -10 q 478 5 508 -10 q 434 44 447 19 q 421 103 421 69 q 340 20 388 50 q 225 -10 293 -10 m 324 79 q 374 92 351 79 q 418 136 397 106 l 418 421 q 383 383 406 400 q 336 349 361 367 q 288 311 311 332 q 251 260 265 290 q 238 186 238 229 q 261 106 238 132 q 324 79 285 79 m 374 1139 q 477 988 411 1063 q 622 867 543 914 l 611 847 q 456 896 531 867 q 333 953 381 925 q 235 896 296 925 q 111 847 175 867 l 100 867 q 245 988 179 914 q 349 1139 311 1061 l 374 1139 m 244 1426 q 317 1413 288 1426 q 370 1381 346 1399 q 420 1349 394 1363 q 479 1335 446 1335 q 535 1352 508 1335 q 586 1408 563 1369 l 606 1399 q 535 1251 582 1296 q 433 1206 489 1206 q 360 1219 390 1206 q 306 1252 331 1233 q 257 1285 282 1271 q 197 1299 232 1299 q 141 1281 168 1299 q 90 1224 114 1264 l 71 1233 q 142 1382 94 1338 q 244 1426 189 1426 z "}}}
